<?xml version="1.0" encoding="UTF-8" standalone="no"?>
<!-- Created with Inkscape (http://www.inkscape.org/) -->

<svg
   width="1000"
   height="1000"
   viewBox="0 0 1000 1000"
   version="1.1"
   id="svg1"
   inkscape:version="1.4.3 (0d15f75042, 2025-12-25)"
   sodipodi:docname="anticlockwise.svg"
   xml:space="preserve"
   xmlns:inkscape="http://www.inkscape.org/namespaces/inkscape"
   xmlns:sodipodi="http://sodipodi.sourceforge.net/DTD/sodipodi-0.dtd"
   xmlns:xlink="http://www.w3.org/1999/xlink"
   xmlns="http://www.w3.org/2000/svg"
   xmlns:svg="http://www.w3.org/2000/svg"
   xmlns:rdf="http://www.w3.org/1999/02/22-rdf-syntax-ns#"
   xmlns:cc="http://creativecommons.org/ns#"><sodipodi:namedview
     id="namedview1"
     pagecolor="#ffffff"
     bordercolor="#999999"
     borderopacity="1"
     inkscape:showpageshadow="2"
     inkscape:pageopacity="0"
     inkscape:pagecheckerboard="0"
     inkscape:deskcolor="#d1d1d1"
     inkscape:document-units="px"
     inkscape:zoom="0.4"
     inkscape:cx="499"
     inkscape:cy="665"
     inkscape:window-width="1216"
     inkscape:window-height="1027"
     inkscape:window-x="0"
     inkscape:window-y="0"
     inkscape:window-maximized="0"
     inkscape:current-layer="layer1"
     showgrid="true"><inkscape:grid
       id="grid1"
       units="px"
       originx="0"
       originy="0"
       spacingx="10"
       spacingy="10"
       empcolor="#e05050"
       empopacity="0.302"
       color="#505050"
       opacity="0.07843137"
       empspacing="10"
       enabled="true"
       visible="true" /></sodipodi:namedview><defs
     id="defs1" /><g
     inkscape:label="glyph"
     inkscape:groupmode="layer"
     id="layer1"
     style="fill:#d01620;fill-opacity:0.3"><path
       id="path8"
       style="baseline-shift:baseline;display:inline;overflow:visible;opacity:1;vector-effect:none;fill:#d01620;fill-opacity:0.3;enable-background:accumulate;stop-color:#000000;stop-opacity:1"
       d="M 501,50.1 C 405,49.9 311,86.6 240,153 V 60 H 160 V 300 H 400 V 220 H 286 C 371,133 503,104 620,155 757,215 829,366 789,511 748,656 608,748 459,727 311,707 200,581 200,430 l -80,1 C 120,620 261,781 449,806 636,832 815,715 866,533 917,350 825,157 652,81.6 603,60.4 552,50.1 501,50.1 Z M 568,276 480,390 H 300 v 80 H 520 L 632,324 Z"
       inkscape:label="anticlockwise-v1"
       sodipodi:insensitive="true" /></g><g
     inkscape:groupmode="layer"
     id="layer4"
     inkscape:label="archive"
     style="display:inline"><path
       id="path12"
       style="baseline-shift:baseline;display:none;overflow:visible;opacity:1;vector-effect:none;fill:#d01620;fill-opacity:0.3;enable-background:accumulate;stop-color:#000000;stop-opacity:1"
       d="M 501,50.1 C 405,49.9 311,86.6 240,153 V 60 H 160 V 300 H 400 V 220 H 286 C 371,133 503,104 620,155 757,215 829,366 789,511 748,656 608,748 459,727 311,707 200,581 200,430 l -80,1 C 120,620 261,781 449,806 636,832 815,715 866,533 917,350 825,157 652,81.6 603,60.4 552,50.1 501,50.1 Z M 576,282 485,400 H 300 v 60 H 515 L 624,318 Z"
       inkscape:label="anticlockwise-v4" /><path
       id="path3"
       style="display:none;baseline-shift:baseline;overflow:visible;opacity:1;vector-effect:none;fill:#d01620;fill-opacity:0.3;enable-background:accumulate;stop-color:#000000;stop-opacity:1"
       d="M 501,50.1 C 405,49.9 311,86.6 240,153 V 60 H 160 V 300 H 400 V 220 H 286 C 371,133 503,104 620,155 757,215 829,366 789,511 748,656 608,748 459,727 311,707 200,581 200,430 l -80,1 C 120,620 261,781 449,806 636,832 815,715 866,533 917,350 825,157 652,81.6 603,60.4 552,50.1 501,50.1 Z M 300,390 v 80 H 483 L 601,597 659,543 517,390 Z"
       inkscape:label="anticlockwise-v2"
       sodipodi:insensitive="true" /><path
       id="path9"
       style="baseline-shift:baseline;display:none;overflow:visible;opacity:1;vector-effect:none;fill:#d01620;fill-opacity:0.3;enable-background:accumulate;stop-color:#000000;stop-opacity:1"
       d="M 501,50.1 C 405,49.9 311,86.6 240,153 V 60 H 160 V 300 H 400 V 220 H 286 C 371,133 503,104 620,155 757,215 829,366 789,511 748,656 608,748 459,727 311,707 200,581 200,430 l -80,1 C 120,620 261,781 449,806 636,832 815,715 866,533 917,350 825,157 652,81.6 603,60.4 552,50.1 501,50.1 Z M 613,271 460,413 v 213 h 80 V 447 L 667,329 Z"
       inkscape:label="anticlockwise-v3"
       sodipodi:insensitive="true" /></g><g
     inkscape:label="construction"
     inkscape:groupmode="layer"
     id="layer2"
     style="display:none"><circle
       style="display:none;fill:#c72923;fill-opacity:0.303;stroke:none;stroke-width:80.4189;stroke-dasharray:none;stroke-opacity:0.4"
       id="path2"
       cx="501"
       cy="430"
       r="180"
       inkscape:label="circle" /><path
       style="fill:none;fill-opacity:0.303;stroke:#0367d7;stroke-width:79.9764;stroke-dasharray:none;stroke-opacity:0.3"
       id="path1"
       sodipodi:type="arc"
       sodipodi:cx="500"
       sodipodi:cy="430"
       sodipodi:rx="340"
       sodipodi:ry="340"
       sodipodi:start="3.69"
       sodipodi:end="3.14"
       sodipodi:arc-type="arc"
       d="M 210,253 A 340,340 0 0 1 636,118 340,340 0 0 1 827,522 340,340 0 0 1 454,767 340,340 0 0 1 160,431"
       sodipodi:open="true"
       inkscape:label="line" /><path
       style="display:inline;fill:none;stroke:#0367d7;stroke-width:60;stroke-dasharray:none;stroke-opacity:0.3"
       d="M 300,430 H 500 L 600,300"
       id="path4"
       sodipodi:nodetypes="ccc"
       inkscape:label="arrows" /><path
       style="fill:none;stroke:#0367d7;stroke-width:80;stroke-dasharray:none;stroke-opacity:0.3"
       d="M 400,260 H 200 V 60"
       id="path7"
       sodipodi:nodetypes="ccc"
       inkscape:label="direction" /></g><g
     inkscape:groupmode="layer"
     id="layer3"
     inkscape:label="ref"
     inkscape:highlight-color="#ff5338"><path
       id="circle2"
       style="baseline-shift:baseline;display:none;overflow:visible;opacity:1;vector-effect:none;fill:#d01620;fill-opacity:0.303;enable-background:accumulate;stop-color:#000000;stop-opacity:1"
       d="M 500,60 C 296,60 130,226 130,430 130,634 296,800 500,800 704,800 870,634 870,430 870,226 704,60 500,60 Z m 0,80 C 661,140 790,269 790,430 790,591 661,720 500,720 339,720 210,591 210,430 210,269 339,140 500,140 Z m 0,210 a 80.4,80.4 0 0 0 -80,80 80.4,80.4 0 0 0 80,80 80.4,80.4 0 0 0 80,-80 80.4,80.4 0 0 0 -80,-80 z"
       inkscape:label="sun-v1"
       sodipodi:insensitive="true" /></g><metadata
     id="metadata1"><rdf:RDF><cc:Work
         rdf:about=""><cc:license
           rdf:resource="http://scripts.sil.org/OFL" /></cc:Work><cc:License
         rdf:about="http://scripts.sil.org/OFL"><cc:permits
           rdf:resource="http://scripts.sil.org/pub/OFL/Reproduction" /><cc:permits
           rdf:resource="http://scripts.sil.org/pub/OFL/Distribution" /><cc:permits
           rdf:resource="http://scripts.sil.org/pub/OFL/Embedding" /><cc:permits
           rdf:resource="http://scripts.sil.org/pub/OFL/DerivativeWorks" /><cc:requires
           rdf:resource="http://scripts.sil.org/pub/OFL/Notice" /><cc:requires
           rdf:resource="http://scripts.sil.org/pub/OFL/Attribution" /><cc:requires
           rdf:resource="http://scripts.sil.org/pub/OFL/ShareAlike" /><cc:requires
           rdf:resource="http://scripts.sil.org/pub/OFL/DerivativeRenaming" /><cc:requires
           rdf:resource="http://scripts.sil.org/pub/OFL/BundlingWhenSelling" /></cc:License></rdf:RDF></metadata><image
     preserveAspectRatio="none"
     inkscape:svg-dpi="96"
     width="1000"
     height="1000"
     xlink:href="../templates/guidelines.svg"
     id="image1"
     x="0"
     y="0"
     inkscape:label="guidelines"
     sodipodi:insensitive="true"
     style="display:inline;mix-blend-mode:normal" /></svg>
