<?xml version="1.0" encoding="UTF-8" standalone="no"?>
<!-- Created with Inkscape (http://www.inkscape.org/) -->

<svg
   width="1000"
   height="1000"
   viewBox="0 0 1000 1000"
   version="1.1"
   id="svg1"
   inkscape:version="1.4.3 (0d15f75042, 2025-12-25)"
   sodipodi:docname="aquarius.svg"
   xml:space="preserve"
   xmlns:inkscape="http://www.inkscape.org/namespaces/inkscape"
   xmlns:sodipodi="http://sodipodi.sourceforge.net/DTD/sodipodi-0.dtd"
   xmlns:xlink="http://www.w3.org/1999/xlink"
   xmlns="http://www.w3.org/2000/svg"
   xmlns:svg="http://www.w3.org/2000/svg"
   xmlns:rdf="http://www.w3.org/1999/02/22-rdf-syntax-ns#"
   xmlns:cc="http://creativecommons.org/ns#"><sodipodi:namedview
     id="namedview1"
     pagecolor="#ffffff"
     bordercolor="#999999"
     borderopacity="1"
     inkscape:showpageshadow="2"
     inkscape:pageopacity="0"
     inkscape:pagecheckerboard="0"
     inkscape:deskcolor="#d1d1d1"
     inkscape:document-units="px"
     inkscape:zoom="0.501"
     inkscape:cx="525"
     inkscape:cy="472"
     inkscape:window-width="1920"
     inkscape:window-height="1080"
     inkscape:window-x="0"
     inkscape:window-y="0"
     inkscape:window-maximized="0"
     inkscape:current-layer="layer2"
     showgrid="true"
     showguides="true"
     inkscape:lockguides="true"><inkscape:grid
       id="grid1"
       units="px"
       originx="0"
       originy="0"
       spacingx="10"
       spacingy="10"
       empcolor="#e05050"
       empopacity="0.302"
       color="#505050"
       opacity="0.07843137"
       empspacing="10"
       enabled="true"
       visible="true" /><sodipodi:guide
       position="0,565"
       orientation="0,1"
       id="guide1"
       inkscape:locked="true"
       inkscape:label="center"
       inkscape:color="rgb(129,61,156)" /></sodipodi:namedview><defs
     id="defs1"><inkscape:path-effect
       effect="tiling"
       id="path-effect27"
       is_visible="true"
       lpeversion="1.3.1"
       unit="px"
       seed="1;1"
       lpesatellites=""
       num_rows="1"
       num_cols="1"
       gapx="0"
       gapy="0"
       offset="0"
       offset_type="false"
       scale="0"
       rotate="0"
       mirrorrowsx="false"
       mirrorrowsy="false"
       mirrorcolsx="false"
       mirrorcolsy="false"
       mirrortrans="false"
       shrink_interp="false"
       split_items="false"
       link_styles="false"
       interpolate_scalex="false"
       interpolate_scaley="true"
       interpolate_rotatex="false"
       interpolate_rotatey="true"
       random_scale="false"
       random_rotate="false"
       random_gap_y="false"
       random_gap_x="false"
       transformorigin="" /><inkscape:path-effect
       effect="powerstroke"
       message=""
       id="path-effect24"
       is_visible="true"
       lpeversion="1.3"
       scale_width="1"
       interpolator_type="SpiroInterpolator"
       interpolator_beta="0.2"
       start_linecap_type="zerowidth"
       end_linecap_type="zerowidth"
       offset_points="8.57e-17,30.6 | 3.5,40 | 7,30.9"
       linejoin_type="miter"
       miter_limit="4"
       not_jump="false"
       sort_points="true" /><inkscape:path-effect
       effect="tiling"
       id="path-effect19"
       is_visible="true"
       lpeversion="1.3.1"
       unit="px"
       seed="1;1"
       lpesatellites=""
       num_rows="2"
       num_cols="1"
       gapx="0"
       gapy="0"
       offset="0"
       offset_type="false"
       scale="0"
       rotate="0"
       mirrorrowsx="false"
       mirrorrowsy="false"
       mirrorcolsx="false"
       mirrorcolsy="false"
       mirrortrans="false"
       shrink_interp="false"
       split_items="false"
       link_styles="false"
       interpolate_scalex="false"
       interpolate_scaley="true"
       interpolate_rotatex="false"
       interpolate_rotatey="true"
       random_scale="false"
       random_rotate="false"
       random_gap_y="false"
       random_gap_x="false"
       transformorigin="" /><inkscape:path-effect
       effect="tiling"
       id="path-effect8"
       is_visible="true"
       lpeversion="1.3.1"
       unit="px"
       seed="1;1"
       lpesatellites=""
       num_rows="1"
       num_cols="1"
       gapx="0"
       gapy="0"
       offset="0"
       offset_type="false"
       scale="0"
       rotate="0"
       mirrorrowsx="false"
       mirrorrowsy="false"
       mirrorcolsx="false"
       mirrorcolsy="false"
       mirrortrans="false"
       shrink_interp="false"
       split_items="false"
       link_styles="false"
       interpolate_scalex="false"
       interpolate_scaley="true"
       interpolate_rotatex="false"
       interpolate_rotatey="true"
       random_scale="false"
       random_rotate="false"
       random_gap_y="false"
       random_gap_x="false"
       transformorigin="" /><inkscape:path-effect
       effect="powerstroke"
       message=""
       id="path-effect7"
       is_visible="true"
       lpeversion="1.3"
       scale_width="1"
       interpolator_type="SpiroInterpolator"
       interpolator_beta="0.2"
       start_linecap_type="zerowidth"
       end_linecap_type="zerowidth"
       offset_points="0,30.6 | 2,40 | 4,30.9"
       linejoin_type="miter"
       miter_limit="4"
       not_jump="false"
       sort_points="true" /><inkscape:path-effect
       effect="powerstroke"
       message=""
       id="path-effect5"
       is_visible="true"
       lpeversion="1.3"
       scale_width="1"
       interpolator_type="SpiroInterpolator"
       interpolator_beta="0.2"
       start_linecap_type="zerowidth"
       end_linecap_type="zerowidth"
       offset_points="0,30 | 6.5,40 | 13,20"
       linejoin_type="miter"
       miter_limit="4"
       not_jump="false"
       sort_points="true" /><inkscape:path-effect
       effect="powerstroke"
       message=""
       id="path-effect3"
       is_visible="true"
       lpeversion="1.3"
       scale_width="1"
       interpolator_type="SpiroInterpolator"
       interpolator_beta="0.2"
       start_linecap_type="zerowidth"
       end_linecap_type="zerowidth"
       offset_points="0,30 | 6.5,40 | 13,20"
       linejoin_type="miter"
       miter_limit="4"
       not_jump="false"
       sort_points="true" /><inkscape:path-effect
       effect="powerstroke"
       message=""
       id="path-effect23"
       is_visible="true"
       lpeversion="1.3"
       scale_width="1"
       interpolator_type="SpiroInterpolator"
       interpolator_beta="0.2"
       start_linecap_type="zerowidth"
       end_linecap_type="zerowidth"
       offset_points="0,26.6 | 5.5,40 | 11.9,27.7"
       linejoin_type="round"
       miter_limit="4"
       not_jump="false"
       sort_points="true" /><inkscape:path-effect
       effect="powerstroke"
       message=""
       id="path-effect21"
       is_visible="true"
       lpeversion="1.3"
       scale_width="1"
       interpolator_type="SpiroInterpolator"
       interpolator_beta="0.2"
       start_linecap_type="zerowidth"
       end_linecap_type="zerowidth"
       offset_points="0,26.6 | 5.5,40 | 11.9,27.7"
       linejoin_type="round"
       miter_limit="4"
       not_jump="false"
       sort_points="true" /><inkscape:path-effect
       effect="mirror_symmetry"
       start_point="500,419"
       end_point="500,807"
       center_point="500,613"
       id="path-effect33"
       is_visible="true"
       lpeversion="1.2"
       lpesatellites=""
       mode="free"
       discard_orig_path="true"
       fuse_paths="false"
       oposite_fuse="false"
       split_items="false"
       split_open="false"
       link_styles="false" /><inkscape:path-effect
       effect="mirror_symmetry"
       start_point="170,435"
       end_point="828,435"
       center_point="499,435"
       id="path-effect31"
       is_visible="true"
       lpeversion="1.2"
       lpesatellites="#path30"
       mode="free"
       discard_orig_path="false"
       fuse_paths="false"
       oposite_fuse="false"
       split_items="true"
       split_open="false"
       link_styles="false" /><inkscape:path-effect
       effect="mirror_symmetry"
       start_point="500,419"
       end_point="500,807"
       center_point="500,613"
       id="path-effect25"
       is_visible="true"
       lpeversion="1.2"
       lpesatellites=""
       mode="free"
       discard_orig_path="true"
       fuse_paths="false"
       oposite_fuse="false"
       split_items="false"
       split_open="false"
       link_styles="false" /><inkscape:path-effect
       effect="mirror_symmetry"
       start_point="500,419"
       end_point="500,807"
       center_point="500,613"
       id="path-effect20"
       is_visible="true"
       lpeversion="1.2"
       lpesatellites=""
       mode="free"
       discard_orig_path="true"
       fuse_paths="false"
       oposite_fuse="false"
       split_items="false"
       split_open="false"
       link_styles="false" /><inkscape:path-effect
       effect="mirror_symmetry"
       start_point="170,435"
       end_point="828,435"
       center_point="499,435"
       id="path-effect18"
       is_visible="true"
       lpeversion="1.2"
       lpesatellites="#path9"
       mode="free"
       discard_orig_path="false"
       fuse_paths="false"
       oposite_fuse="false"
       split_items="true"
       split_open="false"
       link_styles="false" /><inkscape:path-effect
       effect="mirror_symmetry"
       start_point="500,419"
       end_point="500,807"
       center_point="500,613"
       id="path-effect16"
       is_visible="true"
       lpeversion="1.2"
       lpesatellites=""
       mode="free"
       discard_orig_path="true"
       fuse_paths="false"
       oposite_fuse="false"
       split_items="false"
       split_open="false"
       link_styles="false" /><inkscape:path-effect
       effect="mirror_symmetry"
       start_point="170,435"
       end_point="828,435"
       center_point="499,435"
       id="path-effect15"
       is_visible="true"
       lpeversion="1.2"
       lpesatellites="#path15"
       mode="free"
       discard_orig_path="false"
       fuse_paths="false"
       oposite_fuse="false"
       split_items="true"
       split_open="false"
       link_styles="false" /><inkscape:path-effect
       effect="mirror_symmetry"
       start_point="203,604"
       end_point="808,604"
       center_point="506,604"
       id="path-effect14"
       is_visible="true"
       lpeversion="1.2"
       lpesatellites=""
       mode="free"
       discard_orig_path="false"
       fuse_paths="false"
       oposite_fuse="false"
       split_items="false"
       split_open="false"
       link_styles="false" /><inkscape:path-effect
       effect="mirror_symmetry"
       start_point="505,397"
       end_point="505,810"
       center_point="505,604"
       id="path-effect13"
       is_visible="true"
       lpeversion="1.2"
       lpesatellites=""
       mode="free"
       discard_orig_path="true"
       fuse_paths="false"
       oposite_fuse="false"
       split_items="false"
       split_open="false"
       link_styles="false" /><inkscape:path-effect
       effect="mirror_symmetry"
       start_point="808,59.6"
       end_point="808,810"
       center_point="808,435"
       id="path-effect12"
       is_visible="true"
       lpeversion="1.2"
       lpesatellites=""
       mode="free"
       discard_orig_path="false"
       fuse_paths="false"
       oposite_fuse="false"
       split_items="false"
       split_open="false"
       link_styles="false" /><inkscape:path-effect
       effect="mirror_symmetry"
       start_point="185,435"
       end_point="808,435"
       center_point="496,435"
       id="path-effect11"
       is_visible="true"
       lpeversion="1.2"
       lpesatellites=""
       mode="free"
       discard_orig_path="false"
       fuse_paths="false"
       oposite_fuse="false"
       split_items="true"
       split_open="false"
       link_styles="false" /><inkscape:path-effect
       effect="mirror_symmetry"
       start_point="0,440"
       end_point="1000,440"
       center_point="500,440"
       id="path-effect17"
       is_visible="true"
       lpeversion="1.2"
       lpesatellites=""
       mode="free"
       discard_orig_path="false"
       fuse_paths="false"
       oposite_fuse="false"
       split_items="false"
       split_open="false"
       link_styles="false" /><inkscape:path-effect
       effect="mirror_symmetry"
       start_point="0,435"
       end_point="1000,435"
       center_point="500,435"
       id="path-effect10"
       is_visible="true"
       lpeversion="1.2"
       lpesatellites=""
       mode="free"
       discard_orig_path="false"
       fuse_paths="false"
       oposite_fuse="false"
       split_items="false"
       split_open="false"
       link_styles="false" /><inkscape:path-effect
       effect="mirror_symmetry"
       start_point="0,440"
       end_point="1000,440"
       center_point="500,440"
       id="path-effect6"
       is_visible="true"
       lpeversion="1.2"
       lpesatellites=""
       mode="free"
       discard_orig_path="false"
       fuse_paths="false"
       oposite_fuse="false"
       split_items="false"
       split_open="false"
       link_styles="false" /></defs><g
     inkscape:label="glyph"
     inkscape:groupmode="layer"
     id="layer1"
     style="display:inline;fill:#d43f50;fill-opacity:0.3"><path
       id="path29"
       style="baseline-shift:baseline;display:inline;overflow:visible;opacity:1;vector-effect:none;fill:#d43f50;fill-opacity:0.3;stroke:none;stroke-opacity:1;enable-background:accumulate;stop-color:#000000;stop-opacity:1"
       inkscape:label="aquarius-v1"
       d="m 280,50.5 c -25,0 -45,16 -62,34 -17,17.5 -22,27.5 -37,59.5 -15,30 -13,52 -41,78 v 88 c 30,-18 50,-44 64,-70 14,-24 28,-48 37,-68 9,-18 30,-34 49,-30 41,6 60,68 75,98 15,32 36,80 57,110 21,32 35,62 78,62 43,0 57,-30 78,-62 21,-30 40,-82 57,-110 17,-26 34,-90 75,-98 18,-2 37,12 47,30 10,20 24,44 40,68 16,24 33,52 63,72 v -90 c -29,-26 -26,-48 -41,-78 -15,-32 -21,-42 -37,-59.5 -16,-18 -36,-34 -62,-34 -25,0 -50,10 -63,22 -13,12 -17,18 -32,39.5 -15,22 -35,66 -52,102 -17,34 -26,60 -41,84 -22,30 -42,30 -64,0 -15,-24 -24,-50 -41,-84 -17,-36 -37,-80 -52,-102 -15,-21.5 -19,-27.5 -32,-39.5 -13,-12 -37,-22 -63,-22 z m 0,389.5 c -25,0 -45,16 -62,34 -17,18 -22,28 -37,59 -15,31 -13,53 -41,78 v 89 c 30,-19 50,-45 64,-70 14,-25 28,-49 37,-68 9,-19 30,-34 49,-31 41,7 60,68 75,99 15,31 36,79 57,110 21,31 35,61 78,61 43,0 57,-30 78,-61 21,-31 40,-83 57,-110 17,-27 34,-91 75,-98 18,-3 37,12 47,30 10,19 24,44 40,68 16,24 33,51 63,71 v -90 c -29,-25 -26,-47 -41,-78 -15,-31 -21,-41 -37,-59 -16,-18 -36,-34 -62,-34 -25,0 -50,10 -63,22 -13,12 -17,18 -32,40 -15,22 -35,66 -52,101 -17,35 -26,61 -41,84 -22,31 -42,31 -64,0 -15,-23 -24,-49 -41,-84 -17,-35 -37,-79 -52,-101 -15,-22 -19,-28 -32,-40 -13,-12 -37,-22 -63,-22 z"
       transform="translate(0,9.5)" /></g><g
     inkscape:groupmode="layer"
     id="layer4"
     inkscape:label="archive"
     style="display:inline" /><g
     inkscape:label="construction"
     inkscape:groupmode="layer"
     id="layer2"
     style="display:none;fill:#005cb5;fill-opacity:0.3;stroke:#28abe5;stroke-opacity:0.3"><path
       id="path8-3-6"
       style="baseline-shift:baseline;display:none;overflow:visible;vector-effect:none;fill:#005cb5;fill-opacity:0.3;stroke:none;enable-background:accumulate;stop-color:#000000"
       inkscape:label="_scorpio-v2"
       d="m 588,459 c -25,0 -52,12 -68,32 -25,31 -44,65 -60,101 0,0 -15,-80 -33,-121 h -57 c 0,0 30,61 30,181 v 148 h 80 V 662 c 0,-60 62,-130 90,-130 18,0 23,23 27,40 3,17 3,46 3,75 v 153 h 80 V 662 c 0,-60 61,-130 86,-130 14,0 22,23 27,40 5,17 7,46 7,75 v 153 c 0,100 80,100 80,0 V 648 c 0,-77 -28,-189 -100,-189 -25,0 -48,14 -64,32 -26,31 -47,72 -47,72 -10,-45 -41,-104 -81,-104 z"
       sodipodi:nodetypes="sscccsccssssccssssssssscs"
       sodipodi:insensitive="true" /><path
       style="display:none;fill:none;fill-opacity:0.3;stroke-width:80;stroke-opacity:0.2"
       d="m 140,670 20,-20 90,-160 h 80 l 130,260 h 80 L 670,490 h 80 l 90,160 20,20"
       id="path5"
       sodipodi:nodetypes="cccccccccc"
       inkscape:label="_base"
       sodipodi:insensitive="true" /><path
       style="display:none;fill:none;fill-opacity:0.3;fill-rule:nonzero;stroke:#28abe5;stroke-width:80;stroke-opacity:0.2"
       d="m 140,670 c 75,-65 80,-190 150,-190 70,0 130,281 210,281 80,0 140,-281 210,-281 70,0 74,125 150,190"
       id="path7"
       sodipodi:nodetypes="czzzc"
       inkscape:label="_curve"
       transform="translate(0,9.5)"
       sodipodi:insensitive="true" /><path
       style="baseline-shift:baseline;display:inline;overflow:visible;opacity:1;vector-effect:none;fill:#28abe5;fill-opacity:0.2;stroke:none;stroke-opacity:1;enable-background:accumulate;stop-color:#000000;stop-opacity:1"
       d="m 280,440 c -25,0 -45,16 -62,34 -17,18 -22,28 -37,59 -15,31 -13,53 -41,78 v 89 c 30,-19 50,-45 64,-70 14,-25 28,-49 37,-68 9,-19 30,-34 49,-31 41,7 60,68 75,99 15,31 36,79 57,110 21,31 35,61 78,61 43,0 57,-30 78,-61 21,-31 40,-83 57,-110 17,-27 34,-91 75,-98 18,-3 37,12 47,30 10,19 24,44 40,68 16,24 33,51 63,71 v -90 c -29,-25 -26,-47 -41,-78 -15,-31 -21,-41 -37,-59 -16,-18 -36,-34 -62,-34 -25,0 -50,10 -63,22 -13,12 -17,18 -32,40 -15,22 -35,66 -52,101 -17,35 -26,61 -41,84 -22,31 -42,31 -64,0 -15,-23 -24,-49 -41,-84 -17,-35 -37,-79 -52,-101 -15,-22 -19,-28 -32,-40 -13,-12 -37,-22 -63,-22 z"
       id="path27"
       transform="translate(0,9.5)"
       sodipodi:nodetypes="zzzcczsazzzzzaszcczzzzzzsszzzz"
       inkscape:label="curve-origin" /><path
       style="baseline-shift:baseline;display:inline;overflow:visible;opacity:1;vector-effect:none;fill:#28abe5;fill-opacity:0.2;stroke:none;stroke-opacity:1;enable-background:accumulate;stop-color:#000000;stop-opacity:1"
       d="m 280,60 c -25,0 -45,16 -62,34 -17,18 -22,28 -37,59 -15,31 -13,53 -41,78 v 89 c 30,-19 50,-45 64,-70 14,-25 28,-49 37,-68 9,-19 30,-34 49,-31 41,7 60,68 75,99 15,31 36,79 57,110 21,31 35,61 78,61 43,0 57,-30 78,-61 21,-31 40,-83 57,-110 17,-27 34,-91 75,-98 18,-3 37,12 47,30 10,19 24,44 40,68 16,24 33,51 63,71 V 231 C 831,206 834,184 819,153 804,122 798,112 782,94 766,76 746,60 720,60 c -25,0 -50,10 -63,22 -13,12 -17,18 -32,40 -15,22 -35,66 -52,101 -17,35 -26,61 -41,84 -22,31 -42,31 -64,0 C 453,284 444,258 427,223 410,188 390,144 375,122 360,100 356,94 343,82 330,70 306,60 280,60 Z"
       id="path28"
       sodipodi:nodetypes="zzzcczsazzzzzaszcczzzzzzsszzzz"
       inkscape:label="curve-virtual" /></g><g
     inkscape:groupmode="layer"
     id="layer3"
     inkscape:label="ref"
     inkscape:highlight-color="#ff5338"
     style="display:inline;fill:#505050;fill-opacity:0.2"><path
       id="path8"
       style="baseline-shift:baseline;display:none;overflow:visible;opacity:1;vector-effect:none;fill:#505050;fill-opacity:0.2;enable-background:accumulate;stop-color:#000000;stop-opacity:1"
       inkscape:label="aries-v1"
       d="m 316,63 c -66,3.6 -119,57 -127,120 -6,47 -4,117 40,187 h 61 c -50,-90 -39,-133 -30,-170 10,-38 33,-57 60,-60 27,-3 51,5 69,24 18,19 33,50 42,85 29,182 27,367 34,551 h 70 c 7,-184 5,-369 34,-551 9,-35 24,-66 42,-85 18,-19 42,-27 69,-24 27,3 50,22 60,60 9,37 20,80 -30,170 h 61 C 815,300 817,230 811,183 803,120 749,67.4 684,63.7 620,60 584,85.6 564,105 535,134 517,175 500,240 483,175 465,134 436,105 418,88 380,59.6 316,63 Z"
       sodipodi:nodetypes="ssccssssccssssccssscss"
       sodipodi:insensitive="true" /><path
       id="path24"
       style="baseline-shift:baseline;display:none;overflow:visible;vector-effect:none;fill:#505050;fill-opacity:0.2;stroke:none;stroke-width:1.00433;stroke-opacity:1;enable-background:accumulate;stop-color:#000000"
       d="m 464,63 c -154,7 -275,110 -291,206 -3,21 -7,101 67,153 18,13 38,21 59,25 63,14 132,-9 173,-65 46,-65 33,-160 -41,-202 -17,-10 -21,-10 -46,-17 48,-24 97,-34 162,-27 116,20 173,54 223,134 h 60 C 777,180 713,112 575,75 537,65 499,62 464,63 Z M 341,218 c 4,0 9,0 14,1 47,8 77,49 68,93 -8,45 -52,73 -99,65 -47,-8 -77,-49 -69,-94 3,-10 20,-66 86,-65 z m 312,201 c -48,4 -94,27 -125,69 -46,65 -33,160 41,202 17,10 21,10 46,17 -48,24 -97,34 -162,27 C 337,714 280,680 230,600 h -60 c 53,90 117,158 255,195 204,53 382,-76 402,-194 3,-21 7,-101 -67,-153 -18,-13 -38,-21 -59,-25 -16,-3 -32,-5 -48,-4 z m 6,73 c 5,0 11,0 17,1 47,8 77,49 69,94 -3,11 -22,74 -100,64 -47,-8 -77,-49 -68,-93 7,-39 42,-66 82,-66 z"
       inkscape:label="cancer-v1"
       sodipodi:insensitive="true" /><path
       id="path23"
       style="display:none;fill:#505050;fill-opacity:0.2;fill-rule:nonzero;stroke:none;stroke-width:79.968;stroke-opacity:0.3"
       inkscape:label="leo-v1"
       d="M 594,55.6 C 514,50.7 435,88.1 383,149 c -67,74 -93,197 -92,275 0,46 11,71 14,84 -96,-21 -183,52 -185,140 -7,89 77,172 166,162 92,-4 170,-102 144,-192 -17,-44 -42,-84 -49,-131 -24,-111 0,-243 95,-315 57,-48 161,-53 209,1 48,54 47,126 45,191 -14,140 -87,263 -132,393 -23,60 -23,138 32,182 63,56 175,38 215,-38 16,-30 21,-71 15,-101 h -52 c 5,42 -11,91 -55,105 C 704,923 642,880 653,825 670,737 719,659 749,574 792,463 825,340 791,223 777,163 745,102 685,78.6 656,66.3 625,57 594,55.6 Z M 279,564 c 26,-1 38,9 49,16 5,11 13,29 21,43 9,12 8,26 9,36 -3,58 -67,97 -124,69 -57,-28 -62,-111 -12,-146 16,-12 37,-17 57,-18 z"
       sodipodi:nodetypes="ssscssssszssssccsssssscccczsc"
       sodipodi:insensitive="true" /><path
       id="path6"
       style="display:none;fill:#505050;fill-opacity:0.2;fill-rule:nonzero;stroke:none;stroke-width:80;stroke-opacity:0.2"
       inkscape:label="capricorn-v2"
       d="M 303,95.3 C 281,123 269,147 256,180 244,142 229,121 214,100 197,79.4 173,59.1 140,60 v 62 c 62,6 88,338 88,478 h 66 c 0,-30 -12,-397 77,-467 34,-28 84,-12 112,28 12,20 19,45 22,72 11,98 -16,221 0,343 2,14 7,56 32,103 -12,53 -22,110 -46,176 -16,37 -33,68 -78,71 -38,3 -73,4 -113,4 v 50 h 110 c 88,0 120,-61 138,-98 18,-41 30,-88 41,-134 36,35 88,61 161,57 41,-5 126,-45 124,-169 -1,-72 -43,-152 -161,-156 -61,-2 -109,32 -133,78 -6,-28 -5,-46 -5,-55 -2,-88 20,-190 10,-279 C 567,89.3 470,50 420,50 374,50 335,63.2 303,95.3 Z M 714,550 c 57,3 84,27 86,86 3,81 -57,93 -88,88 -48,-10 -78,-36 -98,-71 6,-17 13,-33 19,-47 14,-32 41,-58 81,-56 z"
       sodipodi:nodetypes="scsccccsssscssccsscssscssssssssss"
       sodipodi:insensitive="true" /><path
       id="path8-3"
       style="baseline-shift:baseline;display:none;overflow:visible;vector-effect:none;fill:#505050;fill-opacity:0.2;stroke:none;enable-background:accumulate;stop-color:#000000"
       inkscape:label="scorpio-v2"
       d="M 388,57 C 363,57 336,69.4 320,89.7 295,120 276,154 260,190 c 0,0 -15,-80 -33,-120.3 h -57 c 0,0 30,60.3 30,180.3 v 550 h 80 V 260 c 0,-60 62,-130 90,-130 18,0 23,23 27,40 3,17 3,46 3,75 v 555 h 80 V 260 c 0,-60 61,-130 86,-130 14,0 22,23 27,40 5,17 7,46 7,75 v 355 c 0,96 8,174 149,292 -107,-4 -191,11 -191,11 v 53 c 135,-6 218,0 332,24 C 863,875 848,764 864,656 h -53 c 0,0 -25,79 -16,195 C 731,795 680,745 680,627 V 246 C 680,169 652,57 580,57 555,57 532,71.4 516,89.7 490,120 469,161 469,161 459,116 428,57 388,57 Z"
       sodipodi:insensitive="true" /></g><metadata
     id="metadata1"><rdf:RDF><cc:Work
         rdf:about=""><cc:license
           rdf:resource="http://scripts.sil.org/OFL" /></cc:Work><cc:License
         rdf:about="http://scripts.sil.org/OFL"><cc:permits
           rdf:resource="http://scripts.sil.org/pub/OFL/Reproduction" /><cc:permits
           rdf:resource="http://scripts.sil.org/pub/OFL/Distribution" /><cc:permits
           rdf:resource="http://scripts.sil.org/pub/OFL/Embedding" /><cc:permits
           rdf:resource="http://scripts.sil.org/pub/OFL/DerivativeWorks" /><cc:requires
           rdf:resource="http://scripts.sil.org/pub/OFL/Notice" /><cc:requires
           rdf:resource="http://scripts.sil.org/pub/OFL/Attribution" /><cc:requires
           rdf:resource="http://scripts.sil.org/pub/OFL/ShareAlike" /><cc:requires
           rdf:resource="http://scripts.sil.org/pub/OFL/DerivativeRenaming" /><cc:requires
           rdf:resource="http://scripts.sil.org/pub/OFL/BundlingWhenSelling" /></cc:License></rdf:RDF></metadata><image
     preserveAspectRatio="none"
     inkscape:svg-dpi="96"
     width="1000"
     height="1000"
     xlink:href="../templates/guidelines.svg"
     id="image1"
     x="0"
     y="0"
     inkscape:label="guidelines"
     sodipodi:insensitive="true"
     style="display:inline;mix-blend-mode:normal" /></svg>
