<?xml version="1.0" encoding="UTF-8" standalone="no"?>
<!-- Created with Inkscape (http://www.inkscape.org/) -->

<svg
   width="1000"
   height="1000"
   viewBox="0 0 1000 1000"
   version="1.1"
   id="svg1"
   inkscape:version="1.4.3 (0d15f75042, 2025-12-25)"
   sodipodi:docname="cancer.svg"
   xml:space="preserve"
   xmlns:inkscape="http://www.inkscape.org/namespaces/inkscape"
   xmlns:sodipodi="http://sodipodi.sourceforge.net/DTD/sodipodi-0.dtd"
   xmlns:xlink="http://www.w3.org/1999/xlink"
   xmlns="http://www.w3.org/2000/svg"
   xmlns:svg="http://www.w3.org/2000/svg"
   xmlns:rdf="http://www.w3.org/1999/02/22-rdf-syntax-ns#"
   xmlns:cc="http://creativecommons.org/ns#"><sodipodi:namedview
     id="namedview1"
     pagecolor="#ffffff"
     bordercolor="#999999"
     borderopacity="1"
     inkscape:showpageshadow="2"
     inkscape:pageopacity="0"
     inkscape:pagecheckerboard="0"
     inkscape:deskcolor="#d1d1d1"
     inkscape:document-units="px"
     inkscape:zoom="0.566"
     inkscape:cx="525"
     inkscape:cy="563"
     inkscape:window-width="1920"
     inkscape:window-height="1080"
     inkscape:window-x="0"
     inkscape:window-y="0"
     inkscape:window-maximized="0"
     inkscape:current-layer="layer3"
     showgrid="true"
     showguides="true"
     inkscape:lockguides="true"><inkscape:grid
       id="grid1"
       units="px"
       originx="0"
       originy="0"
       spacingx="10"
       spacingy="10"
       empcolor="#e05050"
       empopacity="0.302"
       color="#505050"
       opacity="0.07843137"
       empspacing="10"
       enabled="true"
       visible="true" /><sodipodi:guide
       position="0,565"
       orientation="0,1"
       id="guide1"
       inkscape:locked="true"
       inkscape:label="center"
       inkscape:color="rgb(129,61,156)" /></sodipodi:namedview><defs
     id="defs1"><inkscape:path-effect
       effect="mirror_symmetry"
       start_point="500,419"
       end_point="500,807"
       center_point="500,613"
       id="path-effect33"
       is_visible="true"
       lpeversion="1.2"
       lpesatellites=""
       mode="free"
       discard_orig_path="true"
       fuse_paths="false"
       oposite_fuse="false"
       split_items="false"
       split_open="false"
       link_styles="false" /><inkscape:path-effect
       effect="mirror_symmetry"
       start_point="170,435"
       end_point="828,435"
       center_point="499,435"
       id="path-effect31"
       is_visible="true"
       lpeversion="1.2"
       lpesatellites="#path30"
       mode="free"
       discard_orig_path="false"
       fuse_paths="false"
       oposite_fuse="false"
       split_items="true"
       split_open="false"
       link_styles="false" /><inkscape:path-effect
       effect="mirror_symmetry"
       start_point="500,419"
       end_point="500,807"
       center_point="500,613"
       id="path-effect25"
       is_visible="true"
       lpeversion="1.2"
       lpesatellites=""
       mode="free"
       discard_orig_path="true"
       fuse_paths="false"
       oposite_fuse="false"
       split_items="false"
       split_open="false"
       link_styles="false" /><inkscape:path-effect
       effect="mirror_symmetry"
       start_point="500,419"
       end_point="500,807"
       center_point="500,613"
       id="path-effect20"
       is_visible="true"
       lpeversion="1.2"
       lpesatellites=""
       mode="free"
       discard_orig_path="true"
       fuse_paths="false"
       oposite_fuse="false"
       split_items="false"
       split_open="false"
       link_styles="false" /><inkscape:path-effect
       effect="mirror_symmetry"
       start_point="170,435"
       end_point="828,435"
       center_point="499,435"
       id="path-effect18"
       is_visible="true"
       lpeversion="1.2"
       lpesatellites="#path9"
       mode="free"
       discard_orig_path="false"
       fuse_paths="false"
       oposite_fuse="false"
       split_items="true"
       split_open="false"
       link_styles="false" /><inkscape:path-effect
       effect="mirror_symmetry"
       start_point="500,419"
       end_point="500,807"
       center_point="500,613"
       id="path-effect16"
       is_visible="true"
       lpeversion="1.2"
       lpesatellites=""
       mode="free"
       discard_orig_path="true"
       fuse_paths="false"
       oposite_fuse="false"
       split_items="false"
       split_open="false"
       link_styles="false" /><inkscape:path-effect
       effect="mirror_symmetry"
       start_point="170,435"
       end_point="828,435"
       center_point="499,435"
       id="path-effect15"
       is_visible="true"
       lpeversion="1.2"
       lpesatellites="#path15"
       mode="free"
       discard_orig_path="false"
       fuse_paths="false"
       oposite_fuse="false"
       split_items="true"
       split_open="false"
       link_styles="false" /><inkscape:path-effect
       effect="mirror_symmetry"
       start_point="203,604"
       end_point="808,604"
       center_point="506,604"
       id="path-effect14"
       is_visible="true"
       lpeversion="1.2"
       lpesatellites=""
       mode="free"
       discard_orig_path="false"
       fuse_paths="false"
       oposite_fuse="false"
       split_items="false"
       split_open="false"
       link_styles="false" /><inkscape:path-effect
       effect="mirror_symmetry"
       start_point="505,397"
       end_point="505,810"
       center_point="505,604"
       id="path-effect13"
       is_visible="true"
       lpeversion="1.2"
       lpesatellites=""
       mode="free"
       discard_orig_path="true"
       fuse_paths="false"
       oposite_fuse="false"
       split_items="false"
       split_open="false"
       link_styles="false" /><inkscape:path-effect
       effect="mirror_symmetry"
       start_point="808,59.6"
       end_point="808,810"
       center_point="808,435"
       id="path-effect12"
       is_visible="true"
       lpeversion="1.2"
       lpesatellites=""
       mode="free"
       discard_orig_path="false"
       fuse_paths="false"
       oposite_fuse="false"
       split_items="false"
       split_open="false"
       link_styles="false" /><inkscape:path-effect
       effect="mirror_symmetry"
       start_point="185,435"
       end_point="808,435"
       center_point="496,435"
       id="path-effect11"
       is_visible="true"
       lpeversion="1.2"
       lpesatellites=""
       mode="free"
       discard_orig_path="false"
       fuse_paths="false"
       oposite_fuse="false"
       split_items="true"
       split_open="false"
       link_styles="false" /><inkscape:path-effect
       effect="mirror_symmetry"
       start_point="0,440"
       end_point="1000,440"
       center_point="500,440"
       id="path-effect17"
       is_visible="true"
       lpeversion="1.2"
       lpesatellites=""
       mode="free"
       discard_orig_path="false"
       fuse_paths="false"
       oposite_fuse="false"
       split_items="false"
       split_open="false"
       link_styles="false" /><inkscape:path-effect
       effect="mirror_symmetry"
       start_point="0,435"
       end_point="1000,435"
       center_point="500,435"
       id="path-effect10"
       is_visible="true"
       lpeversion="1.2"
       lpesatellites=""
       mode="free"
       discard_orig_path="false"
       fuse_paths="false"
       oposite_fuse="false"
       split_items="false"
       split_open="false"
       link_styles="false" /><inkscape:path-effect
       effect="mirror_symmetry"
       start_point="0,440"
       end_point="1000,440"
       center_point="500,440"
       id="path-effect6"
       is_visible="true"
       lpeversion="1.2"
       lpesatellites=""
       mode="free"
       discard_orig_path="false"
       fuse_paths="false"
       oposite_fuse="false"
       split_items="false"
       split_open="false"
       link_styles="false" /></defs><g
     inkscape:label="glyph"
     inkscape:groupmode="layer"
     id="layer1"
     style="display:inline;fill:#d43f50;fill-opacity:0.3"><path
       id="path24"
       style="baseline-shift:baseline;display:inline;overflow:visible;vector-effect:none;fill:#d43f50;fill-opacity:0.3;stroke:none;stroke-width:1.00433;stroke-opacity:1;enable-background:accumulate;stop-color:#000000"
       d="m 464,63 c -154,7 -275,110 -291,206 -3,21 -7,101 67,153 18,13 38,21 59,25 63,14 132,-9 173,-65 46,-65 33,-160 -41,-202 -17,-10 -21,-10 -46,-17 48,-24 97,-34 162,-27 116,20 173,54 223,134 h 60 C 777,180 713,112 575,75 537,65 499,62 464,63 Z M 341,218 c 4,0 9,0 14,1 47,8 77,49 68,93 -8,45 -52,73 -99,65 -47,-8 -77,-49 -69,-94 3,-10 20,-66 86,-65 z m 312,201 c -48,4 -94,27 -125,69 -46,65 -33,160 41,202 17,10 21,10 46,17 -48,24 -97,34 -162,27 C 337,714 280,680 230,600 h -60 c 53,90 117,158 255,195 204,53 382,-76 402,-194 3,-21 7,-101 -67,-153 -18,-13 -38,-21 -59,-25 -16,-3 -32,-5 -48,-4 z m 6,73 c 5,0 11,0 17,1 47,8 77,49 69,94 -3,11 -22,74 -100,64 -47,-8 -77,-49 -68,-93 7,-39 42,-66 82,-66 z"
       inkscape:label="cancer-v1" /></g><g
     inkscape:groupmode="layer"
     id="layer4"
     inkscape:label="archive"
     style="display:none" /><g
     inkscape:label="construction"
     inkscape:groupmode="layer"
     id="layer2"
     style="display:none;fill:#005cb5;fill-opacity:0.299;stroke:#28abe5;stroke-opacity:0.3"><circle
       style="display:none;fill:none;fill-opacity:0.2;stroke:#28abe5;stroke-width:80;stroke-opacity:0.3"
       id="path3"
       cx="650"
       cy="550"
       r="120"
       inkscape:label="_stroke-ring"
       sodipodi:insensitive="true" /><path
       sodipodi:type="spiral"
       style="display:none;fill:none;fill-opacity:0.299;fill-rule:evenodd;stroke:#b000d0;stroke-width:123.405;stroke-dasharray:none;stroke-opacity:0.3"
       id="path6"
       sodipodi:cx="247"
       sodipodi:cy="100"
       sodipodi:expansion="0.3"
       sodipodi:revolution="1.05"
       sodipodi:radius="175"
       sodipodi:argument="-8.66"
       sodipodi:t0="0.06"
       d="M 217,31 C 249,-26.3 332,9.49 359,51.5 399,115 369,199 305,233 230,273 136,239 98.4,165 58.9,86.7 90.2,-10.1 164,-54.3"
       transform="matrix(-0.567,0.458,-0.436,-0.583,828,504)"
       inkscape:label="_stroke-ring-shape"
       sodipodi:insensitive="true" /><path
       style="display:none;fill:none;fill-opacity:0.2;stroke:#28abe5;stroke-width:80;stroke-opacity:0.3"
       id="path4"
       sodipodi:type="arc"
       sodipodi:cx="500"
       sodipodi:cy="425"
       sodipodi:rx="300"
       sodipodi:ry="345"
       sodipodi:start="0.51"
       sodipodi:end="2.79"
       sodipodi:open="true"
       sodipodi:arc-type="arc"
       d="M 762,593 A 300,345 0 0 1 476,769 300,345 0 0 1 218,544"
       inkscape:label="_stroke-hand"
       sodipodi:insensitive="true" /><ellipse
       style="display:none;fill:none;fill-opacity:0.2;stroke:#b000d0;stroke-width:80.4471;stroke-opacity:0.3"
       id="path5"
       inkscape:label="_stroke-body-shape"
       cx="488"
       cy="444"
       rx="225"
       ry="260"
       sodipodi:insensitive="true" /><rect
       style="display:none;fill:#b000d0;fill-opacity:0.3;stroke:none;stroke-width:90.0156;stroke-dasharray:none;stroke-opacity:0.3"
       id="rect7"
       width="170"
       height="80"
       x="120"
       y="480"
       inkscape:label="_end-of-stroke"
       sodipodi:insensitive="true" /><path
       id="circle7"
       style="baseline-shift:baseline;display:inline;overflow:visible;vector-effect:none;fill:#28abe5;fill-opacity:0.3;stroke:none;stroke-width:1.00433;stroke-opacity:1;enable-background:accumulate;stop-color:#000000"
       d="m 701,423 c -63,-14 -132,9 -173,65 -46,65 -33,160 41,202 17,10 21,10 46,17 -48,24 -97,34 -162,27 C 337,714 280,680 230,600 h -60 c 53,90 117,158 255,195 204,53 382,-76 402,-194 3,-21 7,-101 -67,-153 -18,-13 -38,-21 -59,-25 z m -25,70 c 47,8 77,49 69,94 -3,11 -22,74 -100,64 -47,-8 -77,-49 -68,-93 8,-45 52,-73 99,-65 z"
       sodipodi:nodetypes="ssscsccsssssssss"
       inkscape:label="original-part"
       inkscape:path-effect="#path-effect15"
       inkscape:original-d="m 701,423 c -63,-14 -132,9 -173,65 -46,65 -33,160 41,202 17,10 21,10 46,17 -48,24 -97,34 -162,27 C 337,714 280,680 230,600 h -60 c 53,90 117,158 255,195 204,53 382,-76 402,-194 3,-21 7,-101 -67,-153 -18,-13 -38,-21 -59,-25 z m -25,70 c 47,8 77,49 69,94 -3,11 -22,74 -100,64 -47,-8 -77,-49 -68,-93 8,-45 52,-73 99,-65 z"
       sodipodi:insensitive="true" /><path
       id="path15"
       d="m 299,423 c 63,-14 132,9 173,65 46,65 33,160 -41,202 -17,10 -21,10 -46,17 48,24 97,34 162,27 116,-20 173,-54 223,-134 h 60 C 777,690 713,758 575,795 371,848 193,719 173,601 c -3,-21 -7,-101 67,-153 18,-13 38,-21 59,-25 z m 25,70 c -47,8 -77,49 -69,94 3,11 22,74 100,64 47,-8 77,-49 68,-93 -8,-45 -52,-73 -99,-65 z"
       style="baseline-shift:baseline;display:inline;overflow:visible;vector-effect:none;fill:#28abe5;fill-opacity:0.3;stroke:none;stroke-width:1.00433;stroke-opacity:1;enable-background:accumulate;stop-color:#000000"
       transform="matrix(1,0,0,-1,0,870)"
       inkscape:path-effect="#path-effect16"
       inkscape:original-d="m 701,423 c -63,-14 -132,9 -173,65 -46,65 -33,160 41,202 17,10 21,10 46,17 -48,24 -97,34 -162,27 C 337,714 280,680 230,600 h -60 c 53,90 117,158 255,195 204,53 382,-76 402,-194 3,-21 7,-101 -67,-153 -18,-13 -38,-21 -59,-25 z m -25,70 c 47,8 77,49 69,94 -3,11 -22,74 -100,64 -47,-8 -77,-49 -68,-93 8,-45 52,-73 99,-65 z"
       sodipodi:insensitive="true" /></g><g
     inkscape:groupmode="layer"
     id="layer3"
     inkscape:label="ref"
     inkscape:highlight-color="#ff5338"
     style="display:inline;fill:#505050;fill-opacity:0.2"><path
       id="circle2"
       style="baseline-shift:baseline;display:none;overflow:visible;vector-effect:none;fill:#505050;fill-opacity:0.2;enable-background:accumulate;stop-color:#000000"
       d="M 500,60 C 296,60 130,226 130,430 130,634 296,800 500,800 704,800 870,634 870,430 870,226 704,60 500,60 Z m 0,80 C 661,140 790,269 790,430 790,591 661,720 500,720 339,720 210,591 210,430 210,269 339,140 500,140 Z m 0,210 a 80.4,80.4 0 0 0 -80,80 80.4,80.4 0 0 0 80,80 80.4,80.4 0 0 0 80,-80 80.4,80.4 0 0 0 -80,-80 z"
       inkscape:label="sun-v1" /><path
       id="path8"
       style="baseline-shift:baseline;display:none;overflow:visible;opacity:1;vector-effect:none;fill:#505050;fill-opacity:0.2;enable-background:accumulate;stop-color:#000000;stop-opacity:1"
       inkscape:label="aries-v1"
       d="m 316,63 c -66,3.6 -119,57 -127,120 -6,47 -4,117 40,187 h 61 c -50,-90 -39,-133 -30,-170 10,-38 33,-57 60,-60 27,-3 51,5 69,24 18,19 33,50 42,85 29,182 27,367 34,551 h 70 c 7,-184 5,-369 34,-551 9,-35 24,-66 42,-85 18,-19 42,-27 69,-24 27,3 50,22 60,60 9,37 20,80 -30,170 h 61 C 815,300 817,230 811,183 803,120 749,67.4 684,63.7 620,60 584,85.6 564,105 535,134 517,175 500,240 483,175 465,134 436,105 418,88 380,59.6 316,63 Z"
       sodipodi:nodetypes="ssccssssccssssccssscss"
       sodipodi:insensitive="true" /></g><metadata
     id="metadata1"><rdf:RDF><cc:Work
         rdf:about=""><cc:license
           rdf:resource="http://scripts.sil.org/OFL" /></cc:Work><cc:License
         rdf:about="http://scripts.sil.org/OFL"><cc:permits
           rdf:resource="http://scripts.sil.org/pub/OFL/Reproduction" /><cc:permits
           rdf:resource="http://scripts.sil.org/pub/OFL/Distribution" /><cc:permits
           rdf:resource="http://scripts.sil.org/pub/OFL/Embedding" /><cc:permits
           rdf:resource="http://scripts.sil.org/pub/OFL/DerivativeWorks" /><cc:requires
           rdf:resource="http://scripts.sil.org/pub/OFL/Notice" /><cc:requires
           rdf:resource="http://scripts.sil.org/pub/OFL/Attribution" /><cc:requires
           rdf:resource="http://scripts.sil.org/pub/OFL/ShareAlike" /><cc:requires
           rdf:resource="http://scripts.sil.org/pub/OFL/DerivativeRenaming" /><cc:requires
           rdf:resource="http://scripts.sil.org/pub/OFL/BundlingWhenSelling" /></cc:License></rdf:RDF></metadata><image
     preserveAspectRatio="none"
     inkscape:svg-dpi="96"
     width="1000"
     height="1000"
     xlink:href="../templates/guidelines.svg"
     id="image1"
     x="0"
     y="0"
     inkscape:label="guidelines"
     sodipodi:insensitive="true"
     style="display:inline;mix-blend-mode:normal" /></svg>
