<?xml version="1.0" encoding="UTF-8" standalone="no"?>
<!-- Created with Inkscape (http://www.inkscape.org/) -->

<svg
   width="1000"
   height="1000"
   viewBox="0 0 1000 1000"
   version="1.1"
   id="svg1"
   inkscape:version="1.4.3 (0d15f75042, 2025-12-25)"
   sodipodi:docname="capricorn.svg"
   xml:space="preserve"
   xmlns:inkscape="http://www.inkscape.org/namespaces/inkscape"
   xmlns:sodipodi="http://sodipodi.sourceforge.net/DTD/sodipodi-0.dtd"
   xmlns:xlink="http://www.w3.org/1999/xlink"
   xmlns="http://www.w3.org/2000/svg"
   xmlns:svg="http://www.w3.org/2000/svg"
   xmlns:rdf="http://www.w3.org/1999/02/22-rdf-syntax-ns#"
   xmlns:cc="http://creativecommons.org/ns#"><sodipodi:namedview
     id="namedview1"
     pagecolor="#ffffff"
     bordercolor="#999999"
     borderopacity="1"
     inkscape:showpageshadow="2"
     inkscape:pageopacity="0"
     inkscape:pagecheckerboard="0"
     inkscape:deskcolor="#d1d1d1"
     inkscape:document-units="px"
     inkscape:zoom="0.283"
     inkscape:cx="401"
     inkscape:cy="717"
     inkscape:window-width="1216"
     inkscape:window-height="1027"
     inkscape:window-x="0"
     inkscape:window-y="0"
     inkscape:window-maximized="0"
     inkscape:current-layer="layer3"
     showgrid="true"
     showguides="true"
     inkscape:lockguides="true"><inkscape:grid
       id="grid1"
       units="px"
       originx="0"
       originy="0"
       spacingx="10"
       spacingy="10"
       empcolor="#e05050"
       empopacity="0.302"
       color="#505050"
       opacity="0.07843137"
       empspacing="10"
       enabled="true"
       visible="true" /><sodipodi:guide
       position="0,565"
       orientation="0,1"
       id="guide1"
       inkscape:locked="true"
       inkscape:label="center"
       inkscape:color="rgb(129,61,156)" /></sodipodi:namedview><defs
     id="defs1"><inkscape:path-effect
       effect="powerstroke"
       message=""
       id="path-effect5"
       is_visible="true"
       lpeversion="1.3"
       scale_width="1"
       interpolator_type="SpiroInterpolator"
       interpolator_beta="0.2"
       start_linecap_type="zerowidth"
       end_linecap_type="zerowidth"
       offset_points="0,30 | 6.5,40 | 13,20"
       linejoin_type="miter"
       miter_limit="4"
       not_jump="false"
       sort_points="true" /><inkscape:path-effect
       effect="powerstroke"
       message=""
       id="path-effect3"
       is_visible="true"
       lpeversion="1.3"
       scale_width="1"
       interpolator_type="SpiroInterpolator"
       interpolator_beta="0.2"
       start_linecap_type="zerowidth"
       end_linecap_type="zerowidth"
       offset_points="0,30 | 6.5,40 | 13,20"
       linejoin_type="miter"
       miter_limit="4"
       not_jump="false"
       sort_points="true" /><inkscape:path-effect
       effect="powerstroke"
       message=""
       id="path-effect23"
       is_visible="true"
       lpeversion="1.3"
       scale_width="1"
       interpolator_type="SpiroInterpolator"
       interpolator_beta="0.2"
       start_linecap_type="zerowidth"
       end_linecap_type="zerowidth"
       offset_points="0,26.6 | 5.5,40 | 11.9,27.7"
       linejoin_type="round"
       miter_limit="4"
       not_jump="false"
       sort_points="true" /><inkscape:path-effect
       effect="powerstroke"
       message=""
       id="path-effect21"
       is_visible="true"
       lpeversion="1.3"
       scale_width="1"
       interpolator_type="SpiroInterpolator"
       interpolator_beta="0.2"
       start_linecap_type="zerowidth"
       end_linecap_type="zerowidth"
       offset_points="0,26.6 | 5.5,40 | 11.9,27.7"
       linejoin_type="round"
       miter_limit="4"
       not_jump="false"
       sort_points="true" /><inkscape:path-effect
       effect="mirror_symmetry"
       start_point="500,419"
       end_point="500,807"
       center_point="500,613"
       id="path-effect33"
       is_visible="true"
       lpeversion="1.2"
       lpesatellites=""
       mode="free"
       discard_orig_path="true"
       fuse_paths="false"
       oposite_fuse="false"
       split_items="false"
       split_open="false"
       link_styles="false" /><inkscape:path-effect
       effect="mirror_symmetry"
       start_point="170,435"
       end_point="828,435"
       center_point="499,435"
       id="path-effect31"
       is_visible="true"
       lpeversion="1.2"
       lpesatellites="#path30"
       mode="free"
       discard_orig_path="false"
       fuse_paths="false"
       oposite_fuse="false"
       split_items="true"
       split_open="false"
       link_styles="false" /><inkscape:path-effect
       effect="mirror_symmetry"
       start_point="500,419"
       end_point="500,807"
       center_point="500,613"
       id="path-effect25"
       is_visible="true"
       lpeversion="1.2"
       lpesatellites=""
       mode="free"
       discard_orig_path="true"
       fuse_paths="false"
       oposite_fuse="false"
       split_items="false"
       split_open="false"
       link_styles="false" /><inkscape:path-effect
       effect="mirror_symmetry"
       start_point="500,419"
       end_point="500,807"
       center_point="500,613"
       id="path-effect20"
       is_visible="true"
       lpeversion="1.2"
       lpesatellites=""
       mode="free"
       discard_orig_path="true"
       fuse_paths="false"
       oposite_fuse="false"
       split_items="false"
       split_open="false"
       link_styles="false" /><inkscape:path-effect
       effect="mirror_symmetry"
       start_point="170,435"
       end_point="828,435"
       center_point="499,435"
       id="path-effect18"
       is_visible="true"
       lpeversion="1.2"
       lpesatellites="#path9"
       mode="free"
       discard_orig_path="false"
       fuse_paths="false"
       oposite_fuse="false"
       split_items="true"
       split_open="false"
       link_styles="false" /><inkscape:path-effect
       effect="mirror_symmetry"
       start_point="500,419"
       end_point="500,807"
       center_point="500,613"
       id="path-effect16"
       is_visible="true"
       lpeversion="1.2"
       lpesatellites=""
       mode="free"
       discard_orig_path="true"
       fuse_paths="false"
       oposite_fuse="false"
       split_items="false"
       split_open="false"
       link_styles="false" /><inkscape:path-effect
       effect="mirror_symmetry"
       start_point="170,435"
       end_point="828,435"
       center_point="499,435"
       id="path-effect15"
       is_visible="true"
       lpeversion="1.2"
       lpesatellites="#path15"
       mode="free"
       discard_orig_path="false"
       fuse_paths="false"
       oposite_fuse="false"
       split_items="true"
       split_open="false"
       link_styles="false" /><inkscape:path-effect
       effect="mirror_symmetry"
       start_point="203,604"
       end_point="808,604"
       center_point="506,604"
       id="path-effect14"
       is_visible="true"
       lpeversion="1.2"
       lpesatellites=""
       mode="free"
       discard_orig_path="false"
       fuse_paths="false"
       oposite_fuse="false"
       split_items="false"
       split_open="false"
       link_styles="false" /><inkscape:path-effect
       effect="mirror_symmetry"
       start_point="505,397"
       end_point="505,810"
       center_point="505,604"
       id="path-effect13"
       is_visible="true"
       lpeversion="1.2"
       lpesatellites=""
       mode="free"
       discard_orig_path="true"
       fuse_paths="false"
       oposite_fuse="false"
       split_items="false"
       split_open="false"
       link_styles="false" /><inkscape:path-effect
       effect="mirror_symmetry"
       start_point="808,59.6"
       end_point="808,810"
       center_point="808,435"
       id="path-effect12"
       is_visible="true"
       lpeversion="1.2"
       lpesatellites=""
       mode="free"
       discard_orig_path="false"
       fuse_paths="false"
       oposite_fuse="false"
       split_items="false"
       split_open="false"
       link_styles="false" /><inkscape:path-effect
       effect="mirror_symmetry"
       start_point="185,435"
       end_point="808,435"
       center_point="496,435"
       id="path-effect11"
       is_visible="true"
       lpeversion="1.2"
       lpesatellites=""
       mode="free"
       discard_orig_path="false"
       fuse_paths="false"
       oposite_fuse="false"
       split_items="true"
       split_open="false"
       link_styles="false" /><inkscape:path-effect
       effect="mirror_symmetry"
       start_point="0,440"
       end_point="1000,440"
       center_point="500,440"
       id="path-effect17"
       is_visible="true"
       lpeversion="1.2"
       lpesatellites=""
       mode="free"
       discard_orig_path="false"
       fuse_paths="false"
       oposite_fuse="false"
       split_items="false"
       split_open="false"
       link_styles="false" /><inkscape:path-effect
       effect="mirror_symmetry"
       start_point="0,435"
       end_point="1000,435"
       center_point="500,435"
       id="path-effect10"
       is_visible="true"
       lpeversion="1.2"
       lpesatellites=""
       mode="free"
       discard_orig_path="false"
       fuse_paths="false"
       oposite_fuse="false"
       split_items="false"
       split_open="false"
       link_styles="false" /><inkscape:path-effect
       effect="mirror_symmetry"
       start_point="0,440"
       end_point="1000,440"
       center_point="500,440"
       id="path-effect6"
       is_visible="true"
       lpeversion="1.2"
       lpesatellites=""
       mode="free"
       discard_orig_path="false"
       fuse_paths="false"
       oposite_fuse="false"
       split_items="false"
       split_open="false"
       link_styles="false" /></defs><g
     inkscape:label="glyph"
     inkscape:groupmode="layer"
     id="layer1"
     style="display:inline;fill:#d43f50;fill-opacity:0.3"><path
       id="path6"
       style="display:inline;fill:#d43f50;fill-opacity:0.3;fill-rule:nonzero;stroke:none;stroke-width:80;stroke-opacity:0.2"
       inkscape:label="capricorn-v2"
       d="M 303,95.3 C 281,123 269,147 256,180 244,142 229,121 214,100 197,79.4 173,59.1 140,60 v 62 c 62,6 88,338 88,478 h 66 c 0,-30 -12,-397 77,-467 34,-28 84,-12 112,28 12,20 19,45 22,72 11,98 -16,221 0,343 2,14 7,56 32,103 -12,53 -22,110 -46,176 -16,37 -33,68 -78,71 -38,3 -73,4 -113,4 v 50 h 110 c 88,0 120,-61 138,-98 18,-41 30,-88 41,-134 36,35 88,61 161,57 41,-5 126,-45 124,-169 -1,-72 -43,-152 -161,-156 -61,-2 -109,32 -133,78 -6,-28 -5,-46 -5,-55 -2,-88 20,-190 10,-279 C 567,89.3 470,50 420,50 374,50 335,63.2 303,95.3 Z M 714,550 c 57,3 84,27 86,86 3,81 -57,93 -88,88 -48,-10 -78,-36 -98,-71 6,-17 13,-33 19,-47 14,-32 41,-58 81,-56 z"
       sodipodi:nodetypes="scsccccsssscssccsscssscssssssssss" /></g><g
     inkscape:groupmode="layer"
     id="layer4"
     inkscape:label="archive"
     style="display:inline"><path
       id="path5"
       style="display:none;fill:#d43f50;fill-opacity:0.3;fill-rule:nonzero;stroke:none;stroke-width:80;stroke-opacity:0.2"
       inkscape:label="capricorn-v1"
       d="M 303,95.3 C 281,123 269,147 256,180 244,142 229,121 214,100 197,79.4 173,59.1 140,60 v 62 c 62,6 88,338 88,478 h 66 c 0,-30 -12,-397 77,-467 34,-28 84,-12 112,28 12,20 19,45 22,72 11,98 -16,221 0,343 2,14 11,60 36,107 -12,53 -24,110 -48,176 -16,37 -37,68 -80,71 -38,2 -73,3 -113,3 v 47 h 113 c 88,0 117,-61 135,-98 18,-41 30,-88 41,-134 36,35 88,61 161,57 41,-5 124,-31 124,-155 0,-80 -41,-176 -161,-176 -62,4 -101,36 -129,88 -5,-28 -5,-50 -5,-59 -2,-88 16,-190 6,-279 C 567,89.3 470,50 420,50 374,50 335,63.2 303,95.3 Z M 714,540 c 58,0 88,38 88,110 0,81 -59,83 -90,78 -48,-10 -78,-40 -98,-75 6,-17 12,-33 19,-47 16,-36 40,-65 81,-66 z"
       sodipodi:nodetypes="scsccccsssscssccsscssscssssssssss" /></g><g
     inkscape:label="construction"
     inkscape:groupmode="layer"
     id="layer2"
     style="display:inline;fill:#005cb5;fill-opacity:0.299;stroke:#28abe5;stroke-opacity:0.3"><path
       id="path8-7"
       style="baseline-shift:baseline;display:none;overflow:visible;vector-effect:none;fill:#505050;fill-opacity:0.2;stroke:none;stroke-width:0.999805;enable-background:accumulate;stop-color:#000000"
       inkscape:label="_aries-v1"
       d="m 166,56.7 c -66,2.7 -119,42 -127,88.3 -6,35 -4,87 40,138 h 61 c -50,-66 -39,-98 -30,-125 10,-28 33,-42 60,-44 27,-3 51,3 69,17 18,14 33,37 42,63 29,134 27,270 34,406 h 70 c 7,-136 5,-272 34,-406 9,-26 24,-49 42,-63 18,-14 42,-20 69,-17 27,2 50,16 60,44 9,27 20,59 -30,125 h 61 C 665,232 667,180 661,145 653,98.7 599,60 534,57.3 470,54.6 434,73.4 414,87.7 385,109 367,140 350,187 333,140 315,109 286,87.7 268,75.2 230,54.2 166,56.7 Z"
       sodipodi:nodetypes="ssccssssccssssccssscss"
       sodipodi:insensitive="true" /><path
       style="display:none;fill:#28abe5;fill-opacity:0.2;fill-rule:nonzero;stroke:none;stroke-width:80;stroke-opacity:0.2"
       d="m 140,90 v 30 c 2,0 4,1 6,2 2,1 4,3 7,6 3,3 5,7 8,11 3,5 6,10 9,15 6,10 10,21 14,32 4,11 7,22 9,33 l 0,0 c 4,15 7,32 10,51 2,19 5,39 7,60 4,42 7,86 8,126 3,80 2,144 2,144 l 76,-1 c 1,0 -2,-67 1,-148 1,-40 4,-84 9,-125 2,-20 5,-40 8,-57 3,-18 7,-33 12,-46 7,-22 14,-39 23,-55 4,-7 9,-14 14,-19 5,-6 11,-11 18,-16 l 0,0 c -1,1 1,0 3,-1 2,-1 6,-2 10,-3 8,-2 18,-3 28,-2 10,0 21,2 30,6 9,4 18,10 25,19 7,9 13,19 18,33 5,13 8,29 10,48 4,36 3,79 0,127 -3,46 -6,96 -5,144 0,24 2,49 5,72 4,24 9,47 18,69 l 0,0 0,0 c 15,37 36,72 65,100 15,14 31,27 49,37 19,10 39,17 61,20 l 1,1 0,0 c 18,3 35,3 51,2 16,-2 31,-5 44,-11 13,-6 24,-13 33,-22 10,-8 17,-18 23,-28 12,-19 18,-39 21,-56 3,-16 3,-30 3,-38 0,-26 -4,-49 -10,-69 -7,-20 -16,-38 -27,-52 -11,-15 -25,-26 -39,-34 -14,-8 -29,-14 -43,-16 -15,-3 -29,-5 -42,-5 -14,1 -26,3 -39,6 -12,4 -23,9 -33,16 -10,7 -19,15 -27,23 -16,18 -29,38 -39,60 -10,22 -18,46 -25,71 -14,49 -24,101 -37,147 -6,23 -13,43 -20,62 -8,18 -16,32 -25,43 l 0,0 0,0 c -2,2 -4,5 -8,8 -3,3 -7,7 -12,9 -9,6 -21,10 -35,11 -38,2 -75,3 -113,5 v 20 20 c 38,2 75,3 113,5 23,1 43,-4 60,-12 8,-4 16,-8 22,-13 7,-5 12,-10 17,-15 l 0,0 c 15,-16 26,-37 36,-58 9,-21 17,-45 24,-69 13,-48 24,-100 38,-146 7,-22 14,-43 23,-61 8,-18 17,-32 28,-43 5,-5 10,-9 15,-13 5,-3 11,-6 17,-7 6,-2 13,-3 21,-3 8,0 17,1 27,3 l 1,0 -1,0 c 8,2 15,5 22,10 7,4 13,10 19,18 6,7 11,17 14,30 4,13 6,29 6,49 0,5 -1,14 -3,25 -2,10 -6,21 -12,30 -3,5 -6,8 -10,12 -3,3 -8,6 -13,8 -5,2 -12,4 -20,4 -9,1 -19,1 -32,-1 -14,-3 -27,-8 -38,-14 -11,-6 -22,-14 -31,-24 -19,-19 -34,-45 -46,-75 l 0,0 c -6,-15 -11,-32 -13,-51 -3,-19 -5,-39 -5,-61 -1,-44 3,-91 6,-139 3,-47 5,-96 0,-140 -3,-22 -7,-45 -14,-65 -7,-21 -17,-41 -32,-59 l 0,0 0,0 C 523,80.9 504,67.7 484,59.1 464,50.6 444,46.7 426,45.8 c -18,-1 -36,0.9 -51,4.4 -7,1.8 -14,4 -21,6.6 -6,2.5 -13,5.8 -19,9.9 l 0,0 0,0 c -12,8.5 -23,18.1 -32,28.6 -9,10.7 -17,21.7 -23,32.7 -13,22 -22,47 -30,69 l 0,1 0,-1 c -5,18 -10,37 -14,57 -3,20 -6,41 -9,63 -4,44 -7,90 -8,132 -2,84 0,152 1,152 l 76,-1 c 0,0 1,-65 -3,-147 -2,-41 -5,-87 -10,-131 -2,-21 -5,-43 -8,-63 -3,-21 -7,-40 -12,-58 l 0,0 0,0 c -4,-12 -8,-26 -14,-40 -6,-14 -13,-28 -21,-41 -4,-6 -9,-13 -14,-20 C 209,94 203,87.4 196,81.5 189,75.5 181,70 172,66 162,61.9 151,59.7 140,60 Z"
       id="path3"
       sodipodi:nodetypes="csscsssssssscc"
       inkscape:label="_base-stroke"
       inkscape:path-effect="#path-effect3"
       inkscape:original-d="m 140,90 c 27,0 45,24 59,47 14,23 23,50 29,73 33,131 30,390 30,390 0,0 -10,-270 30,-390 15,-44 32,-84 70,-110 23,-15.7 103,-29.9 150,26 88,105 -7,356 52,504 27,67 73,122 145,135 126,21 133,-90 133,-115 0,-91 -46,-130 -90,-139 -199,-44 -163,301 -258,410 -13,15 -40,34 -77,34 H 300"
       sodipodi:insensitive="true" /><path
       style="display:none;fill:#28abe5;fill-opacity:0.2;fill-rule:nonzero;stroke:none;stroke-width:80;stroke-opacity:0.2"
       d="m 140,120 c 20,2 42,61 44,66 23,63 32,204 34,270 3,80 2,144 2,144 h 76 c 0,0 -2,-68 1,-149 3,-103 16,-260 74,-310 28,-24 84,-20 112,20 12,20 19,45 22,72 11,98 -16,221 0,343 5,33 48,240 245,229 41,-5 124,-31 124,-155 0,-80 -41,-176 -161,-176 -69,4 -109,44 -138,105 -37,82 -41,168 -82,280 -16,37 -37,68 -80,71 -38,2 -75,3 -113,5 v 45 h 113 c 88,0 117,-61 135,-98 38,-88 49,-205 85,-276 16,-36 40,-65 81,-66 58,0 88,38 88,110 0,81 -59,83 -90,78 C 584,701 579,531 579,503 577,415 595,313 585,224 572,129 531,52.8 426,45.8 376,43.3 338,57.7 303,95.3 277,127 265,155 250,197 c 0,-14 -31,118 -31,252 1,84 1,151 1,151 h 76 c 0,0 1,-65 -3,-147 C 281,199 249,149 214,100 197,79.4 173,59.1 140,60 Z"
       id="path4"
       sodipodi:nodetypes="sssccsssssssssssccssssssssssssccsscs"
       inkscape:label="base-path"
       sodipodi:insensitive="true" /></g><g
     inkscape:groupmode="layer"
     id="layer3"
     inkscape:label="ref"
     inkscape:highlight-color="#ff5338"
     style="display:inline;fill:#505050;fill-opacity:0.2"><path
       id="path8"
       style="baseline-shift:baseline;display:none;overflow:visible;opacity:1;vector-effect:none;fill:#505050;fill-opacity:0.2;enable-background:accumulate;stop-color:#000000;stop-opacity:1"
       inkscape:label="aries-v1"
       d="m 316,63 c -66,3.6 -119,57 -127,120 -6,47 -4,117 40,187 h 61 c -50,-90 -39,-133 -30,-170 10,-38 33,-57 60,-60 27,-3 51,5 69,24 18,19 33,50 42,85 29,182 27,367 34,551 h 70 c 7,-184 5,-369 34,-551 9,-35 24,-66 42,-85 18,-19 42,-27 69,-24 27,3 50,22 60,60 9,37 20,80 -30,170 h 61 C 815,300 817,230 811,183 803,120 749,67.4 684,63.7 620,60 584,85.6 564,105 535,134 517,175 500,240 483,175 465,134 436,105 418,88 380,59.6 316,63 Z"
       sodipodi:nodetypes="ssccssssccssssccssscss"
       sodipodi:insensitive="true" /><path
       id="path24"
       style="baseline-shift:baseline;display:none;overflow:visible;vector-effect:none;fill:#505050;fill-opacity:0.2;stroke:none;stroke-width:1.00433;stroke-opacity:1;enable-background:accumulate;stop-color:#000000"
       d="m 464,63 c -154,7 -275,110 -291,206 -3,21 -7,101 67,153 18,13 38,21 59,25 63,14 132,-9 173,-65 46,-65 33,-160 -41,-202 -17,-10 -21,-10 -46,-17 48,-24 97,-34 162,-27 116,20 173,54 223,134 h 60 C 777,180 713,112 575,75 537,65 499,62 464,63 Z M 341,218 c 4,0 9,0 14,1 47,8 77,49 68,93 -8,45 -52,73 -99,65 -47,-8 -77,-49 -69,-94 3,-10 20,-66 86,-65 z m 312,201 c -48,4 -94,27 -125,69 -46,65 -33,160 41,202 17,10 21,10 46,17 -48,24 -97,34 -162,27 C 337,714 280,680 230,600 h -60 c 53,90 117,158 255,195 204,53 382,-76 402,-194 3,-21 7,-101 -67,-153 -18,-13 -38,-21 -59,-25 -16,-3 -32,-5 -48,-4 z m 6,73 c 5,0 11,0 17,1 47,8 77,49 69,94 -3,11 -22,74 -100,64 -47,-8 -77,-49 -68,-93 7,-39 42,-66 82,-66 z"
       inkscape:label="cancer-v1"
       sodipodi:insensitive="true" /><path
       id="path23"
       style="display:none;fill:#505050;fill-opacity:0.2;fill-rule:nonzero;stroke:none;stroke-width:79.968;stroke-opacity:0.3"
       inkscape:label="leo-v1"
       d="M 594,55.6 C 514,50.7 435,88.1 383,149 c -67,74 -93,197 -92,275 0,46 11,71 14,84 -96,-21 -183,52 -185,140 -7,89 77,172 166,162 92,-4 170,-102 144,-192 -17,-44 -42,-84 -49,-131 -24,-111 0,-243 95,-315 57,-48 161,-53 209,1 48,54 47,126 45,191 -14,140 -87,263 -132,393 -23,60 -23,138 32,182 63,56 175,38 215,-38 16,-30 21,-71 15,-101 h -52 c 5,42 -11,91 -55,105 C 704,923 642,880 653,825 670,737 719,659 749,574 792,463 825,340 791,223 777,163 745,102 685,78.6 656,66.3 625,57 594,55.6 Z M 279,564 c 26,-1 38,9 49,16 5,11 13,29 21,43 9,12 8,26 9,36 -3,58 -67,97 -124,69 -57,-28 -62,-111 -12,-146 16,-12 37,-17 57,-18 z"
       sodipodi:nodetypes="ssscssssszssssccsssssscccczsc"
       sodipodi:insensitive="true" /></g><metadata
     id="metadata1"><rdf:RDF><cc:Work
         rdf:about=""><cc:license
           rdf:resource="http://scripts.sil.org/OFL" /></cc:Work><cc:License
         rdf:about="http://scripts.sil.org/OFL"><cc:permits
           rdf:resource="http://scripts.sil.org/pub/OFL/Reproduction" /><cc:permits
           rdf:resource="http://scripts.sil.org/pub/OFL/Distribution" /><cc:permits
           rdf:resource="http://scripts.sil.org/pub/OFL/Embedding" /><cc:permits
           rdf:resource="http://scripts.sil.org/pub/OFL/DerivativeWorks" /><cc:requires
           rdf:resource="http://scripts.sil.org/pub/OFL/Notice" /><cc:requires
           rdf:resource="http://scripts.sil.org/pub/OFL/Attribution" /><cc:requires
           rdf:resource="http://scripts.sil.org/pub/OFL/ShareAlike" /><cc:requires
           rdf:resource="http://scripts.sil.org/pub/OFL/DerivativeRenaming" /><cc:requires
           rdf:resource="http://scripts.sil.org/pub/OFL/BundlingWhenSelling" /></cc:License></rdf:RDF></metadata><image
     preserveAspectRatio="none"
     inkscape:svg-dpi="96"
     width="1000"
     height="1000"
     xlink:href="../templates/guidelines.svg"
     id="image1"
     x="0"
     y="0"
     inkscape:label="guidelines"
     sodipodi:insensitive="true"
     style="display:inline;mix-blend-mode:normal" /></svg>
