<?xml version="1.0" encoding="UTF-8" standalone="no"?>
<!-- Created with Inkscape (http://www.inkscape.org/) -->

<svg
   width="1000"
   height="1000"
   viewBox="0 0 1000 1000"
   version="1.1"
   id="svg1"
   inkscape:version="1.4.3 (0d15f75042, 2025-12-25)"
   sodipodi:docname="eye.svg"
   xml:space="preserve"
   xmlns:inkscape="http://www.inkscape.org/namespaces/inkscape"
   xmlns:sodipodi="http://sodipodi.sourceforge.net/DTD/sodipodi-0.dtd"
   xmlns:xlink="http://www.w3.org/1999/xlink"
   xmlns="http://www.w3.org/2000/svg"
   xmlns:svg="http://www.w3.org/2000/svg"
   xmlns:rdf="http://www.w3.org/1999/02/22-rdf-syntax-ns#"
   xmlns:cc="http://creativecommons.org/ns#"><sodipodi:namedview
     id="namedview1"
     pagecolor="#ffffff"
     bordercolor="#999999"
     borderopacity="1"
     inkscape:showpageshadow="2"
     inkscape:pageopacity="0"
     inkscape:pagecheckerboard="0"
     inkscape:deskcolor="#d1d1d1"
     inkscape:document-units="px"
     inkscape:zoom="0.354"
     inkscape:cx="528"
     inkscape:cy="601"
     inkscape:window-width="1920"
     inkscape:window-height="1080"
     inkscape:window-x="0"
     inkscape:window-y="0"
     inkscape:window-maximized="0"
     inkscape:current-layer="svg1"
     showgrid="true"><inkscape:grid
       id="grid1"
       units="px"
       originx="0"
       originy="0"
       spacingx="10"
       spacingy="10"
       empcolor="#e05050"
       empopacity="0.302"
       color="#505050"
       opacity="0.07843137"
       empspacing="10"
       enabled="true"
       visible="true" /></sodipodi:namedview><defs
     id="defs1" /><g
     inkscape:label="glyph"
     inkscape:groupmode="layer"
     id="layer1"
     style="fill:#d01620;fill-opacity:0.3"><path
       id="circle35"
       style="baseline-shift:baseline;display:inline;overflow:visible;vector-effect:none;fill:#d01620;fill-opacity:0.3;enable-background:accumulate;stop-color:#000000;stop-opacity:1;opacity:1"
       d="M 500 155 C 380 155 267 218 185 325 C 150 371 122 424 101 481 C 122 547 155 608 198 660 C 277 753 386 807 500 807 C 614 807 723 753 802 660 C 845 608 878 547 899 481 C 878 424 850 371 815 325 C 733 218 620 155 500 155 z M 500 337 C 556 337 599 380 599 436 C 599 492 556 535 500 535 C 444 535 401 492 401 436 C 401 380 444 337 500 337 z M 292 340 C 279 369 271 402 271 436 C 271 562 374 665 500 665 C 626 665 729 562 729 436 C 729 402 721 369 708 340 C 722 350 736 361 751 373 C 760 380 822 433 840 490 C 823 527 790 597 764 628 C 693 711 598 757 500 757 C 402 757 307 711 236 628 C 210 597 170 530 160 490 C 178 433 240 380 249 373 C 264 361 278 350 292 340 z "
       inkscape:label="eye-v2" /></g><g
     inkscape:groupmode="layer"
     id="layer5"
     inkscape:label="archive"
     style="display:inline"><path
       id="circle31"
       style="baseline-shift:baseline;display:none;overflow:visible;opacity:1;vector-effect:none;fill:#d01620;fill-opacity:0.3;enable-background:accumulate;stop-color:#000000;stop-opacity:1"
       d="m 500,245 c -116,0 -228,51 -309,141 -33,36 -60,78 -81,123 21,53 51,101 89,143 79,87 188,137 301,137 113,0 222,-50 301,-137 38,-42 68,-90 89,-143 C 869,464 842,422 809,386 728,296 616,245 500,245 Z m -112,90 c -53,36 -88,97 -88,165 0,110 90,200 200,200 110,0 200,-90 200,-200 0,-68 -35,-129 -88,-165 54,19 104,52 145,98 27,30 49,63 67,100 -17,31 -37,59 -60,85 -70,78 -165,121 -264,121 -99,0 -194,-43 -264,-121 -23,-26 -43,-54 -60,-85 18,-37 40,-70 67,-100 41,-46 91,-79 145,-98 z m 112,65 c 56,0 100,44 100,100 0,56 -44,100 -100,100 -56,0 -100,-44 -100,-100 0,-56 44,-100 100,-100 z"
       inkscape:label="eye-v1"
       sodipodi:insensitive="true" /></g><g
     inkscape:label="construction"
     inkscape:groupmode="layer"
     id="layer2"
     style="display:none"><circle
       style="display:inline;fill:none;fill-opacity:0.303;stroke:#2c5eaa;stroke-width:129.433;stroke-dasharray:none;stroke-opacity:0.4"
       id="path1"
       cx="500"
       cy="436"
       r="164"
       inkscape:label="circle" /><ellipse
       style="display:none;fill:none;fill-opacity:0.2;stroke:#2c5eaa;stroke-width:50.0741;stroke-dasharray:none;stroke-opacity:0.4"
       id="ellipse4"
       cx="500"
       cy="310"
       rx="400"
       ry="472"
       inkscape:label="bottom" /><ellipse
       style="display:none;fill:none;fill-opacity:0.2;stroke:#2c5eaa;stroke-width:80;stroke-dasharray:none;stroke-opacity:0.4"
       id="path3"
       cx="500"
       cy="721"
       rx="400"
       ry="526"
       inkscape:label="top" /><path
       id="path35"
       style="baseline-shift:baseline;display:inline;overflow:visible;opacity:1;vector-effect:none;fill:#2c5eaa;fill-opacity:0.4;enable-background:accumulate;stop-color:#000000;stop-opacity:1"
       d="m 500,155 c -120,0 -233,63 -315,170 -35,46 -63,99 -84,156 21,66 54,127 97,179 79,93 188,147 302,147 114,0 223,-54 302,-147 43,-52 76,-113 97,-179 C 878,424 850,371 815,325 733,218 620,155 500,155 Z m 0,95 c 92,0 161,53 251,123 9,7 71,60 89,117 -17,37 -50,107 -76,138 C 693,711 598,757 500,757 402,757 307,711 236,628 210,597 170,530 160,490 178,433 240,380 249,373 339,303 408,250 500,250 Z"
       sodipodi:nodetypes="sscssscsssscssscss"
       inkscape:label="boarder" /></g><g
     inkscape:groupmode="layer"
     id="layer3"
     inkscape:label="ref"
     inkscape:highlight-color="#ff5338"><path
       id="circle2"
       style="baseline-shift:baseline;display:none;overflow:visible;opacity:1;vector-effect:none;fill:#d01620;fill-opacity:0.303;enable-background:accumulate;stop-color:#000000;stop-opacity:1"
       d="M 500,60 C 296,60 130,226 130,430 130,634 296,800 500,800 704,800 870,634 870,430 870,226 704,60 500,60 Z m 0,80 C 661,140 790,269 790,430 790,591 661,720 500,720 339,720 210,591 210,430 210,269 339,140 500,140 Z m 0,210 a 80.4,80.4 0 0 0 -80,80 80.4,80.4 0 0 0 80,80 80.4,80.4 0 0 0 80,-80 80.4,80.4 0 0 0 -80,-80 z"
       inkscape:label="sun-v1"
       sodipodi:insensitive="true" /></g><metadata
     id="metadata1"><rdf:RDF><cc:Work
         rdf:about=""><cc:license
           rdf:resource="http://scripts.sil.org/OFL" /></cc:Work><cc:License
         rdf:about="http://scripts.sil.org/OFL"><cc:permits
           rdf:resource="http://scripts.sil.org/pub/OFL/Reproduction" /><cc:permits
           rdf:resource="http://scripts.sil.org/pub/OFL/Distribution" /><cc:permits
           rdf:resource="http://scripts.sil.org/pub/OFL/Embedding" /><cc:permits
           rdf:resource="http://scripts.sil.org/pub/OFL/DerivativeWorks" /><cc:requires
           rdf:resource="http://scripts.sil.org/pub/OFL/Notice" /><cc:requires
           rdf:resource="http://scripts.sil.org/pub/OFL/Attribution" /><cc:requires
           rdf:resource="http://scripts.sil.org/pub/OFL/ShareAlike" /><cc:requires
           rdf:resource="http://scripts.sil.org/pub/OFL/DerivativeRenaming" /><cc:requires
           rdf:resource="http://scripts.sil.org/pub/OFL/BundlingWhenSelling" /></cc:License></rdf:RDF></metadata><image
     preserveAspectRatio="none"
     inkscape:svg-dpi="96"
     width="1000"
     height="1000"
     xlink:href="../templates/guidelines.svg"
     id="image1"
     x="0"
     y="0"
     inkscape:label="guidelines"
     sodipodi:insensitive="true"
     style="display:inline;mix-blend-mode:normal" /></svg>
