<?xml version="1.0" encoding="UTF-8" standalone="no"?>
<!-- Created with Inkscape (http://www.inkscape.org/) -->

<svg
   width="1000"
   height="1000"
   viewBox="0 0 1000 1000"
   version="1.1"
   id="svg1"
   inkscape:version="1.4.3 (0d15f75042, 2025-12-25)"
   sodipodi:docname="house_8.svg"
   xml:space="preserve"
   xmlns:inkscape="http://www.inkscape.org/namespaces/inkscape"
   xmlns:sodipodi="http://sodipodi.sourceforge.net/DTD/sodipodi-0.dtd"
   xmlns:xlink="http://www.w3.org/1999/xlink"
   xmlns="http://www.w3.org/2000/svg"
   xmlns:svg="http://www.w3.org/2000/svg"
   xmlns:rdf="http://www.w3.org/1999/02/22-rdf-syntax-ns#"
   xmlns:cc="http://creativecommons.org/ns#"><sodipodi:namedview
     id="namedview1"
     pagecolor="#ffffff"
     bordercolor="#999999"
     borderopacity="1"
     inkscape:showpageshadow="2"
     inkscape:pageopacity="0"
     inkscape:pagecheckerboard="0"
     inkscape:deskcolor="#d1d1d1"
     inkscape:document-units="px"
     inkscape:zoom="0.354"
     inkscape:cx="450"
     inkscape:cy="303"
     inkscape:window-width="1078"
     inkscape:window-height="1027"
     inkscape:window-x="0"
     inkscape:window-y="0"
     inkscape:window-maximized="0"
     inkscape:current-layer="layer1"
     showgrid="true"
     showguides="true"
     inkscape:lockguides="true"><inkscape:grid
       id="grid1"
       units="px"
       originx="0"
       originy="0"
       spacingx="10"
       spacingy="10"
       empcolor="#e05050"
       empopacity="0.302"
       color="#505050"
       opacity="0.07843137"
       empspacing="10"
       enabled="true"
       visible="true" /><sodipodi:guide
       position="0,565"
       orientation="0,1"
       id="guide1"
       inkscape:locked="true"
       inkscape:label="center"
       inkscape:color="rgb(129,61,156)" /></sodipodi:namedview><defs
     id="defs1"><inkscape:path-effect
       effect="mirror_symmetry"
       start_point="500,69.2"
       end_point="500,801"
       center_point="500,435"
       id="path-effect26"
       is_visible="true"
       lpeversion="1.2"
       lpesatellites=""
       mode="free"
       discard_orig_path="false"
       fuse_paths="false"
       oposite_fuse="false"
       split_items="false"
       split_open="false"
       link_styles="false" /><inkscape:path-effect
       effect="mirror_symmetry"
       start_point="500,69.2"
       end_point="500,801"
       center_point="500,435"
       id="path-effect9"
       is_visible="true"
       lpeversion="1.2"
       lpesatellites=""
       mode="free"
       discard_orig_path="false"
       fuse_paths="false"
       oposite_fuse="false"
       split_items="false"
       split_open="false"
       link_styles="false" /><inkscape:path-effect
       effect="tiling"
       id="path-effect27"
       is_visible="true"
       lpeversion="1.3.1"
       unit="px"
       seed="1;1"
       lpesatellites=""
       num_rows="1"
       num_cols="1"
       gapx="0"
       gapy="0"
       offset="0"
       offset_type="false"
       scale="0"
       rotate="0"
       mirrorrowsx="false"
       mirrorrowsy="false"
       mirrorcolsx="false"
       mirrorcolsy="false"
       mirrortrans="false"
       shrink_interp="false"
       split_items="false"
       link_styles="false"
       interpolate_scalex="false"
       interpolate_scaley="true"
       interpolate_rotatex="false"
       interpolate_rotatey="true"
       random_scale="false"
       random_rotate="false"
       random_gap_y="false"
       random_gap_x="false"
       transformorigin="" /><inkscape:path-effect
       effect="powerstroke"
       message=""
       id="path-effect24"
       is_visible="true"
       lpeversion="1.3"
       scale_width="1"
       interpolator_type="SpiroInterpolator"
       interpolator_beta="0.2"
       start_linecap_type="zerowidth"
       end_linecap_type="zerowidth"
       offset_points="8.57e-17,30.6 | 3.5,40 | 7,30.9"
       linejoin_type="miter"
       miter_limit="4"
       not_jump="false"
       sort_points="true" /><inkscape:path-effect
       effect="tiling"
       id="path-effect19"
       is_visible="true"
       lpeversion="1.3.1"
       unit="px"
       seed="1;1"
       lpesatellites=""
       num_rows="2"
       num_cols="1"
       gapx="0"
       gapy="0"
       offset="0"
       offset_type="false"
       scale="0"
       rotate="0"
       mirrorrowsx="false"
       mirrorrowsy="false"
       mirrorcolsx="false"
       mirrorcolsy="false"
       mirrortrans="false"
       shrink_interp="false"
       split_items="false"
       link_styles="false"
       interpolate_scalex="false"
       interpolate_scaley="true"
       interpolate_rotatex="false"
       interpolate_rotatey="true"
       random_scale="false"
       random_rotate="false"
       random_gap_y="false"
       random_gap_x="false"
       transformorigin="" /><inkscape:path-effect
       effect="tiling"
       id="path-effect8"
       is_visible="true"
       lpeversion="1.3.1"
       unit="px"
       seed="1;1"
       lpesatellites=""
       num_rows="1"
       num_cols="1"
       gapx="0"
       gapy="0"
       offset="0"
       offset_type="false"
       scale="0"
       rotate="0"
       mirrorrowsx="false"
       mirrorrowsy="false"
       mirrorcolsx="false"
       mirrorcolsy="false"
       mirrortrans="false"
       shrink_interp="false"
       split_items="false"
       link_styles="false"
       interpolate_scalex="false"
       interpolate_scaley="true"
       interpolate_rotatex="false"
       interpolate_rotatey="true"
       random_scale="false"
       random_rotate="false"
       random_gap_y="false"
       random_gap_x="false"
       transformorigin="" /><inkscape:path-effect
       effect="powerstroke"
       message=""
       id="path-effect7"
       is_visible="true"
       lpeversion="1.3"
       scale_width="1"
       interpolator_type="SpiroInterpolator"
       interpolator_beta="0.2"
       start_linecap_type="zerowidth"
       end_linecap_type="zerowidth"
       offset_points="0,30.6 | 2,40 | 4,30.9"
       linejoin_type="miter"
       miter_limit="4"
       not_jump="false"
       sort_points="true" /><inkscape:path-effect
       effect="powerstroke"
       message=""
       id="path-effect5"
       is_visible="true"
       lpeversion="1.3"
       scale_width="1"
       interpolator_type="SpiroInterpolator"
       interpolator_beta="0.2"
       start_linecap_type="zerowidth"
       end_linecap_type="zerowidth"
       offset_points="0,30 | 6.5,40 | 13,20"
       linejoin_type="miter"
       miter_limit="4"
       not_jump="false"
       sort_points="true" /><inkscape:path-effect
       effect="powerstroke"
       message=""
       id="path-effect3"
       is_visible="true"
       lpeversion="1.3"
       scale_width="1"
       interpolator_type="SpiroInterpolator"
       interpolator_beta="0.2"
       start_linecap_type="zerowidth"
       end_linecap_type="zerowidth"
       offset_points="0,30 | 6.5,40 | 13,20"
       linejoin_type="miter"
       miter_limit="4"
       not_jump="false"
       sort_points="true" /><inkscape:path-effect
       effect="powerstroke"
       message=""
       id="path-effect23"
       is_visible="true"
       lpeversion="1.3"
       scale_width="1"
       interpolator_type="SpiroInterpolator"
       interpolator_beta="0.2"
       start_linecap_type="zerowidth"
       end_linecap_type="zerowidth"
       offset_points="0,26.6 | 5.5,40 | 11.9,27.7"
       linejoin_type="round"
       miter_limit="4"
       not_jump="false"
       sort_points="true" /><inkscape:path-effect
       effect="powerstroke"
       message=""
       id="path-effect21"
       is_visible="true"
       lpeversion="1.3"
       scale_width="1"
       interpolator_type="SpiroInterpolator"
       interpolator_beta="0.2"
       start_linecap_type="zerowidth"
       end_linecap_type="zerowidth"
       offset_points="0,26.6 | 5.5,40 | 11.9,27.7"
       linejoin_type="round"
       miter_limit="4"
       not_jump="false"
       sort_points="true" /><inkscape:path-effect
       effect="mirror_symmetry"
       start_point="500,419"
       end_point="500,807"
       center_point="500,613"
       id="path-effect33"
       is_visible="true"
       lpeversion="1.2"
       lpesatellites=""
       mode="free"
       discard_orig_path="true"
       fuse_paths="false"
       oposite_fuse="false"
       split_items="false"
       split_open="false"
       link_styles="false" /><inkscape:path-effect
       effect="mirror_symmetry"
       start_point="170,435"
       end_point="828,435"
       center_point="499,435"
       id="path-effect31"
       is_visible="true"
       lpeversion="1.2"
       lpesatellites="#path30"
       mode="free"
       discard_orig_path="false"
       fuse_paths="false"
       oposite_fuse="false"
       split_items="true"
       split_open="false"
       link_styles="false" /><inkscape:path-effect
       effect="mirror_symmetry"
       start_point="500,419"
       end_point="500,807"
       center_point="500,613"
       id="path-effect25"
       is_visible="true"
       lpeversion="1.2"
       lpesatellites=""
       mode="free"
       discard_orig_path="true"
       fuse_paths="false"
       oposite_fuse="false"
       split_items="false"
       split_open="false"
       link_styles="false" /><inkscape:path-effect
       effect="mirror_symmetry"
       start_point="500,419"
       end_point="500,807"
       center_point="500,613"
       id="path-effect20"
       is_visible="true"
       lpeversion="1.2"
       lpesatellites=""
       mode="free"
       discard_orig_path="true"
       fuse_paths="false"
       oposite_fuse="false"
       split_items="false"
       split_open="false"
       link_styles="false" /><inkscape:path-effect
       effect="mirror_symmetry"
       start_point="170,435"
       end_point="828,435"
       center_point="499,435"
       id="path-effect18"
       is_visible="true"
       lpeversion="1.2"
       lpesatellites="#path9"
       mode="free"
       discard_orig_path="false"
       fuse_paths="false"
       oposite_fuse="false"
       split_items="true"
       split_open="false"
       link_styles="false" /><inkscape:path-effect
       effect="mirror_symmetry"
       start_point="500,419"
       end_point="500,807"
       center_point="500,613"
       id="path-effect16"
       is_visible="true"
       lpeversion="1.2"
       lpesatellites=""
       mode="free"
       discard_orig_path="true"
       fuse_paths="false"
       oposite_fuse="false"
       split_items="false"
       split_open="false"
       link_styles="false" /><inkscape:path-effect
       effect="mirror_symmetry"
       start_point="170,435"
       end_point="828,435"
       center_point="499,435"
       id="path-effect15"
       is_visible="true"
       lpeversion="1.2"
       lpesatellites="#path15"
       mode="free"
       discard_orig_path="false"
       fuse_paths="false"
       oposite_fuse="false"
       split_items="true"
       split_open="false"
       link_styles="false" /><inkscape:path-effect
       effect="mirror_symmetry"
       start_point="203,604"
       end_point="808,604"
       center_point="506,604"
       id="path-effect14"
       is_visible="true"
       lpeversion="1.2"
       lpesatellites=""
       mode="free"
       discard_orig_path="false"
       fuse_paths="false"
       oposite_fuse="false"
       split_items="false"
       split_open="false"
       link_styles="false" /><inkscape:path-effect
       effect="mirror_symmetry"
       start_point="505,397"
       end_point="505,810"
       center_point="505,604"
       id="path-effect13"
       is_visible="true"
       lpeversion="1.2"
       lpesatellites=""
       mode="free"
       discard_orig_path="true"
       fuse_paths="false"
       oposite_fuse="false"
       split_items="false"
       split_open="false"
       link_styles="false" /><inkscape:path-effect
       effect="mirror_symmetry"
       start_point="808,59.6"
       end_point="808,810"
       center_point="808,435"
       id="path-effect12"
       is_visible="true"
       lpeversion="1.2"
       lpesatellites=""
       mode="free"
       discard_orig_path="false"
       fuse_paths="false"
       oposite_fuse="false"
       split_items="false"
       split_open="false"
       link_styles="false" /><inkscape:path-effect
       effect="mirror_symmetry"
       start_point="185,435"
       end_point="808,435"
       center_point="496,435"
       id="path-effect11"
       is_visible="true"
       lpeversion="1.2"
       lpesatellites=""
       mode="free"
       discard_orig_path="false"
       fuse_paths="false"
       oposite_fuse="false"
       split_items="true"
       split_open="false"
       link_styles="false" /><inkscape:path-effect
       effect="mirror_symmetry"
       start_point="0,440"
       end_point="1000,440"
       center_point="500,440"
       id="path-effect17"
       is_visible="true"
       lpeversion="1.2"
       lpesatellites=""
       mode="free"
       discard_orig_path="false"
       fuse_paths="false"
       oposite_fuse="false"
       split_items="false"
       split_open="false"
       link_styles="false" /><inkscape:path-effect
       effect="mirror_symmetry"
       start_point="0,435"
       end_point="1000,435"
       center_point="500,435"
       id="path-effect10"
       is_visible="true"
       lpeversion="1.2"
       lpesatellites=""
       mode="free"
       discard_orig_path="false"
       fuse_paths="false"
       oposite_fuse="false"
       split_items="false"
       split_open="false"
       link_styles="false" /><inkscape:path-effect
       effect="mirror_symmetry"
       start_point="0,440"
       end_point="1000,440"
       center_point="500,440"
       id="path-effect6"
       is_visible="true"
       lpeversion="1.2"
       lpesatellites=""
       mode="free"
       discard_orig_path="false"
       fuse_paths="false"
       oposite_fuse="false"
       split_items="false"
       split_open="false"
       link_styles="false" /></defs><g
     inkscape:label="glyph"
     inkscape:groupmode="layer"
     id="layer1"
     style="display:inline;fill:#d43f50;fill-opacity:0.3"><path
       id="path5"
       style="display:inline;fill:#d43f50;fill-opacity:0.3;stroke:none;stroke-opacity:1;baseline-shift:baseline;overflow:visible;opacity:1;vector-effect:none;enable-background:accumulate;stop-color:#000000;stop-opacity:1"
       inkscape:label="h8-v1"
       d="M 501 60.5 C 464 60.5 433 67.4 409 81.1 C 381 95.7 360 115 345 139 C 330 164 323 192 323 224 C 323 257 332 285 349 310 C 370 334 395 350 424 357 L 424 360 C 389 366 360 383 339 412 C 317 439 306 473 306 512 C 306 546 314 577 331 606 C 346 633 369 654 400 669 C 427 684 461 691 501 691 C 537 691 571 684 604 669 C 631 654 653 633 670 606 C 686 577 694 546 694 512 C 694 473 683 439 662 412 C 639 383 610 366 573 360 L 573 357 C 606 350 631 334 648 310 C 667 285 676 257 676 224 C 676 192 668 164 653 139 C 639 115 619 95.7 594 81.1 C 565 67.4 534 60.5 501 60.5 z M 501 142 C 530 142 556 152 573 170 C 591 189 597 203 597 233 C 597 262 590 280 575 297 C 557 317 530 325 501 325 C 468 325 442 317 424 297 C 409 281 403 262 403 233 C 403 203 410 190 426 170 C 441 152 468 142 501 142 z M 501 400 C 534 400 553 411 578 432 C 600 452 611 475 611 510 C 611 544 600 560 578 580 C 557 600 534 611 501 611 C 463 611 440 599 421 580 C 400 559 390 545 390 510 C 390 475 398 452 419 432 C 440 411 463 400 501 400 z M 130 800 L 130 980 L 210 980 L 210 880 L 790 880 L 790 980 L 870 980 L 870 800 L 130 800 z " /></g><g
     inkscape:groupmode="layer"
     id="layer4"
     inkscape:label="archive"
     style="display:inline" /><g
     inkscape:label="construction"
     inkscape:groupmode="layer"
     id="layer2"
     style="display:none;fill:none;fill-opacity:0.3;stroke:#00a2ff;stroke-opacity:0.3"><path
       d="M 500,811 C 433,811 379,792 340,753 300,714 280,661 280,596 V 276 c 0,-65 20,-117 60,-156 39,-39.7 93,-59.5 160,-59.5 67,0 121,19.8 161,59.5 39,39 59,91 59,156 v 320 c 0,43 -9,81 -27,114 -18,32 -43,57 -76,75 -33,17 -72,26 -117,26 z m 0,-77 c 40,0 72,-13 97,-38 24,-26 36,-59 36,-100 V 276 c 0,-41 -12,-74 -36,-99 -25,-26 -57,-39 -97,-39 -40,0 -72,13 -96,39 -25,25 -37,58 -37,99 v 320 c 0,41 12,74 37,100 24,25 56,38 96,38 z"
       id="path1-4-8"
       inkscape:label="_jbm-0"
       style="display:none;fill:#505050;fill-opacity:0.2;stroke:none"
       sodipodi:nodetypes="sssssssssssssssssssssss"
       sodipodi:insensitive="true" /><path
       d="m 500,811 q -69,0 -122,-27 -53,-27 -82,-75 -30,-49 -30,-112 0,-69 40,-119 39,-50 105,-61 v -3 q -57,-13 -91,-57 -34,-45 -34,-103 0,-57 27,-100 27,-44 76,-69 48,-24.5 111,-24.5 64,0 112,24.5 48,25 75,69 27,43 27,100 0,58 -34,103 -34,44 -91,57 v 3 q 66,11 106,61 39,50 39,119 0,63 -29,112 -30,48 -82,75 -53,27 -123,27 z m 0,-432 q 56,0 90,-33 34,-33 34,-86 0,-53 -34,-86 -34,-33 -90,-33 -55,0 -89,33 -35,33 -35,86 0,53 35,86 34,33 89,33 z m 0,351 q 64,0 104,-37 40,-38 40,-98 0,-61 -40,-98 -40,-38 -104,-38 -64,0 -104,38 -40,37 -40,98 0,60 40,98 40,37 104,37 z"
       id="path1-7-0"
       inkscape:label="_jbm-8"
       style="display:none;fill:#505050;fill-opacity:0.2;stroke:none;stroke-opacity:0.3"
       sodipodi:insensitive="true" /><path
       style="display:none;fill:none;fill-opacity:0.2;stroke:#16addf;stroke-width:80;stroke-dasharray:none;stroke-opacity:0.2"
       d="M 170,980 V 840 h 660 v 140"
       id="path12"
       sodipodi:nodetypes="cccc"
       inkscape:label="_house"
       sodipodi:insensitive="true" /><path
       style="baseline-shift:baseline;display:inline;overflow:visible;opacity:1;vector-effect:none;fill:#16addf;fill-opacity:0.2;stroke:none;stroke-opacity:1;enable-background:accumulate;stop-color:#000000;stop-opacity:1"
       d="m 130,800 v 180 h 80 V 880 h 580 v 100 h 80 V 800 Z"
       id="path17"
       inkscape:label="house"
       sodipodi:insensitive="true" /><path
       d="M 500,691 C 444,691 398,672 365,633 331,594 315,541 315,476 V 276 c 0,-65 16,-117 50,-156 33,-39.7 79,-59.5 135,-59.5 56,0 102,19.8 136,59.5 32,39 50,91 50,156 v 200 c 0,43 -8,81 -24,114 -14,32 -36,57 -63,75 -28,17 -62,26 -99,26 z m 0,-77 c 33,0 61,-13 81,-38 21,-26 24,-59 24,-100 V 276 c 0,-41 -3,-74 -24,-99 -20,-26 -48,-39 -81,-39 -34,0 -61,13 -81,39 -21,25 -24,58 -24,99 v 200 c 0,41 3,74 24,100 20,25 47,38 81,38 z"
       id="path4"
       inkscape:label="_0"
       style="display:none;fill:#16addf;fill-opacity:0.2;stroke:none;stroke-width:1.00006;stroke-opacity:0.3"
       sodipodi:nodetypes="sssssssssssssssssssssss"
       sodipodi:insensitive="true" /><path
       d="m 501,691 c -40,0 -74,-7 -101,-22 -31,-15 -54,-36 -69,-63 -17,-29 -25,-60 -25,-94 0,-39 11,-73 33,-100 21,-29 50,-46 85,-52 v -3 c -29,-7 -54,-23 -75,-47 -17,-25 -26,-53 -26,-86 0,-32 7,-60 22,-85 15,-24 36,-43.3 64,-57.9 24,-13.7 55,-20.6 92,-20.6 33,0 64,6.9 93,20.6 25,14.6 45,33.9 59,57.9 15,25 23,53 23,85 0,33 -9,61 -28,86 -17,24 -42,40 -75,47 v 3 c 37,6 66,23 89,52 21,27 32,61 32,100 0,34 -8,65 -24,94 -17,27 -39,48 -66,63 -33,15 -67,22 -103,22 z m 0,-366 c 29,0 56,-8 74,-28 15,-17 22,-35 22,-64 0,-30 -6,-44 -24,-63 -17,-18 -43,-28 -72,-28 -33,0 -60,10 -75,28 -16,20 -23,33 -23,63 0,29 6,48 21,64 18,20 44,28 77,28 z m 0,286 c 33,0 56,-11 77,-31 22,-20 33,-36 33,-70 0,-35 -11,-58 -33,-78 -25,-21 -44,-32 -77,-32 -38,0 -61,11 -82,32 -21,20 -29,43 -29,78 0,35 10,49 31,70 19,19 42,31 80,31 z"
       id="path2"
       inkscape:label="8"
       style="display:inline;fill:#17addf;fill-opacity:0.2;stroke:none;stroke-width:1.00333;stroke-opacity:0.3"
       sodipodi:nodetypes="sssssssssssssssssssssssssssssssssssssssss" /></g><g
     inkscape:groupmode="layer"
     id="layer3"
     inkscape:label="ref"
     inkscape:highlight-color="#ff5338"
     style="display:inline;fill:#505050;fill-opacity:0.2"><path
       id="path8"
       style="baseline-shift:baseline;display:none;overflow:visible;opacity:1;vector-effect:none;fill:#505050;fill-opacity:0.2;enable-background:accumulate;stop-color:#000000;stop-opacity:1"
       inkscape:label="aries-v1"
       d="m 316,63 c -66,3.6 -119,57 -127,120 -6,47 -4,117 40,187 h 61 c -50,-90 -39,-133 -30,-170 10,-38 33,-57 60,-60 27,-3 51,5 69,24 18,19 33,50 42,85 29,182 27,367 34,551 h 70 c 7,-184 5,-369 34,-551 9,-35 24,-66 42,-85 18,-19 42,-27 69,-24 27,3 50,22 60,60 9,37 20,80 -30,170 h 61 C 815,300 817,230 811,183 803,120 749,67.4 684,63.7 620,60 584,85.6 564,105 535,134 517,175 500,240 483,175 465,134 436,105 418,88 380,59.6 316,63 Z"
       sodipodi:nodetypes="ssccssssccssssccssscss"
       sodipodi:insensitive="true" /><path
       id="path23"
       style="display:none;fill:#505050;fill-opacity:0.2;fill-rule:nonzero;stroke:none;stroke-width:79.968;stroke-opacity:0.3"
       inkscape:label="leo-v1"
       d="M 594,55.6 C 514,50.7 435,88.1 383,149 c -67,74 -93,197 -92,275 0,46 11,71 14,84 -96,-21 -183,52 -185,140 -7,89 77,172 166,162 92,-4 170,-102 144,-192 -17,-44 -42,-84 -49,-131 -24,-111 0,-243 95,-315 57,-48 161,-53 209,1 48,54 47,126 45,191 -14,140 -87,263 -132,393 -23,60 -23,138 32,182 63,56 175,38 215,-38 16,-30 21,-71 15,-101 h -52 c 5,42 -11,91 -55,105 C 704,923 642,880 653,825 670,737 719,659 749,574 792,463 825,340 791,223 777,163 745,102 685,78.6 656,66.3 625,57 594,55.6 Z M 279,564 c 26,-1 38,9 49,16 5,11 13,29 21,43 9,12 8,26 9,36 -3,58 -67,97 -124,69 -57,-28 -62,-111 -12,-146 16,-12 37,-17 57,-18 z"
       sodipodi:nodetypes="ssscssssszssssccsssssscccczsc"
       sodipodi:insensitive="true" /><path
       id="path8-3"
       style="baseline-shift:baseline;display:none;overflow:visible;vector-effect:none;fill:#505050;fill-opacity:0.2;stroke:none;enable-background:accumulate;stop-color:#000000"
       inkscape:label="scorpio-v2"
       d="M 388,57 C 363,57 336,69.4 320,89.7 295,120 276,154 260,190 c 0,0 -15,-80 -33,-120.3 h -57 c 0,0 30,60.3 30,180.3 v 550 h 80 V 260 c 0,-60 62,-130 90,-130 18,0 23,23 27,40 3,17 3,46 3,75 v 555 h 80 V 260 c 0,-60 61,-130 86,-130 14,0 22,23 27,40 5,17 7,46 7,75 v 355 c 0,96 8,174 149,292 -107,-4 -191,11 -191,11 v 53 c 135,-6 218,0 332,24 C 863,875 848,764 864,656 h -53 c 0,0 -25,79 -16,195 C 731,795 680,745 680,627 V 246 C 680,169 652,57 580,57 555,57 532,71.4 516,89.7 490,120 469,161 469,161 459,116 428,57 388,57 Z"
       sodipodi:insensitive="true" /><path
       id="path18"
       style="display:none;fill:#505050;fill-opacity:0.2;stroke:none;stroke-width:1.00006;stroke-opacity:0.3"
       inkscape:label="h10-v5"
       d="m 685,60.5 c -56,0 -102,19.8 -135,59.5 -34,39 -50,91 -50,156 v 200 c 0,65 16,118 50,157 33,39 79,58 135,58 37,0 71,-9 99,-26 27,-18 49,-43 63,-75 16,-33 24,-71 24,-114 V 276 C 871,211 853,159 821,120 787,80.3 741,60.5 685,60.5 Z m -498,10 -57,42.5 v 97 l 90,-67 v 456 h -90 v 82 H 380 V 599 H 300 V 70.5 Z M 685,138 c 33,0 61,13 81,39 21,25 24,58 24,99 v 200 c 0,41 -3,74 -24,100 -20,25 -48,38 -81,38 -34,0 -61,-13 -81,-38 -21,-26 -24,-59 -24,-100 V 276 c 0,-41 3,-74 24,-99 20,-26 47,-39 81,-39 z M 130,800 v 180 h 80 V 880 h 580 v 100 h 80 V 800 Z"
       sodipodi:insensitive="true" /><g
       id="glyph-4"
       transform="translate(205)"
       fill="#000000"
       fill-opacity="0.2"
       inkscape:label="jbm-0"
       sodipodi:insensitive="true"
       style="display:none;fill:#505050;fill-opacity:0.2"><path
         d="M 300,810 Q 199,810 140,752 80,693 80,595 V 275 q 0,-98 60,-156 59,-59 160,-59 101,0 161,59 59,58 59,156 v 320 q 0,65 -27,114 -27,48 -76,75 -50,26 -117,26 z m 0,-77 q 60,0 97,-38 36,-39 36,-100 V 275 q 0,-61 -36,-99 -37,-39 -97,-39 -60,0 -96,39 -37,38 -37,99 v 320 q 0,61 37,100 36,38 96,38 z m 0,-243 q -27,0 -43,-15 -17,-15 -17,-43 0,-27 17,-41 16,-15 43,-15 27,0 44,15 16,14 16,41 0,28 -16,43 -17,15 -44,15 z"
         id="path1-4"
         inkscape:label="_jbm-0"
         style="fill:#505050;fill-opacity:0.2" /></g><g
       id="glyph-2"
       transform="translate(205)"
       fill="#000000"
       fill-opacity="0.2"
       inkscape:label="jbm-8"
       sodipodi:insensitive="true"
       style="display:none"><path
         d="M 300,810 Q 231,810 178,783 125,756 95.5,708 66,659 66,596 q 0,-69 40,-119 39,-50 105,-61 v -3 Q 154,400 120,356 86,311 86,253 86,196 113,153 140,109 189,84.5 237,60 300,60 q 64,0 112,24.5 48,24.5 75,68.5 27,43 27,100 0,58 -34,103 -34,44 -91,57 v 3 q 66,11 106,61 39,50 39,119 0,63 -29,112 -30,48 -82,75 -53,27 -123,27 z m 0,-432 q 56,0 90,-33 34,-33 34,-86 0,-53 -34,-86 -34,-33 -90,-33 -55,0 -89,33 -35,33 -35,86 0,53 35,86 34,33 89,33 z m 0,351 q 64,0 104,-37 40,-38 40,-98 0,-61 -40,-98 -40,-38 -104,-38 -64,0 -104,38 -40,37 -40,98 0,60 40,98 40,37 104,37 z"
         id="path1-7"
         inkscape:label="_jbm-8" /></g></g><metadata
     id="metadata1"><rdf:RDF><cc:Work
         rdf:about=""><cc:license
           rdf:resource="http://scripts.sil.org/OFL" /></cc:Work><cc:License
         rdf:about="http://scripts.sil.org/OFL"><cc:permits
           rdf:resource="http://scripts.sil.org/pub/OFL/Reproduction" /><cc:permits
           rdf:resource="http://scripts.sil.org/pub/OFL/Distribution" /><cc:permits
           rdf:resource="http://scripts.sil.org/pub/OFL/Embedding" /><cc:permits
           rdf:resource="http://scripts.sil.org/pub/OFL/DerivativeWorks" /><cc:requires
           rdf:resource="http://scripts.sil.org/pub/OFL/Notice" /><cc:requires
           rdf:resource="http://scripts.sil.org/pub/OFL/Attribution" /><cc:requires
           rdf:resource="http://scripts.sil.org/pub/OFL/ShareAlike" /><cc:requires
           rdf:resource="http://scripts.sil.org/pub/OFL/DerivativeRenaming" /><cc:requires
           rdf:resource="http://scripts.sil.org/pub/OFL/BundlingWhenSelling" /></cc:License></rdf:RDF></metadata><image
     preserveAspectRatio="none"
     inkscape:svg-dpi="96"
     width="1000"
     height="1000"
     xlink:href="../templates/guidelines.svg"
     id="image1"
     x="0"
     y="0"
     inkscape:label="guidelines"
     sodipodi:insensitive="true"
     style="display:inline;mix-blend-mode:normal" /></svg>
