<?xml version="1.0" encoding="UTF-8" standalone="no"?>
<!-- Created with Inkscape (http://www.inkscape.org/) -->

<svg
   width="1000"
   height="1000"
   viewBox="0 0 1000 1000"
   version="1.1"
   id="svg1"
   inkscape:version="1.4.3 (0d15f75042, 2025-12-25)"
   sodipodi:docname="house_6.svg"
   xml:space="preserve"
   xmlns:inkscape="http://www.inkscape.org/namespaces/inkscape"
   xmlns:sodipodi="http://sodipodi.sourceforge.net/DTD/sodipodi-0.dtd"
   xmlns:xlink="http://www.w3.org/1999/xlink"
   xmlns="http://www.w3.org/2000/svg"
   xmlns:svg="http://www.w3.org/2000/svg"
   xmlns:rdf="http://www.w3.org/1999/02/22-rdf-syntax-ns#"
   xmlns:cc="http://creativecommons.org/ns#"><sodipodi:namedview
     id="namedview1"
     pagecolor="#ffffff"
     bordercolor="#999999"
     borderopacity="1"
     inkscape:showpageshadow="2"
     inkscape:pageopacity="0"
     inkscape:pagecheckerboard="0"
     inkscape:deskcolor="#d1d1d1"
     inkscape:document-units="px"
     inkscape:zoom="0.707"
     inkscape:cx="389"
     inkscape:cy="639"
     inkscape:window-width="1920"
     inkscape:window-height="1080"
     inkscape:window-x="0"
     inkscape:window-y="0"
     inkscape:window-maximized="0"
     inkscape:current-layer="svg1"
     showgrid="true"
     showguides="true"
     inkscape:lockguides="true"><inkscape:grid
       id="grid1"
       units="px"
       originx="0"
       originy="0"
       spacingx="10"
       spacingy="10"
       empcolor="#e05050"
       empopacity="0.302"
       color="#505050"
       opacity="0.07843137"
       empspacing="10"
       enabled="true"
       visible="true" /><sodipodi:guide
       position="0,565"
       orientation="0,1"
       id="guide1"
       inkscape:locked="true"
       inkscape:label="center"
       inkscape:color="rgb(129,61,156)" /></sodipodi:namedview><defs
     id="defs1"><inkscape:path-effect
       effect="mirror_symmetry"
       start_point="500,69.2"
       end_point="500,801"
       center_point="500,435"
       id="path-effect26"
       is_visible="true"
       lpeversion="1.2"
       lpesatellites=""
       mode="free"
       discard_orig_path="false"
       fuse_paths="false"
       oposite_fuse="false"
       split_items="false"
       split_open="false"
       link_styles="false" /><inkscape:path-effect
       effect="mirror_symmetry"
       start_point="500,69.2"
       end_point="500,801"
       center_point="500,435"
       id="path-effect9"
       is_visible="true"
       lpeversion="1.2"
       lpesatellites=""
       mode="free"
       discard_orig_path="false"
       fuse_paths="false"
       oposite_fuse="false"
       split_items="false"
       split_open="false"
       link_styles="false" /><inkscape:path-effect
       effect="tiling"
       id="path-effect27"
       is_visible="true"
       lpeversion="1.3.1"
       unit="px"
       seed="1;1"
       lpesatellites=""
       num_rows="1"
       num_cols="1"
       gapx="0"
       gapy="0"
       offset="0"
       offset_type="false"
       scale="0"
       rotate="0"
       mirrorrowsx="false"
       mirrorrowsy="false"
       mirrorcolsx="false"
       mirrorcolsy="false"
       mirrortrans="false"
       shrink_interp="false"
       split_items="false"
       link_styles="false"
       interpolate_scalex="false"
       interpolate_scaley="true"
       interpolate_rotatex="false"
       interpolate_rotatey="true"
       random_scale="false"
       random_rotate="false"
       random_gap_y="false"
       random_gap_x="false"
       transformorigin="" /><inkscape:path-effect
       effect="powerstroke"
       message=""
       id="path-effect24"
       is_visible="true"
       lpeversion="1.3"
       scale_width="1"
       interpolator_type="SpiroInterpolator"
       interpolator_beta="0.2"
       start_linecap_type="zerowidth"
       end_linecap_type="zerowidth"
       offset_points="8.57e-17,30.6 | 3.5,40 | 7,30.9"
       linejoin_type="miter"
       miter_limit="4"
       not_jump="false"
       sort_points="true" /><inkscape:path-effect
       effect="tiling"
       id="path-effect19"
       is_visible="true"
       lpeversion="1.3.1"
       unit="px"
       seed="1;1"
       lpesatellites=""
       num_rows="2"
       num_cols="1"
       gapx="0"
       gapy="0"
       offset="0"
       offset_type="false"
       scale="0"
       rotate="0"
       mirrorrowsx="false"
       mirrorrowsy="false"
       mirrorcolsx="false"
       mirrorcolsy="false"
       mirrortrans="false"
       shrink_interp="false"
       split_items="false"
       link_styles="false"
       interpolate_scalex="false"
       interpolate_scaley="true"
       interpolate_rotatex="false"
       interpolate_rotatey="true"
       random_scale="false"
       random_rotate="false"
       random_gap_y="false"
       random_gap_x="false"
       transformorigin="" /><inkscape:path-effect
       effect="tiling"
       id="path-effect8"
       is_visible="true"
       lpeversion="1.3.1"
       unit="px"
       seed="1;1"
       lpesatellites=""
       num_rows="1"
       num_cols="1"
       gapx="0"
       gapy="0"
       offset="0"
       offset_type="false"
       scale="0"
       rotate="0"
       mirrorrowsx="false"
       mirrorrowsy="false"
       mirrorcolsx="false"
       mirrorcolsy="false"
       mirrortrans="false"
       shrink_interp="false"
       split_items="false"
       link_styles="false"
       interpolate_scalex="false"
       interpolate_scaley="true"
       interpolate_rotatex="false"
       interpolate_rotatey="true"
       random_scale="false"
       random_rotate="false"
       random_gap_y="false"
       random_gap_x="false"
       transformorigin="" /><inkscape:path-effect
       effect="powerstroke"
       message=""
       id="path-effect7"
       is_visible="true"
       lpeversion="1.3"
       scale_width="1"
       interpolator_type="SpiroInterpolator"
       interpolator_beta="0.2"
       start_linecap_type="zerowidth"
       end_linecap_type="zerowidth"
       offset_points="0,30.6 | 2,40 | 4,30.9"
       linejoin_type="miter"
       miter_limit="4"
       not_jump="false"
       sort_points="true" /><inkscape:path-effect
       effect="powerstroke"
       message=""
       id="path-effect5"
       is_visible="true"
       lpeversion="1.3"
       scale_width="1"
       interpolator_type="SpiroInterpolator"
       interpolator_beta="0.2"
       start_linecap_type="zerowidth"
       end_linecap_type="zerowidth"
       offset_points="0,30 | 6.5,40 | 13,20"
       linejoin_type="miter"
       miter_limit="4"
       not_jump="false"
       sort_points="true" /><inkscape:path-effect
       effect="powerstroke"
       message=""
       id="path-effect3"
       is_visible="true"
       lpeversion="1.3"
       scale_width="1"
       interpolator_type="SpiroInterpolator"
       interpolator_beta="0.2"
       start_linecap_type="zerowidth"
       end_linecap_type="zerowidth"
       offset_points="0,30 | 6.5,40 | 13,20"
       linejoin_type="miter"
       miter_limit="4"
       not_jump="false"
       sort_points="true" /><inkscape:path-effect
       effect="powerstroke"
       message=""
       id="path-effect23"
       is_visible="true"
       lpeversion="1.3"
       scale_width="1"
       interpolator_type="SpiroInterpolator"
       interpolator_beta="0.2"
       start_linecap_type="zerowidth"
       end_linecap_type="zerowidth"
       offset_points="0,26.6 | 5.5,40 | 11.9,27.7"
       linejoin_type="round"
       miter_limit="4"
       not_jump="false"
       sort_points="true" /><inkscape:path-effect
       effect="powerstroke"
       message=""
       id="path-effect21"
       is_visible="true"
       lpeversion="1.3"
       scale_width="1"
       interpolator_type="SpiroInterpolator"
       interpolator_beta="0.2"
       start_linecap_type="zerowidth"
       end_linecap_type="zerowidth"
       offset_points="0,26.6 | 5.5,40 | 11.9,27.7"
       linejoin_type="round"
       miter_limit="4"
       not_jump="false"
       sort_points="true" /><inkscape:path-effect
       effect="mirror_symmetry"
       start_point="500,419"
       end_point="500,807"
       center_point="500,613"
       id="path-effect33"
       is_visible="true"
       lpeversion="1.2"
       lpesatellites=""
       mode="free"
       discard_orig_path="true"
       fuse_paths="false"
       oposite_fuse="false"
       split_items="false"
       split_open="false"
       link_styles="false" /><inkscape:path-effect
       effect="mirror_symmetry"
       start_point="170,435"
       end_point="828,435"
       center_point="499,435"
       id="path-effect31"
       is_visible="true"
       lpeversion="1.2"
       lpesatellites="#path30"
       mode="free"
       discard_orig_path="false"
       fuse_paths="false"
       oposite_fuse="false"
       split_items="true"
       split_open="false"
       link_styles="false" /><inkscape:path-effect
       effect="mirror_symmetry"
       start_point="500,419"
       end_point="500,807"
       center_point="500,613"
       id="path-effect25"
       is_visible="true"
       lpeversion="1.2"
       lpesatellites=""
       mode="free"
       discard_orig_path="true"
       fuse_paths="false"
       oposite_fuse="false"
       split_items="false"
       split_open="false"
       link_styles="false" /><inkscape:path-effect
       effect="mirror_symmetry"
       start_point="500,419"
       end_point="500,807"
       center_point="500,613"
       id="path-effect20"
       is_visible="true"
       lpeversion="1.2"
       lpesatellites=""
       mode="free"
       discard_orig_path="true"
       fuse_paths="false"
       oposite_fuse="false"
       split_items="false"
       split_open="false"
       link_styles="false" /><inkscape:path-effect
       effect="mirror_symmetry"
       start_point="170,435"
       end_point="828,435"
       center_point="499,435"
       id="path-effect18"
       is_visible="true"
       lpeversion="1.2"
       lpesatellites="#path9"
       mode="free"
       discard_orig_path="false"
       fuse_paths="false"
       oposite_fuse="false"
       split_items="true"
       split_open="false"
       link_styles="false" /><inkscape:path-effect
       effect="mirror_symmetry"
       start_point="500,419"
       end_point="500,807"
       center_point="500,613"
       id="path-effect16"
       is_visible="true"
       lpeversion="1.2"
       lpesatellites=""
       mode="free"
       discard_orig_path="true"
       fuse_paths="false"
       oposite_fuse="false"
       split_items="false"
       split_open="false"
       link_styles="false" /><inkscape:path-effect
       effect="mirror_symmetry"
       start_point="170,435"
       end_point="828,435"
       center_point="499,435"
       id="path-effect15"
       is_visible="true"
       lpeversion="1.2"
       lpesatellites="#path15"
       mode="free"
       discard_orig_path="false"
       fuse_paths="false"
       oposite_fuse="false"
       split_items="true"
       split_open="false"
       link_styles="false" /><inkscape:path-effect
       effect="mirror_symmetry"
       start_point="203,604"
       end_point="808,604"
       center_point="506,604"
       id="path-effect14"
       is_visible="true"
       lpeversion="1.2"
       lpesatellites=""
       mode="free"
       discard_orig_path="false"
       fuse_paths="false"
       oposite_fuse="false"
       split_items="false"
       split_open="false"
       link_styles="false" /><inkscape:path-effect
       effect="mirror_symmetry"
       start_point="505,397"
       end_point="505,810"
       center_point="505,604"
       id="path-effect13"
       is_visible="true"
       lpeversion="1.2"
       lpesatellites=""
       mode="free"
       discard_orig_path="true"
       fuse_paths="false"
       oposite_fuse="false"
       split_items="false"
       split_open="false"
       link_styles="false" /><inkscape:path-effect
       effect="mirror_symmetry"
       start_point="808,59.6"
       end_point="808,810"
       center_point="808,435"
       id="path-effect12"
       is_visible="true"
       lpeversion="1.2"
       lpesatellites=""
       mode="free"
       discard_orig_path="false"
       fuse_paths="false"
       oposite_fuse="false"
       split_items="false"
       split_open="false"
       link_styles="false" /><inkscape:path-effect
       effect="mirror_symmetry"
       start_point="185,435"
       end_point="808,435"
       center_point="496,435"
       id="path-effect11"
       is_visible="true"
       lpeversion="1.2"
       lpesatellites=""
       mode="free"
       discard_orig_path="false"
       fuse_paths="false"
       oposite_fuse="false"
       split_items="true"
       split_open="false"
       link_styles="false" /><inkscape:path-effect
       effect="mirror_symmetry"
       start_point="0,440"
       end_point="1000,440"
       center_point="500,440"
       id="path-effect17"
       is_visible="true"
       lpeversion="1.2"
       lpesatellites=""
       mode="free"
       discard_orig_path="false"
       fuse_paths="false"
       oposite_fuse="false"
       split_items="false"
       split_open="false"
       link_styles="false" /><inkscape:path-effect
       effect="mirror_symmetry"
       start_point="0,435"
       end_point="1000,435"
       center_point="500,435"
       id="path-effect10"
       is_visible="true"
       lpeversion="1.2"
       lpesatellites=""
       mode="free"
       discard_orig_path="false"
       fuse_paths="false"
       oposite_fuse="false"
       split_items="false"
       split_open="false"
       link_styles="false" /><inkscape:path-effect
       effect="mirror_symmetry"
       start_point="0,440"
       end_point="1000,440"
       center_point="500,440"
       id="path-effect6"
       is_visible="true"
       lpeversion="1.2"
       lpesatellites=""
       mode="free"
       discard_orig_path="false"
       fuse_paths="false"
       oposite_fuse="false"
       split_items="false"
       split_open="false"
       link_styles="false" /></defs><g
     inkscape:label="glyph"
     inkscape:groupmode="layer"
     id="layer1"
     style="display:inline;fill:#d43f50;fill-opacity:0.3"><path
       id="path8"
       style="display:inline;fill:#d43f50;fill-opacity:0.3;stroke:none;stroke-opacity:1;baseline-shift:baseline;overflow:visible;opacity:1;vector-effect:none;enable-background:accumulate;stop-color:#000000;stop-opacity:1"
       inkscape:label="h6-v1"
       d="M 505 70.5 L 363 325 C 346 356 332 385 323 413 C 313 441 308 468 308 495 C 308 534 316 568 333 597 C 350 626 373 649 402 666 C 431 682 465 690 504 690 C 543 690 576 682 605 665 C 634 648 658 625 675 596 C 691 566 699 531 699 492 C 699 455 692 423 678 395 C 661 367 639 345 614 330 C 586 313 555 305 520 305 C 502 305 486 307 471 313 C 460 317 447 331 447 331 L 445 329 L 595 70.5 L 505 70.5 z M 503 370 C 538 370 566 382 589 406 C 612 430 623 455 623 494 C 623 532 612 555 589 579 C 566 603 538 615 503 615 C 467 615 440 603 419 579 C 396 555 385 532 385 494 C 385 455 396 430 419 406 C 440 382 467 370 503 370 z M 130 800 L 130 980 L 210 980 L 210 880 L 790 880 L 790 980 L 870 980 L 870 800 L 130 800 z " /></g><g
     inkscape:groupmode="layer"
     id="layer4"
     inkscape:label="archive"
     style="display:inline" /><g
     inkscape:label="construction"
     inkscape:groupmode="layer"
     id="layer2"
     style="display:none;fill:none;fill-opacity:0.3;stroke:#00a2ff;stroke-opacity:0.3"><path
       d="M 500,811 C 433,811 379,792 340,753 300,714 280,661 280,596 V 276 c 0,-65 20,-117 60,-156 39,-39.7 93,-59.5 160,-59.5 67,0 121,19.8 161,59.5 39,39 59,91 59,156 v 320 c 0,43 -9,81 -27,114 -18,32 -43,57 -76,75 -33,17 -72,26 -117,26 z m 0,-77 c 40,0 72,-13 97,-38 24,-26 36,-59 36,-100 V 276 c 0,-41 -12,-74 -36,-99 -25,-26 -57,-39 -97,-39 -40,0 -72,13 -96,39 -25,25 -37,58 -37,99 v 320 c 0,41 12,74 37,100 24,25 56,38 96,38 z"
       id="path1-4-8"
       inkscape:label="_jbm-0"
       style="display:none;fill:#505050;fill-opacity:0.2;stroke:none"
       sodipodi:nodetypes="sssssssssssssssssssssss"
       sodipodi:insensitive="true" /><path
       d="M 500,691 C 444,691 398,672 365,633 331,594 315,541 315,476 V 276 c 0,-65 16,-117 50,-156 33,-39.7 79,-59.5 135,-59.5 56,0 102,19.8 136,59.5 32,39 50,91 50,156 v 200 c 0,43 -8,81 -24,114 -14,32 -36,57 -63,75 -28,17 -62,26 -99,26 z m 0,-77 c 33,0 61,-13 81,-38 21,-26 24,-59 24,-100 V 276 c 0,-41 -3,-74 -24,-99 -20,-26 -48,-39 -81,-39 -34,0 -61,13 -81,39 -21,25 -24,58 -24,99 v 200 c 0,41 3,74 24,100 20,25 47,38 81,38 z"
       id="path4"
       inkscape:label="_0"
       style="display:none;fill:#16addf;fill-opacity:0.2;stroke:none;stroke-width:1.00006;stroke-opacity:0.3"
       sodipodi:nodetypes="sssssssssssssssssssssss"
       sodipodi:insensitive="true" /><path
       style="display:none;fill:none;fill-opacity:0.2;stroke:#16addf;stroke-width:80;stroke-dasharray:none;stroke-opacity:0.2"
       d="M 170,980 V 840 h 660 v 140"
       id="path12"
       sodipodi:nodetypes="cccc"
       inkscape:label="_house"
       sodipodi:insensitive="true" /><path
       style="baseline-shift:baseline;display:inline;overflow:visible;opacity:1;vector-effect:none;fill:#16addf;fill-opacity:0.2;stroke:none;stroke-opacity:1;enable-background:accumulate;stop-color:#000000;stop-opacity:1"
       d="m 130,800 v 180 h 80 V 880 h 580 v 100 h 80 V 800 Z"
       id="path17"
       inkscape:label="house"
       sodipodi:insensitive="true" /><path
       d="m 504,690 c -39,0 -73,-8 -102,-24 -29,-17 -52,-40 -69,-69 -17,-29 -25,-63 -25,-102 0,-27 5,-54 15,-82 9,-28 23,-57 40,-88 L 505,70.5 h 90 L 445,329 l 2,2 c 0,0 13,-14 24,-18 15,-6 31,-8 49,-8 35,0 66,8 94,25 25,15 47,37 64,65 14,28 21,60 21,97 0,39 -8,74 -24,104 -17,29 -41,52 -70,69 -29,17 -62,25 -101,25 z m -1,-75 c 35,0 63,-12 86,-36 23,-24 34,-47 34,-85 0,-39 -11,-64 -34,-88 -23,-24 -51,-36 -86,-36 -36,0 -63,12 -84,36 -23,24 -34,49 -34,88 0,38 11,61 34,85 21,24 48,36 84,36 z"
       id="path1-7"
       inkscape:label="6"
       style="display:inline;fill:#16addf;fill-opacity:0.2;stroke:none;stroke-width:0.997962"
       sodipodi:nodetypes="ssssssccccsssssssssssssssss"
       sodipodi:insensitive="true" /></g><g
     inkscape:groupmode="layer"
     id="layer3"
     inkscape:label="ref"
     inkscape:highlight-color="#ff5338"
     style="display:inline;fill:#505050;fill-opacity:0.2"><path
       id="path18"
       style="display:none;fill:#505050;fill-opacity:0.2;stroke:none;stroke-width:1.00006;stroke-opacity:0.3"
       inkscape:label="h10-v5"
       d="m 685,60.5 c -56,0 -102,19.8 -135,59.5 -34,39 -50,91 -50,156 v 200 c 0,65 16,118 50,157 33,39 79,58 135,58 37,0 71,-9 99,-26 27,-18 49,-43 63,-75 16,-33 24,-71 24,-114 V 276 C 871,211 853,159 821,120 787,80.3 741,60.5 685,60.5 Z m -498,10 -57,42.5 v 97 l 90,-67 v 456 h -90 v 82 H 380 V 599 H 300 V 70.5 Z M 685,138 c 33,0 61,13 81,39 21,25 24,58 24,99 v 200 c 0,41 -3,74 -24,100 -20,25 -48,38 -81,38 -34,0 -61,-13 -81,-38 -21,-26 -24,-59 -24,-100 V 276 c 0,-41 3,-74 24,-99 20,-26 47,-39 81,-39 z M 130,800 v 180 h 80 V 880 h 580 v 100 h 80 V 800 Z"
       sodipodi:insensitive="true" /><path
       id="path5"
       style="baseline-shift:baseline;display:none;overflow:visible;opacity:1;vector-effect:none;fill:#505050;fill-opacity:0.2;stroke:none;stroke-opacity:1;enable-background:accumulate;stop-color:#000000;stop-opacity:1"
       inkscape:label="h8-v1"
       d="m 501,60.5 c -37,0 -68,6.9 -92,20.6 -28,14.6 -49,33.9 -64,57.9 -15,25 -22,53 -22,85 0,33 9,61 26,86 21,24 46,40 75,47 v 3 c -35,6 -64,23 -85,52 -22,27 -33,61 -33,100 0,34 8,65 25,94 15,27 38,48 69,63 27,15 61,22 101,22 36,0 70,-7 103,-22 27,-15 49,-36 66,-63 16,-29 24,-60 24,-94 0,-39 -11,-73 -32,-100 -23,-29 -52,-46 -89,-52 v -3 c 33,-7 58,-23 75,-47 19,-25 28,-53 28,-86 0,-32 -8,-60 -23,-85 C 639,115 619,95.7 594,81.1 565,67.4 534,60.5 501,60.5 Z m 0,81.5 c 29,0 55,10 72,28 18,19 24,33 24,63 0,29 -7,47 -22,64 -18,20 -45,28 -74,28 -33,0 -59,-8 -77,-28 -15,-16 -21,-35 -21,-64 0,-30 7,-43 23,-63 15,-18 42,-28 75,-28 z m 0,258 c 33,0 52,11 77,32 22,20 33,43 33,78 0,34 -11,50 -33,70 -21,20 -44,31 -77,31 -38,0 -61,-12 -80,-31 -21,-21 -31,-35 -31,-70 0,-35 8,-58 29,-78 21,-21 44,-32 82,-32 z M 130,800 v 180 h 80 V 880 h 580 v 100 h 80 V 800 Z"
       sodipodi:insensitive="true" /><path
       id="path3"
       style="baseline-shift:baseline;display:none;overflow:visible;opacity:1;vector-effect:none;fill:#505050;fill-opacity:0.2;stroke:none;stroke-opacity:1;enable-background:accumulate;stop-color:#000000;stop-opacity:1"
       inkscape:label="h5-v1"
       d="M 335,70.7 V 368 h 168 c 33,0 55,10 75,29 19,20 26,47 26,80 v 25 c 0,33 -10,61 -29,80 -20,20 -41,30 -75,30 -34,0 -57,-10 -76,-30 -20,-19 -30,-47 -30,-80 h -80 c 0,53 17,102 50,134 33,31 78,55 135,55 57,0 103,-24 137,-55 33,-32 50,-75 50,-128 V 477 C 686,420 670,377 639,347 609,316 565,296 508,296 H 410 L 408,150 H 664 V 70.7 Z M 130,800 v 180 h 80 V 880 h 580 v 100 h 80 V 800 Z"
       sodipodi:insensitive="true" /><path
       id="path7"
       style="baseline-shift:baseline;display:none;overflow:visible;opacity:1;vector-effect:none;fill:#505050;fill-opacity:0.2;stroke:none;stroke-opacity:1;enable-background:accumulate;stop-color:#000000;stop-opacity:1"
       inkscape:label="h4-v2"
       d="M 544,70.5 320,425 v 125 h 280 v 130 h 80 V 329 H 600 V 474 H 400 V 441 L 635,70.5 Z M 130,800 v 180 h 80 V 880 h 580 v 100 h 80 V 800 Z"
       sodipodi:insensitive="true" /><path
       id="path2"
       style="baseline-shift:baseline;display:none;overflow:visible;opacity:1;vector-effect:none;fill:#505050;fill-opacity:0.2;stroke:none;stroke-opacity:1;enable-background:accumulate;stop-color:#000000;stop-opacity:1"
       inkscape:label="h3-v1"
       d="M 329,70.5 V 147 H 578 L 426,299 v 69 h 73 c 35,0 62,10 81,29 20,19 24,42 24,76 v 30 c 0,33 -10,60 -30,79 -19,19 -40,29 -75,29 -34,0 -55,-10 -75,-29 -20,-19 -30,-48 -30,-81 h -82 c 0,54 17,103 50,134 34,31 79,55 136,55 58,0 104,-24 138,-55 34,-31 51,-78 51,-132 V 473 C 687,422 672,381 643,350 613,319 573,302 522,298 L 672,148 V 70.5 Z M 130,800 v 180 h 80 V 880 h 580 v 100 h 80 V 800 Z"
       sodipodi:insensitive="true" /><path
       id="path6"
       style="baseline-shift:baseline;display:none;overflow:visible;opacity:1;vector-effect:none;fill:#505050;fill-opacity:0.2;stroke:none;stroke-opacity:1;enable-background:accumulate;stop-color:#000000;stop-opacity:1"
       inkscape:label="h2-v1"
       d="m 499,60 c -55,0 -100,22 -134,54 -33,33 -51,82 -53,137 h 82 c 0,-35 10,-62 30,-82 20,-21 41,-32 75,-32 33,0 55,10 75,31 19,19 28,46 28,80 0,23 -6,47 -18,72 -13,25 -33,43 -63,74 L 321,603 v 80 H 693 V 604 H 423 L 582,441 c 40,-40 62,-68 78,-100 16,-32 24,-63 24,-93 C 684,193 668,146 635,113 601,81.7 556,60 499,60 Z M 130,800 v 180 h 80 V 880 h 580 v 100 h 80 V 800 Z"
       sodipodi:insensitive="true" /><g
       id="glyph"
       transform="translate(205)"
       fill="#000000"
       fill-opacity="0.2"
       inkscape:label="jbm-6"
       sodipodi:insensitive="true"
       style="display:none"><path
         d="M 301,810 Q 231,810 178,781 124,751 94,699 64,646 64,577 64,529 82,479 100,428 131,373 L 300,70 h 100 l -180,313 3,2 q 13,-17 39,-26 26,-9 57,-9 65,0 114,29 48,28 76,78 27,50 27,116 0,70 -30,124 -30,53 -82,83 -53,30 -123,30 z m -1,-80 q 65,0 106,-43 40,-43 40,-112 0,-69 -40,-112 -41,-43 -106,-43 -65,0 -105,43 -41,43 -41,112 0,69 41,112 40,43 105,43 z"
         id="path1"
         inkscape:label="_jbm-6" /></g></g><metadata
     id="metadata1"><rdf:RDF><cc:Work
         rdf:about=""><cc:license
           rdf:resource="http://scripts.sil.org/OFL" /></cc:Work><cc:License
         rdf:about="http://scripts.sil.org/OFL"><cc:permits
           rdf:resource="http://scripts.sil.org/pub/OFL/Reproduction" /><cc:permits
           rdf:resource="http://scripts.sil.org/pub/OFL/Distribution" /><cc:permits
           rdf:resource="http://scripts.sil.org/pub/OFL/Embedding" /><cc:permits
           rdf:resource="http://scripts.sil.org/pub/OFL/DerivativeWorks" /><cc:requires
           rdf:resource="http://scripts.sil.org/pub/OFL/Notice" /><cc:requires
           rdf:resource="http://scripts.sil.org/pub/OFL/Attribution" /><cc:requires
           rdf:resource="http://scripts.sil.org/pub/OFL/ShareAlike" /><cc:requires
           rdf:resource="http://scripts.sil.org/pub/OFL/DerivativeRenaming" /><cc:requires
           rdf:resource="http://scripts.sil.org/pub/OFL/BundlingWhenSelling" /></cc:License></rdf:RDF></metadata><image
     preserveAspectRatio="none"
     inkscape:svg-dpi="96"
     width="1000"
     height="1000"
     xlink:href="../templates/guidelines.svg"
     id="image1"
     x="0"
     y="0"
     inkscape:label="guidelines"
     sodipodi:insensitive="true"
     style="display:inline;mix-blend-mode:normal" /></svg>
