<?xml version="1.0" encoding="UTF-8" standalone="no"?>
<!-- Created with Inkscape (http://www.inkscape.org/) -->

<svg
   width="1000"
   height="1000"
   viewBox="0 0 1000 1000"
   version="1.1"
   id="svg1"
   inkscape:version="1.4.3 (0d15f75042, 2025-12-25)"
   sodipodi:docname="house_3.svg"
   xml:space="preserve"
   xmlns:inkscape="http://www.inkscape.org/namespaces/inkscape"
   xmlns:sodipodi="http://sodipodi.sourceforge.net/DTD/sodipodi-0.dtd"
   xmlns:xlink="http://www.w3.org/1999/xlink"
   xmlns="http://www.w3.org/2000/svg"
   xmlns:svg="http://www.w3.org/2000/svg"
   xmlns:rdf="http://www.w3.org/1999/02/22-rdf-syntax-ns#"
   xmlns:cc="http://creativecommons.org/ns#"><sodipodi:namedview
     id="namedview1"
     pagecolor="#ffffff"
     bordercolor="#999999"
     borderopacity="1"
     inkscape:showpageshadow="2"
     inkscape:pageopacity="0"
     inkscape:pagecheckerboard="0"
     inkscape:deskcolor="#d1d1d1"
     inkscape:document-units="px"
     inkscape:zoom="0.501"
     inkscape:cx="281"
     inkscape:cy="385"
     inkscape:window-width="942"
     inkscape:window-height="1027"
     inkscape:window-x="0"
     inkscape:window-y="0"
     inkscape:window-maximized="0"
     inkscape:current-layer="svg1"
     showgrid="true"
     showguides="true"
     inkscape:lockguides="true"><inkscape:grid
       id="grid1"
       units="px"
       originx="0"
       originy="0"
       spacingx="10"
       spacingy="10"
       empcolor="#e05050"
       empopacity="0.302"
       color="#505050"
       opacity="0.07843137"
       empspacing="10"
       enabled="true"
       visible="true" /><sodipodi:guide
       position="0,565"
       orientation="0,1"
       id="guide1"
       inkscape:locked="true"
       inkscape:label="center"
       inkscape:color="rgb(129,61,156)" /></sodipodi:namedview><defs
     id="defs1"><inkscape:path-effect
       effect="mirror_symmetry"
       start_point="500,69.2"
       end_point="500,801"
       center_point="500,435"
       id="path-effect26"
       is_visible="true"
       lpeversion="1.2"
       lpesatellites=""
       mode="free"
       discard_orig_path="false"
       fuse_paths="false"
       oposite_fuse="false"
       split_items="false"
       split_open="false"
       link_styles="false" /><inkscape:path-effect
       effect="mirror_symmetry"
       start_point="500,69.2"
       end_point="500,801"
       center_point="500,435"
       id="path-effect9"
       is_visible="true"
       lpeversion="1.2"
       lpesatellites=""
       mode="free"
       discard_orig_path="false"
       fuse_paths="false"
       oposite_fuse="false"
       split_items="false"
       split_open="false"
       link_styles="false" /><inkscape:path-effect
       effect="tiling"
       id="path-effect27"
       is_visible="true"
       lpeversion="1.3.1"
       unit="px"
       seed="1;1"
       lpesatellites=""
       num_rows="1"
       num_cols="1"
       gapx="0"
       gapy="0"
       offset="0"
       offset_type="false"
       scale="0"
       rotate="0"
       mirrorrowsx="false"
       mirrorrowsy="false"
       mirrorcolsx="false"
       mirrorcolsy="false"
       mirrortrans="false"
       shrink_interp="false"
       split_items="false"
       link_styles="false"
       interpolate_scalex="false"
       interpolate_scaley="true"
       interpolate_rotatex="false"
       interpolate_rotatey="true"
       random_scale="false"
       random_rotate="false"
       random_gap_y="false"
       random_gap_x="false"
       transformorigin="" /><inkscape:path-effect
       effect="powerstroke"
       message=""
       id="path-effect24"
       is_visible="true"
       lpeversion="1.3"
       scale_width="1"
       interpolator_type="SpiroInterpolator"
       interpolator_beta="0.2"
       start_linecap_type="zerowidth"
       end_linecap_type="zerowidth"
       offset_points="8.57e-17,30.6 | 3.5,40 | 7,30.9"
       linejoin_type="miter"
       miter_limit="4"
       not_jump="false"
       sort_points="true" /><inkscape:path-effect
       effect="tiling"
       id="path-effect19"
       is_visible="true"
       lpeversion="1.3.1"
       unit="px"
       seed="1;1"
       lpesatellites=""
       num_rows="2"
       num_cols="1"
       gapx="0"
       gapy="0"
       offset="0"
       offset_type="false"
       scale="0"
       rotate="0"
       mirrorrowsx="false"
       mirrorrowsy="false"
       mirrorcolsx="false"
       mirrorcolsy="false"
       mirrortrans="false"
       shrink_interp="false"
       split_items="false"
       link_styles="false"
       interpolate_scalex="false"
       interpolate_scaley="true"
       interpolate_rotatex="false"
       interpolate_rotatey="true"
       random_scale="false"
       random_rotate="false"
       random_gap_y="false"
       random_gap_x="false"
       transformorigin="" /><inkscape:path-effect
       effect="tiling"
       id="path-effect8"
       is_visible="true"
       lpeversion="1.3.1"
       unit="px"
       seed="1;1"
       lpesatellites=""
       num_rows="1"
       num_cols="1"
       gapx="0"
       gapy="0"
       offset="0"
       offset_type="false"
       scale="0"
       rotate="0"
       mirrorrowsx="false"
       mirrorrowsy="false"
       mirrorcolsx="false"
       mirrorcolsy="false"
       mirrortrans="false"
       shrink_interp="false"
       split_items="false"
       link_styles="false"
       interpolate_scalex="false"
       interpolate_scaley="true"
       interpolate_rotatex="false"
       interpolate_rotatey="true"
       random_scale="false"
       random_rotate="false"
       random_gap_y="false"
       random_gap_x="false"
       transformorigin="" /><inkscape:path-effect
       effect="powerstroke"
       message=""
       id="path-effect7"
       is_visible="true"
       lpeversion="1.3"
       scale_width="1"
       interpolator_type="SpiroInterpolator"
       interpolator_beta="0.2"
       start_linecap_type="zerowidth"
       end_linecap_type="zerowidth"
       offset_points="0,30.6 | 2,40 | 4,30.9"
       linejoin_type="miter"
       miter_limit="4"
       not_jump="false"
       sort_points="true" /><inkscape:path-effect
       effect="powerstroke"
       message=""
       id="path-effect5"
       is_visible="true"
       lpeversion="1.3"
       scale_width="1"
       interpolator_type="SpiroInterpolator"
       interpolator_beta="0.2"
       start_linecap_type="zerowidth"
       end_linecap_type="zerowidth"
       offset_points="0,30 | 6.5,40 | 13,20"
       linejoin_type="miter"
       miter_limit="4"
       not_jump="false"
       sort_points="true" /><inkscape:path-effect
       effect="powerstroke"
       message=""
       id="path-effect3"
       is_visible="true"
       lpeversion="1.3"
       scale_width="1"
       interpolator_type="SpiroInterpolator"
       interpolator_beta="0.2"
       start_linecap_type="zerowidth"
       end_linecap_type="zerowidth"
       offset_points="0,30 | 6.5,40 | 13,20"
       linejoin_type="miter"
       miter_limit="4"
       not_jump="false"
       sort_points="true" /><inkscape:path-effect
       effect="powerstroke"
       message=""
       id="path-effect23"
       is_visible="true"
       lpeversion="1.3"
       scale_width="1"
       interpolator_type="SpiroInterpolator"
       interpolator_beta="0.2"
       start_linecap_type="zerowidth"
       end_linecap_type="zerowidth"
       offset_points="0,26.6 | 5.5,40 | 11.9,27.7"
       linejoin_type="round"
       miter_limit="4"
       not_jump="false"
       sort_points="true" /><inkscape:path-effect
       effect="powerstroke"
       message=""
       id="path-effect21"
       is_visible="true"
       lpeversion="1.3"
       scale_width="1"
       interpolator_type="SpiroInterpolator"
       interpolator_beta="0.2"
       start_linecap_type="zerowidth"
       end_linecap_type="zerowidth"
       offset_points="0,26.6 | 5.5,40 | 11.9,27.7"
       linejoin_type="round"
       miter_limit="4"
       not_jump="false"
       sort_points="true" /><inkscape:path-effect
       effect="mirror_symmetry"
       start_point="500,419"
       end_point="500,807"
       center_point="500,613"
       id="path-effect33"
       is_visible="true"
       lpeversion="1.2"
       lpesatellites=""
       mode="free"
       discard_orig_path="true"
       fuse_paths="false"
       oposite_fuse="false"
       split_items="false"
       split_open="false"
       link_styles="false" /><inkscape:path-effect
       effect="mirror_symmetry"
       start_point="170,435"
       end_point="828,435"
       center_point="499,435"
       id="path-effect31"
       is_visible="true"
       lpeversion="1.2"
       lpesatellites="#path30"
       mode="free"
       discard_orig_path="false"
       fuse_paths="false"
       oposite_fuse="false"
       split_items="true"
       split_open="false"
       link_styles="false" /><inkscape:path-effect
       effect="mirror_symmetry"
       start_point="500,419"
       end_point="500,807"
       center_point="500,613"
       id="path-effect25"
       is_visible="true"
       lpeversion="1.2"
       lpesatellites=""
       mode="free"
       discard_orig_path="true"
       fuse_paths="false"
       oposite_fuse="false"
       split_items="false"
       split_open="false"
       link_styles="false" /><inkscape:path-effect
       effect="mirror_symmetry"
       start_point="500,419"
       end_point="500,807"
       center_point="500,613"
       id="path-effect20"
       is_visible="true"
       lpeversion="1.2"
       lpesatellites=""
       mode="free"
       discard_orig_path="true"
       fuse_paths="false"
       oposite_fuse="false"
       split_items="false"
       split_open="false"
       link_styles="false" /><inkscape:path-effect
       effect="mirror_symmetry"
       start_point="170,435"
       end_point="828,435"
       center_point="499,435"
       id="path-effect18"
       is_visible="true"
       lpeversion="1.2"
       lpesatellites="#path9"
       mode="free"
       discard_orig_path="false"
       fuse_paths="false"
       oposite_fuse="false"
       split_items="true"
       split_open="false"
       link_styles="false" /><inkscape:path-effect
       effect="mirror_symmetry"
       start_point="500,419"
       end_point="500,807"
       center_point="500,613"
       id="path-effect16"
       is_visible="true"
       lpeversion="1.2"
       lpesatellites=""
       mode="free"
       discard_orig_path="true"
       fuse_paths="false"
       oposite_fuse="false"
       split_items="false"
       split_open="false"
       link_styles="false" /><inkscape:path-effect
       effect="mirror_symmetry"
       start_point="170,435"
       end_point="828,435"
       center_point="499,435"
       id="path-effect15"
       is_visible="true"
       lpeversion="1.2"
       lpesatellites="#path15"
       mode="free"
       discard_orig_path="false"
       fuse_paths="false"
       oposite_fuse="false"
       split_items="true"
       split_open="false"
       link_styles="false" /><inkscape:path-effect
       effect="mirror_symmetry"
       start_point="203,604"
       end_point="808,604"
       center_point="506,604"
       id="path-effect14"
       is_visible="true"
       lpeversion="1.2"
       lpesatellites=""
       mode="free"
       discard_orig_path="false"
       fuse_paths="false"
       oposite_fuse="false"
       split_items="false"
       split_open="false"
       link_styles="false" /><inkscape:path-effect
       effect="mirror_symmetry"
       start_point="505,397"
       end_point="505,810"
       center_point="505,604"
       id="path-effect13"
       is_visible="true"
       lpeversion="1.2"
       lpesatellites=""
       mode="free"
       discard_orig_path="true"
       fuse_paths="false"
       oposite_fuse="false"
       split_items="false"
       split_open="false"
       link_styles="false" /><inkscape:path-effect
       effect="mirror_symmetry"
       start_point="808,59.6"
       end_point="808,810"
       center_point="808,435"
       id="path-effect12"
       is_visible="true"
       lpeversion="1.2"
       lpesatellites=""
       mode="free"
       discard_orig_path="false"
       fuse_paths="false"
       oposite_fuse="false"
       split_items="false"
       split_open="false"
       link_styles="false" /><inkscape:path-effect
       effect="mirror_symmetry"
       start_point="185,435"
       end_point="808,435"
       center_point="496,435"
       id="path-effect11"
       is_visible="true"
       lpeversion="1.2"
       lpesatellites=""
       mode="free"
       discard_orig_path="false"
       fuse_paths="false"
       oposite_fuse="false"
       split_items="true"
       split_open="false"
       link_styles="false" /><inkscape:path-effect
       effect="mirror_symmetry"
       start_point="0,440"
       end_point="1000,440"
       center_point="500,440"
       id="path-effect17"
       is_visible="true"
       lpeversion="1.2"
       lpesatellites=""
       mode="free"
       discard_orig_path="false"
       fuse_paths="false"
       oposite_fuse="false"
       split_items="false"
       split_open="false"
       link_styles="false" /><inkscape:path-effect
       effect="mirror_symmetry"
       start_point="0,435"
       end_point="1000,435"
       center_point="500,435"
       id="path-effect10"
       is_visible="true"
       lpeversion="1.2"
       lpesatellites=""
       mode="free"
       discard_orig_path="false"
       fuse_paths="false"
       oposite_fuse="false"
       split_items="false"
       split_open="false"
       link_styles="false" /><inkscape:path-effect
       effect="mirror_symmetry"
       start_point="0,440"
       end_point="1000,440"
       center_point="500,440"
       id="path-effect6"
       is_visible="true"
       lpeversion="1.2"
       lpesatellites=""
       mode="free"
       discard_orig_path="false"
       fuse_paths="false"
       oposite_fuse="false"
       split_items="false"
       split_open="false"
       link_styles="false" /></defs><g
     inkscape:label="glyph"
     inkscape:groupmode="layer"
     id="layer1"
     style="display:inline;fill:#d43f50;fill-opacity:0.3"><path
       id="path2"
       style="display:inline;fill:#d43f50;fill-opacity:0.3;stroke:none;stroke-opacity:1;baseline-shift:baseline;overflow:visible;opacity:1;vector-effect:none;enable-background:accumulate;stop-color:#000000;stop-opacity:1"
       inkscape:label="h3-v1"
       d="M 329 70.5 L 329 147 L 578 147 L 426 299 L 426 368 L 499 368 C 534 368 561 378 580 397 C 600 416 604 439 604 473 L 604 503 C 604 536 594 563 574 582 C 555 601 534 611 499 611 C 465 611 444 601 424 582 C 404 563 394 534 394 501 L 312 501 C 312 555 329 604 362 635 C 396 666 441 690 498 690 C 556 690 602 666 636 635 C 670 604 687 557 687 503 L 687 473 C 687 422 672 381 643 350 C 613 319 573 302 522 298 L 672 148 L 672 70.5 L 329 70.5 z M 130 800 L 130 980 L 210 980 L 210 880 L 790 880 L 790 980 L 870 980 L 870 800 L 130 800 z " /></g><g
     inkscape:groupmode="layer"
     id="layer4"
     inkscape:label="archive"
     style="display:inline" /><g
     inkscape:label="construction"
     inkscape:groupmode="layer"
     id="layer2"
     style="display:none;fill:none;fill-opacity:0.3;stroke:#00a2ff;stroke-opacity:0.3"><path
       d="M 500,811 C 433,811 379,792 340,753 300,714 280,661 280,596 V 276 c 0,-65 20,-117 60,-156 39,-39.7 93,-59.5 160,-59.5 67,0 121,19.8 161,59.5 39,39 59,91 59,156 v 320 c 0,43 -9,81 -27,114 -18,32 -43,57 -76,75 -33,17 -72,26 -117,26 z m 0,-77 c 40,0 72,-13 97,-38 24,-26 36,-59 36,-100 V 276 c 0,-41 -12,-74 -36,-99 -25,-26 -57,-39 -97,-39 -40,0 -72,13 -96,39 -25,25 -37,58 -37,99 v 320 c 0,41 12,74 37,100 24,25 56,38 96,38 z"
       id="path1-4-8"
       inkscape:label="_jbm-0"
       style="display:none;fill:#505050;fill-opacity:0.2;stroke:none"
       sodipodi:nodetypes="sssssssssssssssssssssss"
       sodipodi:insensitive="true" /><path
       d="M 495,811 Q 394,811 335,755 276,698 276,601 h 90 q 0,60 35,95 35,35 95,35 60,0 95,-35 35,-35 35,-95 v -50 q 0,-60 -35,-95 -35,-35 -95,-35 H 417 V 343 L 596,153 H 296 V 70.5 H 698 V 155 L 522,342 q 90,7 142,63 52,55 52,146 v 50 q 0,97 -59,154 -60,56 -162,56 z"
       id="path1-12-8"
       inkscape:label="_jbm-3"
       style="display:none;fill:#505050;fill-opacity:0.2;stroke:none;stroke-opacity:0.3"
       sodipodi:insensitive="true" /><path
       d="M 500,691 C 444,691 398,672 365,633 331,594 315,541 315,476 V 276 c 0,-65 16,-117 50,-156 33,-39.7 79,-59.5 135,-59.5 56,0 102,19.8 136,59.5 32,39 50,91 50,156 v 200 c 0,43 -8,81 -24,114 -14,32 -36,57 -63,75 -28,17 -62,26 -99,26 z m 0,-77 c 33,0 61,-13 81,-38 21,-26 24,-59 24,-100 V 276 c 0,-41 -3,-74 -24,-99 -20,-26 -48,-39 -81,-39 -34,0 -61,13 -81,39 -21,25 -24,58 -24,99 v 200 c 0,41 3,74 24,100 20,25 47,38 81,38 z"
       id="path4"
       inkscape:label="_0"
       style="display:none;fill:#16addf;fill-opacity:0.2;stroke:none;stroke-width:1.00006;stroke-opacity:0.3"
       sodipodi:nodetypes="sssssssssssssssssssssss"
       sodipodi:insensitive="true" /><path
       style="display:none;fill:none;fill-opacity:0.2;stroke:#16addf;stroke-width:80;stroke-dasharray:none;stroke-opacity:0.2"
       d="M 170,980 V 840 h 660 v 140"
       id="path12"
       sodipodi:nodetypes="cccc"
       inkscape:label="_house"
       sodipodi:insensitive="true" /><path
       style="baseline-shift:baseline;display:inline;overflow:visible;opacity:1;vector-effect:none;fill:#16addf;fill-opacity:0.2;stroke:none;stroke-opacity:1;enable-background:accumulate;stop-color:#000000;stop-opacity:1"
       d="m 130,800 v 180 h 80 V 880 h 580 v 100 h 80 V 800 Z"
       id="path17"
       inkscape:label="house"
       sodipodi:insensitive="true" /><path
       d="M 498,690 C 441,690 396,666 362,635 329,604 312,555 312,501 h 82 c 0,33 10,62 30,81 20,19 41,29 75,29 35,0 56,-10 75,-29 20,-19 30,-46 30,-79 v -30 c 0,-34 -4,-57 -24,-76 -19,-19 -46,-29 -81,-29 H 426 V 299 L 578,147 H 329 V 70.5 H 672 V 148 L 522,298 c 51,4 91,21 121,52 29,31 44,72 44,123 v 30 c 0,54 -17,101 -51,132 -34,31 -80,55 -138,55 z"
       id="path1"
       inkscape:label="3"
       style="display:inline;fill:#16addf;fill-opacity:0.2;stroke:none;stroke-width:0.998625;stroke-opacity:0.3"
       sodipodi:nodetypes="ssccsssssssccccccccsssss"
       sodipodi:insensitive="true" /></g><g
     inkscape:groupmode="layer"
     id="layer3"
     inkscape:label="ref"
     inkscape:highlight-color="#ff5338"
     style="display:inline;fill:#505050;fill-opacity:0.2"><path
       id="path8"
       style="baseline-shift:baseline;display:none;overflow:visible;opacity:1;vector-effect:none;fill:#505050;fill-opacity:0.2;enable-background:accumulate;stop-color:#000000;stop-opacity:1"
       inkscape:label="aries-v1"
       d="m 316,63 c -66,3.6 -119,57 -127,120 -6,47 -4,117 40,187 h 61 c -50,-90 -39,-133 -30,-170 10,-38 33,-57 60,-60 27,-3 51,5 69,24 18,19 33,50 42,85 29,182 27,367 34,551 h 70 c 7,-184 5,-369 34,-551 9,-35 24,-66 42,-85 18,-19 42,-27 69,-24 27,3 50,22 60,60 9,37 20,80 -30,170 h 61 C 815,300 817,230 811,183 803,120 749,67.4 684,63.7 620,60 584,85.6 564,105 535,134 517,175 500,240 483,175 465,134 436,105 418,88 380,59.6 316,63 Z"
       sodipodi:nodetypes="ssccssssccssssccssscss"
       sodipodi:insensitive="true" /><path
       id="path23"
       style="display:none;fill:#505050;fill-opacity:0.2;fill-rule:nonzero;stroke:none;stroke-width:79.968;stroke-opacity:0.3"
       inkscape:label="leo-v1"
       d="M 594,55.6 C 514,50.7 435,88.1 383,149 c -67,74 -93,197 -92,275 0,46 11,71 14,84 -96,-21 -183,52 -185,140 -7,89 77,172 166,162 92,-4 170,-102 144,-192 -17,-44 -42,-84 -49,-131 -24,-111 0,-243 95,-315 57,-48 161,-53 209,1 48,54 47,126 45,191 -14,140 -87,263 -132,393 -23,60 -23,138 32,182 63,56 175,38 215,-38 16,-30 21,-71 15,-101 h -52 c 5,42 -11,91 -55,105 C 704,923 642,880 653,825 670,737 719,659 749,574 792,463 825,340 791,223 777,163 745,102 685,78.6 656,66.3 625,57 594,55.6 Z M 279,564 c 26,-1 38,9 49,16 5,11 13,29 21,43 9,12 8,26 9,36 -3,58 -67,97 -124,69 -57,-28 -62,-111 -12,-146 16,-12 37,-17 57,-18 z"
       sodipodi:nodetypes="ssscssssszssssccsssssscccczsc"
       sodipodi:insensitive="true" /><path
       id="path8-3"
       style="baseline-shift:baseline;display:none;overflow:visible;vector-effect:none;fill:#505050;fill-opacity:0.2;stroke:none;enable-background:accumulate;stop-color:#000000"
       inkscape:label="scorpio-v2"
       d="M 388,57 C 363,57 336,69.4 320,89.7 295,120 276,154 260,190 c 0,0 -15,-80 -33,-120.3 h -57 c 0,0 30,60.3 30,180.3 v 550 h 80 V 260 c 0,-60 62,-130 90,-130 18,0 23,23 27,40 3,17 3,46 3,75 v 555 h 80 V 260 c 0,-60 61,-130 86,-130 14,0 22,23 27,40 5,17 7,46 7,75 v 355 c 0,96 8,174 149,292 -107,-4 -191,11 -191,11 v 53 c 135,-6 218,0 332,24 C 863,875 848,764 864,656 h -53 c 0,0 -25,79 -16,195 C 731,795 680,745 680,627 V 246 C 680,169 652,57 580,57 555,57 532,71.4 516,89.7 490,120 469,161 469,161 459,116 428,57 388,57 Z"
       sodipodi:insensitive="true" /><path
       id="path18"
       style="display:none;fill:#505050;fill-opacity:0.2;stroke:none;stroke-width:1.00006;stroke-opacity:0.3"
       inkscape:label="h10-v5"
       d="m 685,60.5 c -56,0 -102,19.8 -135,59.5 -34,39 -50,91 -50,156 v 200 c 0,65 16,118 50,157 33,39 79,58 135,58 37,0 71,-9 99,-26 27,-18 49,-43 63,-75 16,-33 24,-71 24,-114 V 276 C 871,211 853,159 821,120 787,80.3 741,60.5 685,60.5 Z m -498,10 -57,42.5 v 97 l 90,-67 v 456 h -90 v 82 H 380 V 599 H 300 V 70.5 Z M 685,138 c 33,0 61,13 81,39 21,25 24,58 24,99 v 200 c 0,41 -3,74 -24,100 -20,25 -48,38 -81,38 -34,0 -61,-13 -81,-38 -21,-26 -24,-59 -24,-100 V 276 c 0,-41 3,-74 24,-99 20,-26 47,-39 81,-39 z M 130,800 v 180 h 80 V 880 h 580 v 100 h 80 V 800 Z"
       sodipodi:insensitive="true" /><path
       id="path5"
       style="baseline-shift:baseline;display:none;overflow:visible;opacity:1;vector-effect:none;fill:#505050;fill-opacity:0.2;stroke:none;stroke-opacity:1;enable-background:accumulate;stop-color:#000000;stop-opacity:1"
       inkscape:label="h8-v1"
       d="m 501,60.5 c -37,0 -68,6.9 -92,20.6 -28,14.6 -49,33.9 -64,57.9 -15,25 -22,53 -22,85 0,33 9,61 26,86 21,24 46,40 75,47 v 3 c -35,6 -64,23 -85,52 -22,27 -33,61 -33,100 0,34 8,65 25,94 15,27 38,48 69,63 27,15 61,22 101,22 36,0 70,-7 103,-22 27,-15 49,-36 66,-63 16,-29 24,-60 24,-94 0,-39 -11,-73 -32,-100 -23,-29 -52,-46 -89,-52 v -3 c 33,-7 58,-23 75,-47 19,-25 28,-53 28,-86 0,-32 -8,-60 -23,-85 C 639,115 619,95.7 594,81.1 565,67.4 534,60.5 501,60.5 Z m 0,81.5 c 29,0 55,10 72,28 18,19 24,33 24,63 0,29 -7,47 -22,64 -18,20 -45,28 -74,28 -33,0 -59,-8 -77,-28 -15,-16 -21,-35 -21,-64 0,-30 7,-43 23,-63 15,-18 42,-28 75,-28 z m 0,258 c 33,0 52,11 77,32 22,20 33,43 33,78 0,34 -11,50 -33,70 -21,20 -44,31 -77,31 -38,0 -61,-12 -80,-31 -21,-21 -31,-35 -31,-70 0,-35 8,-58 29,-78 21,-21 44,-32 82,-32 z M 130,800 v 180 h 80 V 880 h 580 v 100 h 80 V 800 Z"
       sodipodi:insensitive="true" /><path
       id="path6"
       style="baseline-shift:baseline;display:none;overflow:visible;opacity:1;vector-effect:none;fill:#505050;fill-opacity:0.2;stroke:none;stroke-opacity:1;enable-background:accumulate;stop-color:#000000;stop-opacity:1"
       inkscape:label="h2-v1"
       d="m 499,60 c -55,0 -100,22 -134,54 -33,33 -51,82 -53,137 h 82 c 0,-35 10,-62 30,-82 20,-21 41,-32 75,-32 33,0 55,10 75,31 19,19 28,46 28,80 0,23 -6,47 -18,72 -13,25 -33,43 -63,74 L 321,603 v 80 H 693 V 604 H 423 L 582,441 c 40,-40 62,-68 78,-100 16,-32 24,-63 24,-93 C 684,193 668,146 635,113 601,81.7 556,60 499,60 Z M 130,800 v 180 h 80 V 880 h 580 v 100 h 80 V 800 Z"
       sodipodi:insensitive="true" /><g
       id="glyph-48"
       transform="translate(205)"
       fill="#000000"
       fill-opacity="0.2"
       inkscape:label="jbm-3"
       sodipodi:insensitive="true"
       style="display:none"><path
         d="M 289,810 Q 188,810 129,754 70,697 70,600 h 90 q 0,60 35,95 35,35 95,35 60,0 95,-35 35,-35 35,-95 v -50 q 0,-60 -35,-95 -35,-35 -95,-35 H 211 V 342 L 390,152 H 90 V 70 h 402 v 84 L 316,341 q 90,7 142,63 52,55 52,146 v 50 q 0,97 -59,154 -60,56 -162,56 z"
         id="path1-12"
         inkscape:label="_jbm-3" /></g></g><metadata
     id="metadata1"><rdf:RDF><cc:Work
         rdf:about=""><cc:license
           rdf:resource="http://scripts.sil.org/OFL" /></cc:Work><cc:License
         rdf:about="http://scripts.sil.org/OFL"><cc:permits
           rdf:resource="http://scripts.sil.org/pub/OFL/Reproduction" /><cc:permits
           rdf:resource="http://scripts.sil.org/pub/OFL/Distribution" /><cc:permits
           rdf:resource="http://scripts.sil.org/pub/OFL/Embedding" /><cc:permits
           rdf:resource="http://scripts.sil.org/pub/OFL/DerivativeWorks" /><cc:requires
           rdf:resource="http://scripts.sil.org/pub/OFL/Notice" /><cc:requires
           rdf:resource="http://scripts.sil.org/pub/OFL/Attribution" /><cc:requires
           rdf:resource="http://scripts.sil.org/pub/OFL/ShareAlike" /><cc:requires
           rdf:resource="http://scripts.sil.org/pub/OFL/DerivativeRenaming" /><cc:requires
           rdf:resource="http://scripts.sil.org/pub/OFL/BundlingWhenSelling" /></cc:License></rdf:RDF></metadata><image
     preserveAspectRatio="none"
     inkscape:svg-dpi="96"
     width="1000"
     height="1000"
     xlink:href="../templates/guidelines.svg"
     id="image1"
     x="0"
     y="0"
     inkscape:label="guidelines"
     sodipodi:insensitive="true"
     style="display:inline;mix-blend-mode:normal" /></svg>
