<?xml version="1.0" encoding="UTF-8" standalone="no"?>
<!-- Created with Inkscape (http://www.inkscape.org/) -->

<svg
   width="1000"
   height="1000"
   viewBox="0 0 1000 1000"
   version="1.1"
   id="svg1"
   inkscape:version="1.4.3 (0d15f75042, 2025-12-25)"
   sodipodi:docname="jupiter.svg"
   xml:space="preserve"
   xmlns:inkscape="http://www.inkscape.org/namespaces/inkscape"
   xmlns:sodipodi="http://sodipodi.sourceforge.net/DTD/sodipodi-0.dtd"
   xmlns:xlink="http://www.w3.org/1999/xlink"
   xmlns="http://www.w3.org/2000/svg"
   xmlns:svg="http://www.w3.org/2000/svg"
   xmlns:rdf="http://www.w3.org/1999/02/22-rdf-syntax-ns#"
   xmlns:cc="http://creativecommons.org/ns#"><sodipodi:namedview
     id="namedview1"
     pagecolor="#ffffff"
     bordercolor="#999999"
     borderopacity="1"
     inkscape:showpageshadow="2"
     inkscape:pageopacity="0"
     inkscape:pagecheckerboard="0"
     inkscape:deskcolor="#d1d1d1"
     inkscape:document-units="px"
     inkscape:zoom="0.5"
     inkscape:cx="571"
     inkscape:cy="524"
     inkscape:window-width="1216"
     inkscape:window-height="1027"
     inkscape:window-x="0"
     inkscape:window-y="0"
     inkscape:window-maximized="0"
     inkscape:current-layer="svg1"
     showgrid="true"><inkscape:grid
       id="grid1"
       units="px"
       originx="0"
       originy="0"
       spacingx="10"
       spacingy="10"
       empcolor="#e05050"
       empopacity="0.302"
       color="#505050"
       opacity="0.07843137"
       empspacing="10"
       enabled="true"
       visible="true" /></sodipodi:namedview><defs
     id="defs1" /><g
     inkscape:label="glyph"
     inkscape:groupmode="layer"
     id="layer1"
     style="display:inline;fill:#dd2131;fill-opacity:0.302;stroke:none"><path
       id="path11"
       style="baseline-shift:baseline;display:inline;overflow:visible;opacity:1;vector-effect:none;fill:#dd2131;enable-background:accumulate;stop-color:#000000;stop-opacity:1;fill-opacity:0.302"
       d="m 261,60 c -44,-0.2 -89,7.6 -132,24 l 28,75 c 121,-46 257,-7 335,97 77,103 78,244 0,348 -77,103 -213,143 -334,97 l -28,75 c 42,16 86,24 130,24 147,0 293,0 440,0 v 180 h 80 V 800 h 90 V 720 H 780 V 580 H 700 V 720 H 490 c 24,-19 47,-42 66,-68 99,-132 98,-313 0,-445 C 484,113 375,60.5 261,60 Z"
       sodipodi:nodetypes="sccssccscccccccccccsss"
       inkscape:label="jupiter-v3" /></g><g
     inkscape:groupmode="layer"
     id="layer4"
     inkscape:label="archive"
     style="display:inline;fill:#ddb225;fill-opacity:0.302"><path
       id="path5"
       style="baseline-shift:baseline;display:none;overflow:visible;opacity:1;vector-effect:none;fill:#dd2133;fill-opacity:0.302;stroke:none;enable-background:accumulate;stop-color:#000000;stop-opacity:1"
       d="m 227,60 c -34,0.3 -67,5.1 -100,14.7 l 22,76.3 c 119,-34 246,10 317,111 72,100 72,235 1,335 -66,93 -184,147 -317,112 l -22,77 c 34,10 68,14 102,14 157,0 313,0 470,0 v 180 h 80 V 800 h 90 V 720 H 780 V 69.9 H 700 V 720 H 460 c 27,-21 51,-47 72,-76 C 623,515 623,343 531,215 460,115 345,59 227,60 Z"
       sodipodi:nodetypes="sccssccscccccccccccsss"
       inkscape:label="jupiter-v1" /><path
       id="path8"
       style="baseline-shift:baseline;display:none;overflow:visible;opacity:1;vector-effect:none;fill:#dd2132;fill-opacity:0.302;stroke:none;enable-background:accumulate;stop-color:#000000;stop-opacity:1"
       d="m 227,60 c -34,0.3 -67,5.1 -100,14.7 l 22,76.3 c 119,-34 246,10 317,111 72,100 72,235 1,335 -53,75 -137,120 -226,123 -31,1 -61,-3 -91,-11 l -22,77 c 34,10 68,14 102,14 157,0 313,0 470,0 v 180 h 80 V 800 h 90 V 720 H 780 V 600 H 700 V 720 H 460 c 27,-21 51,-47 72,-76 C 623,515 623,343 531,215 460,115 345,59 227,60 Z"
       sodipodi:nodetypes="sccsssccscccccccccccsss"
       inkscape:label="jupiter-v2" /></g><g
     inkscape:label="construction"
     inkscape:groupmode="layer"
     id="layer2"
     style="display:none;fill:none;stroke:#157fd9;stroke-opacity:0.302"><path
       style="fill:none;fill-opacity:0.3;stroke:#157fd9;stroke-width:80;stroke-dasharray:none;stroke-opacity:0.302"
       d="M 740,580 V 980"
       id="path2"
       sodipodi:nodetypes="cc" /><path
       style="fill:none;fill-opacity:0.3;stroke:#157fd9;stroke-width:80;stroke-dasharray:none;stroke-opacity:0.302"
       d="M 260,760 H 870"
       id="path3"
       sodipodi:nodetypes="cc" /><path
       style="display:inline;fill:none;fill-opacity:0.303;stroke:#2c5eaa;stroke-width:80;stroke-dasharray:none;stroke-opacity:0.4"
       id="path1"
       sodipodi:type="arc"
       sodipodi:cx="260"
       sodipodi:cy="430"
       sodipodi:rx="330"
       sodipodi:ry="330"
       sodipodi:start="4.35"
       sodipodi:end="1.93"
       sodipodi:open="true"
       sodipodi:arc-type="arc"
       d="m 144,121 a 330,330 0 0 1 380,111 330,330 0 0 1 0,396 330,330 0 0 1 -380,111" /></g><g
     inkscape:groupmode="layer"
     id="layer3"
     inkscape:label="ref"
     inkscape:highlight-color="#ff5338"
     style="display:none;fill:#505050;fill-opacity:0.3"><path
       id="path18"
       style="baseline-shift:baseline;display:inline;overflow:visible;opacity:1;vector-effect:none;fill:#505050;fill-opacity:0.3;stroke:none;enable-background:accumulate;stop-color:#000000;stop-opacity:1"
       d="M 300,70 V 200 H 180 v 80 h 120 v 349 c 0,74 35,147 95,192 l 48,-64 c -49,-40 -66,-87 -61,-149 9,-63 53,-115 116,-132 69,-19 142,10 179,71 37,62 30,140 -19,192 -43,43 -53,91 -36,149 20,55 72,92 131,92 h 87 v -80 h -87 c -26,1 -47,-15 -56,-39 -9,-24 -1,-51 18,-67 74,-79 86,-196 30,-288 -45,-75 -126,-118 -210,-116 -19,0 -39,3 -58,9 -37,10 -70,28 -97,52 V 280 H 600 V 200 H 380 V 70 Z"
       sodipodi:nodetypes="cccccsccssssssccssssssccccccc"
       inkscape:label="saturn-v4"
       sodipodi:insensitive="true" /><path
       id="circle2"
       style="baseline-shift:baseline;display:inline;overflow:visible;vector-effect:none;fill:#505050;fill-opacity:0.3;enable-background:accumulate;stop-color:#000000"
       d="M 500,60 C 296,60 130,226 130,430 130,634 296,800 500,800 704,800 870,634 870,430 870,226 704,60 500,60 Z m 0,80 C 661,140 790,269 790,430 790,591 661,720 500,720 339,720 210,591 210,430 210,269 339,140 500,140 Z m 0,210 a 80.4,80.4 0 0 0 -80,80 80.4,80.4 0 0 0 80,80 80.4,80.4 0 0 0 80,-80 80.4,80.4 0 0 0 -80,-80 z"
       inkscape:label="sun-v1" /></g><metadata
     id="metadata1"><rdf:RDF><cc:Work
         rdf:about=""><cc:license
           rdf:resource="http://scripts.sil.org/OFL" /></cc:Work><cc:License
         rdf:about="http://scripts.sil.org/OFL"><cc:permits
           rdf:resource="http://scripts.sil.org/pub/OFL/Reproduction" /><cc:permits
           rdf:resource="http://scripts.sil.org/pub/OFL/Distribution" /><cc:permits
           rdf:resource="http://scripts.sil.org/pub/OFL/Embedding" /><cc:permits
           rdf:resource="http://scripts.sil.org/pub/OFL/DerivativeWorks" /><cc:requires
           rdf:resource="http://scripts.sil.org/pub/OFL/Notice" /><cc:requires
           rdf:resource="http://scripts.sil.org/pub/OFL/Attribution" /><cc:requires
           rdf:resource="http://scripts.sil.org/pub/OFL/ShareAlike" /><cc:requires
           rdf:resource="http://scripts.sil.org/pub/OFL/DerivativeRenaming" /><cc:requires
           rdf:resource="http://scripts.sil.org/pub/OFL/BundlingWhenSelling" /></cc:License></rdf:RDF></metadata><image
     preserveAspectRatio="none"
     inkscape:svg-dpi="96"
     width="1000"
     height="1000"
     xlink:href="../templates/guidelines.svg"
     id="image1"
     x="0"
     y="0"
     inkscape:label="guidelines"
     sodipodi:insensitive="true"
     style="display:inline;mix-blend-mode:normal" /></svg>
