<?xml version="1.0" encoding="UTF-8" standalone="no"?>
<!-- Created with Inkscape (http://www.inkscape.org/) -->

<svg
   width="1000"
   height="1000"
   viewBox="0 0 1000 1000"
   version="1.1"
   id="svg1"
   inkscape:version="1.4.3 (0d15f75042, 2025-12-25)"
   sodipodi:docname="leo.svg"
   xml:space="preserve"
   xmlns:inkscape="http://www.inkscape.org/namespaces/inkscape"
   xmlns:sodipodi="http://sodipodi.sourceforge.net/DTD/sodipodi-0.dtd"
   xmlns:xlink="http://www.w3.org/1999/xlink"
   xmlns="http://www.w3.org/2000/svg"
   xmlns:svg="http://www.w3.org/2000/svg"
   xmlns:rdf="http://www.w3.org/1999/02/22-rdf-syntax-ns#"
   xmlns:cc="http://creativecommons.org/ns#"><sodipodi:namedview
     id="namedview1"
     pagecolor="#ffffff"
     bordercolor="#999999"
     borderopacity="1"
     inkscape:showpageshadow="2"
     inkscape:pageopacity="0"
     inkscape:pagecheckerboard="0"
     inkscape:deskcolor="#d1d1d1"
     inkscape:document-units="px"
     inkscape:zoom="0.566"
     inkscape:cx="635"
     inkscape:cy="336"
     inkscape:window-width="1216"
     inkscape:window-height="1027"
     inkscape:window-x="0"
     inkscape:window-y="0"
     inkscape:window-maximized="0"
     inkscape:current-layer="layer3"
     showgrid="true"
     showguides="true"
     inkscape:lockguides="true"><inkscape:grid
       id="grid1"
       units="px"
       originx="0"
       originy="0"
       spacingx="10"
       spacingy="10"
       empcolor="#e05050"
       empopacity="0.302"
       color="#505050"
       opacity="0.07843137"
       empspacing="10"
       enabled="true"
       visible="true" /><sodipodi:guide
       position="0,565"
       orientation="0,1"
       id="guide1"
       inkscape:locked="true"
       inkscape:label="center"
       inkscape:color="rgb(129,61,156)" /></sodipodi:namedview><defs
     id="defs1"><inkscape:path-effect
       effect="powerstroke"
       message=""
       id="path-effect23"
       is_visible="true"
       lpeversion="1.3"
       scale_width="1"
       interpolator_type="SpiroInterpolator"
       interpolator_beta="0.2"
       start_linecap_type="zerowidth"
       end_linecap_type="zerowidth"
       offset_points="0,26.6 | 5.5,40 | 11.9,27.7"
       linejoin_type="round"
       miter_limit="4"
       not_jump="false"
       sort_points="true" /><inkscape:path-effect
       effect="powerstroke"
       message=""
       id="path-effect21"
       is_visible="true"
       lpeversion="1.3"
       scale_width="1"
       interpolator_type="SpiroInterpolator"
       interpolator_beta="0.2"
       start_linecap_type="zerowidth"
       end_linecap_type="zerowidth"
       offset_points="0,26.6 | 5.5,40 | 11.9,27.7"
       linejoin_type="round"
       miter_limit="4"
       not_jump="false"
       sort_points="true" /><inkscape:path-effect
       effect="mirror_symmetry"
       start_point="500,419"
       end_point="500,807"
       center_point="500,613"
       id="path-effect33"
       is_visible="true"
       lpeversion="1.2"
       lpesatellites=""
       mode="free"
       discard_orig_path="true"
       fuse_paths="false"
       oposite_fuse="false"
       split_items="false"
       split_open="false"
       link_styles="false" /><inkscape:path-effect
       effect="mirror_symmetry"
       start_point="170,435"
       end_point="828,435"
       center_point="499,435"
       id="path-effect31"
       is_visible="true"
       lpeversion="1.2"
       lpesatellites="#path30"
       mode="free"
       discard_orig_path="false"
       fuse_paths="false"
       oposite_fuse="false"
       split_items="true"
       split_open="false"
       link_styles="false" /><inkscape:path-effect
       effect="mirror_symmetry"
       start_point="500,419"
       end_point="500,807"
       center_point="500,613"
       id="path-effect25"
       is_visible="true"
       lpeversion="1.2"
       lpesatellites=""
       mode="free"
       discard_orig_path="true"
       fuse_paths="false"
       oposite_fuse="false"
       split_items="false"
       split_open="false"
       link_styles="false" /><inkscape:path-effect
       effect="mirror_symmetry"
       start_point="500,419"
       end_point="500,807"
       center_point="500,613"
       id="path-effect20"
       is_visible="true"
       lpeversion="1.2"
       lpesatellites=""
       mode="free"
       discard_orig_path="true"
       fuse_paths="false"
       oposite_fuse="false"
       split_items="false"
       split_open="false"
       link_styles="false" /><inkscape:path-effect
       effect="mirror_symmetry"
       start_point="170,435"
       end_point="828,435"
       center_point="499,435"
       id="path-effect18"
       is_visible="true"
       lpeversion="1.2"
       lpesatellites="#path9"
       mode="free"
       discard_orig_path="false"
       fuse_paths="false"
       oposite_fuse="false"
       split_items="true"
       split_open="false"
       link_styles="false" /><inkscape:path-effect
       effect="mirror_symmetry"
       start_point="500,419"
       end_point="500,807"
       center_point="500,613"
       id="path-effect16"
       is_visible="true"
       lpeversion="1.2"
       lpesatellites=""
       mode="free"
       discard_orig_path="true"
       fuse_paths="false"
       oposite_fuse="false"
       split_items="false"
       split_open="false"
       link_styles="false" /><inkscape:path-effect
       effect="mirror_symmetry"
       start_point="170,435"
       end_point="828,435"
       center_point="499,435"
       id="path-effect15"
       is_visible="true"
       lpeversion="1.2"
       lpesatellites="#path15"
       mode="free"
       discard_orig_path="false"
       fuse_paths="false"
       oposite_fuse="false"
       split_items="true"
       split_open="false"
       link_styles="false" /><inkscape:path-effect
       effect="mirror_symmetry"
       start_point="203,604"
       end_point="808,604"
       center_point="506,604"
       id="path-effect14"
       is_visible="true"
       lpeversion="1.2"
       lpesatellites=""
       mode="free"
       discard_orig_path="false"
       fuse_paths="false"
       oposite_fuse="false"
       split_items="false"
       split_open="false"
       link_styles="false" /><inkscape:path-effect
       effect="mirror_symmetry"
       start_point="505,397"
       end_point="505,810"
       center_point="505,604"
       id="path-effect13"
       is_visible="true"
       lpeversion="1.2"
       lpesatellites=""
       mode="free"
       discard_orig_path="true"
       fuse_paths="false"
       oposite_fuse="false"
       split_items="false"
       split_open="false"
       link_styles="false" /><inkscape:path-effect
       effect="mirror_symmetry"
       start_point="808,59.6"
       end_point="808,810"
       center_point="808,435"
       id="path-effect12"
       is_visible="true"
       lpeversion="1.2"
       lpesatellites=""
       mode="free"
       discard_orig_path="false"
       fuse_paths="false"
       oposite_fuse="false"
       split_items="false"
       split_open="false"
       link_styles="false" /><inkscape:path-effect
       effect="mirror_symmetry"
       start_point="185,435"
       end_point="808,435"
       center_point="496,435"
       id="path-effect11"
       is_visible="true"
       lpeversion="1.2"
       lpesatellites=""
       mode="free"
       discard_orig_path="false"
       fuse_paths="false"
       oposite_fuse="false"
       split_items="true"
       split_open="false"
       link_styles="false" /><inkscape:path-effect
       effect="mirror_symmetry"
       start_point="0,440"
       end_point="1000,440"
       center_point="500,440"
       id="path-effect17"
       is_visible="true"
       lpeversion="1.2"
       lpesatellites=""
       mode="free"
       discard_orig_path="false"
       fuse_paths="false"
       oposite_fuse="false"
       split_items="false"
       split_open="false"
       link_styles="false" /><inkscape:path-effect
       effect="mirror_symmetry"
       start_point="0,435"
       end_point="1000,435"
       center_point="500,435"
       id="path-effect10"
       is_visible="true"
       lpeversion="1.2"
       lpesatellites=""
       mode="free"
       discard_orig_path="false"
       fuse_paths="false"
       oposite_fuse="false"
       split_items="false"
       split_open="false"
       link_styles="false" /><inkscape:path-effect
       effect="mirror_symmetry"
       start_point="0,440"
       end_point="1000,440"
       center_point="500,440"
       id="path-effect6"
       is_visible="true"
       lpeversion="1.2"
       lpesatellites=""
       mode="free"
       discard_orig_path="false"
       fuse_paths="false"
       oposite_fuse="false"
       split_items="false"
       split_open="false"
       link_styles="false" /></defs><g
     inkscape:label="glyph"
     inkscape:groupmode="layer"
     id="layer1"
     style="display:inline;fill:#d43f50;fill-opacity:0.3"><path
       id="path23"
       style="display:inline;fill:#d43f50;fill-opacity:0.3;fill-rule:nonzero;stroke:none;stroke-width:79.968;stroke-opacity:0.3"
       inkscape:label="leo-v1"
       d="M 594,55.6 C 514,50.7 435,88.1 383,149 c -67,74 -93,197 -92,275 0,46 11,71 14,84 -96,-21 -183,52 -185,140 -7,89 77,172 166,162 92,-4 170,-102 144,-192 -17,-44 -42,-84 -49,-131 -24,-111 0,-243 95,-315 57,-48 161,-53 209,1 48,54 47,126 45,191 -14,140 -87,263 -132,393 -23,60 -23,138 32,182 63,56 175,38 215,-38 16,-30 21,-71 15,-101 h -52 c 5,42 -11,91 -55,105 C 704,923 642,880 653,825 670,737 719,659 749,574 792,463 825,340 791,223 777,163 745,102 685,78.6 656,66.3 625,57 594,55.6 Z M 279,564 c 26,-1 38,9 49,16 5,11 13,29 21,43 9,12 8,26 9,36 -3,58 -67,97 -124,69 -57,-28 -62,-111 -12,-146 16,-12 37,-17 57,-18 z"
       sodipodi:nodetypes="ssscssssszssssccsssssscccczsc" /></g><g
     inkscape:groupmode="layer"
     id="layer4"
     inkscape:label="archive"
     style="display:inline" /><g
     inkscape:label="construction"
     inkscape:groupmode="layer"
     id="layer2"
     style="display:none;fill:#005cb5;fill-opacity:0.299;stroke:#28abe5;stroke-opacity:0.3"><path
       id="circle20"
       style="display:none;fill:none;fill-opacity:0.2;stroke:#38a0e4;stroke-width:79.968"
       d="m 840,800 v 30 c 0,46 -28,86 -70,103 -43,17 -91,5 -122,-29 -89,-97 89,-279 122,-524 9,-63 -3,-143 -30,-200 -21,-45 -50,-64 -110,-80 -36,-9.8 -107,-6.6 -160,30 -78,55 -119,135 -130,230 -9,83 8,175 49,247 30,54 2,125 -56,154 -58,30 -129,7 -160,-50 -31,-57 -10,-129 46,-161 56,-32 128,-14 162,41"
       sodipodi:nodetypes="ccsssssssssssc"
       inkscape:label="_stroke"
       sodipodi:insensitive="true" /><path
       id="path21"
       style="fill:#38a0e4;fill-opacity:0.2;fill-rule:nonzero;stroke:none;stroke-width:79.968"
       d="m 840,800 -27,1 c 1,15 0,27 -2,38 -2,11 -4,20 -8,28 -4,7 -9,14 -16,20 -7,6 -16,12 -29,18 -15,5 -31,5 -46,1 -15,-4 -28,-13 -39,-25 a 0.086,6.44e-4 48 0 0 0,0 c -4,-4 -6,-8 -8,-12 -3,-4 -4,-9 -5,-13 -2,-10 -3,-21 -1,-36 2,-14 7,-30 13,-49 6,-18 15,-38 24,-60 18,-42 42,-93 62,-147 21,-54 39,-114 48,-179 l 0,0 c 6,-35 5,-75 0,-113 -6,-38 -16,-76 -31,-108 l 0,0 C 769,150 762,138 753,127 744,115 734,106 722,97.2 711,88.8 698,82.1 685,76.4 671,70.8 656,66 640,61.6 l 0,0.1 c -12,-3.5 -26,-5.5 -41,-6.1 -15,-0.7 -31,0 -48,2.4 -34,4.7 -71,16.4 -104,39 a 0.398,6.69 51.7 0 0 0,0.2 C 403,128 369,167 345,211 c -24,44 -39,93 -45,144 a 7.1e-4,0.366 6.51 0 0 0,1 c -4,45 -2,93 7,139 9,46 25,91 48,131 l 0,0 c 5,8 7,16 8,26 0,9 -1,18 -5,28 -7,20 -21,37 -42,48 a 0.002,0.358 62.7 0 0 0,0 c -10,5 -20,9 -31,10 -10,1 -21,-1 -31,-4 -11,-3 -20,-7 -29,-14 -8,-7 -16,-15 -22,-25 -5,-10 -9,-21 -10,-32 -2,-11 -1,-22 2,-33 3,-10 8,-21 14,-30 7,-9 15,-17 26,-23 10,-6 21,-10 32,-12 11,-2 23,-1 34,1 11,3 22,7 32,14 5,4 11,8 16,14 10,-3 21,-4 32,-3 4,-10 8,-22 10,-33 -8,-9 -16,-17 -25,-24 -15,-11 -33,-20 -51,-25 -18,-4 -37,-6 -56,-4 -19,2 -38,8 -56,18 -17,10 -33,23 -45,38 -12,15 -21,33 -26,51 -6,18 -8,38 -6,58 1,19 7,39 17,57 9,19 22,35 38,47 15,13 32,23 51,29 19,6 39,9 59,7 20,-1 40,-6 59,-16 l 0,0 c 37,-18 66,-51 80,-87 7,-19 10,-39 9,-59 0,-20 -6,-41 -16,-60 a 0.462,4.74e-4 60.7 0 0 0,0 c -18,-32 -31,-69 -39,-108 -7,-39 -9,-78 -4,-115 5,-44 16,-82 35,-116 18,-33 44,-62 78,-86 20,-14 45,-22 69,-26 12,-2 24,-2 34,-2 10,1 18,2 24,3 a 0.147,5.96e-4 14.8 0 0 0,0 c 14,4 25,8 35,11 9,4 16,8 22,12 6,4 10,8 15,14 4,5 9,12 13,21 a 0.157,8.52e-4 64.5 0 0 0,0 c 12,25 21,55 26,87 5,32 6,64 3,92 a 8.61e-4,0.208 7.66 0 0 0,0 c -8,58 -24,112 -43,164 -20,52 -41,99 -60,145 -10,22 -18,44 -25,65 -7,21 -13,42 -16,62 -2,20 -2,41 3,61 2,10 6,20 11,29 5,9 11,18 19,26 l 0,0 c 20,22 46,36 74,42 28,6 57,4 84,-7 a 0.029,2.4 67.4 0 0 2,-1 c 18,-9 33,-19 45,-31 12,-11 21,-25 27,-39 6,-15 10,-30 11,-45 2,-15 1,-31 1,-47 z"
       sodipodi:nodetypes="csssssssssssc"
       inkscape:label="_stroke-calli"
       inkscape:path-effect="#path-effect21"
       inkscape:original-d="m 840,800 c 2,62 -8,104 -70,133 -43,17 -91,5 -122,-29 -89,-97 89,-279 122,-524 9,-63 -3,-143 -30,-200 -21,-45 -50,-64 -110,-80 -36,-9.8 -107,-6.6 -160,30 -78,55 -119,135 -130,230 -9,83 8,175 49,247 30,54 2,125 -56,154 -58,30 -129,7 -160,-50 -31,-57 -10,-129 46,-161 56,-32 128,-14 162,41"
       transform="translate(-5)" /><path
       id="path22"
       style="display:inline;fill:#e4f512;fill-opacity:0.2;fill-rule:nonzero;stroke:none;stroke-width:79.968;stroke-dasharray:none;stroke-opacity:0.3"
       inkscape:label="path-calli-origin"
       d="m 599,55.6 c -15,-0.7 -31,0 -48,2.4 -34,4.7 -71,16.4 -104,39 v 0.2 C 403,128 369,167 345,211 c -30,53 -43,125 -48,174 -5,42 3,83 13,123 -17,-4 -34,-5 -51,-3 -19,2 -38,8 -55,18 -18,10 -34,23 -46,38 -12,15 -21,33 -26,51 -6,18 -8,38 -6,58 1,19 7,39 17,57 9,19 22,35 38,47 15,13 32,23 51,29 19,6 39,9 59,7 20,-1 40,-6 59,-16 37,-19 66,-51 80,-87 7,-19 10,-39 9,-59 0,-20 -6,-41 -16,-60 -18,-32 -31,-69 -39,-108 -7,-39 -9,-78 -4,-115 5,-44 16,-82 35,-116 18,-33 44,-62 78,-86 20,-14 45,-22 69,-26 12,-2 24,-2 34,-2 20,2 54,8 81,26 37,25 51,105 54,122 5,32 6,64 3,92 -8,58 -24,112 -43,164 -20,52 -41,99 -60,145 -10,22 -18,44 -25,65 -7,21 -13,42 -16,62 -2,20 -2,41 3,61 2,10 6,20 11,29 5,9 11,18 19,26 20,22 46,36 74,42 28,6 69,-1 84,-7 15,-6 35,-20 47,-32 12,-11 21,-25 27,-39 6,-15 10,-30 11,-45 2,-15 1,-30 1,-46 h -54 c 1,15 0,28 -2,39 -2,11 -4,20 -8,28 -4,7 -9,14 -16,20 -7,6 -16,12 -29,18 -15,5 -31,5 -46,1 -15,-4 -28,-13 -39,-25 -18,-18 -16,-49 -14,-61 2,-14 7,-30 13,-49 6,-18 15,-38 24,-60 18,-42 42,-93 62,-147 21,-54 39,-114 48,-179 v 0 0 0 c 6,-35 5,-75 0,-113 -6,-38 -16,-76 -31,-108 -6,-14 -13,-26 -22,-37 C 744,115 734,106 722,97.2 711,88.8 698,82.1 685,76.4 652,63.2 624,56.6 599,55.6 Z M 284,564 c 6,0 11,1 17,2 11,3 22,7 32,14 6,16 14,31 21,43 6,11 8,19 9,29 0,9 -1,18 -5,28 -7,20 -21,37 -36,45 -16,8 -26,12 -37,13 -10,1 -21,-1 -31,-4 -11,-3 -20,-7 -29,-14 -8,-7 -16,-15 -22,-25 -5,-10 -9,-21 -10,-32 -2,-11 -1,-22 2,-33 3,-10 8,-21 14,-30 7,-9 15,-17 25,-23 11,-6 22,-10 33,-12 6,-1 11,-1 17,-1 z"
       sodipodi:nodetypes="ssssszcsssssssssssssssssssssssssssssszsssccsssssssssssccssssssssccccscssscssssss"
       transform="translate(-5)" /></g><g
     inkscape:groupmode="layer"
     id="layer3"
     inkscape:label="ref"
     inkscape:highlight-color="#ff5338"
     style="display:inline;fill:#505050;fill-opacity:0.2"><path
       id="path8"
       style="baseline-shift:baseline;display:none;overflow:visible;opacity:1;vector-effect:none;fill:#505050;fill-opacity:0.2;enable-background:accumulate;stop-color:#000000;stop-opacity:1"
       inkscape:label="aries-v1"
       d="m 316,63 c -66,3.6 -119,57 -127,120 -6,47 -4,117 40,187 h 61 c -50,-90 -39,-133 -30,-170 10,-38 33,-57 60,-60 27,-3 51,5 69,24 18,19 33,50 42,85 29,182 27,367 34,551 h 70 c 7,-184 5,-369 34,-551 9,-35 24,-66 42,-85 18,-19 42,-27 69,-24 27,3 50,22 60,60 9,37 20,80 -30,170 h 61 C 815,300 817,230 811,183 803,120 749,67.4 684,63.7 620,60 584,85.6 564,105 535,134 517,175 500,240 483,175 465,134 436,105 418,88 380,59.6 316,63 Z"
       sodipodi:nodetypes="ssccssssccssssccssscss"
       sodipodi:insensitive="true" /><path
       id="path24"
       style="baseline-shift:baseline;display:none;overflow:visible;vector-effect:none;fill:#505050;fill-opacity:0.2;stroke:none;stroke-width:1.00433;stroke-opacity:1;enable-background:accumulate;stop-color:#000000"
       d="m 464,63 c -154,7 -275,110 -291,206 -3,21 -7,101 67,153 18,13 38,21 59,25 63,14 132,-9 173,-65 46,-65 33,-160 -41,-202 -17,-10 -21,-10 -46,-17 48,-24 97,-34 162,-27 116,20 173,54 223,134 h 60 C 777,180 713,112 575,75 537,65 499,62 464,63 Z M 341,218 c 4,0 9,0 14,1 47,8 77,49 68,93 -8,45 -52,73 -99,65 -47,-8 -77,-49 -69,-94 3,-10 20,-66 86,-65 z m 312,201 c -48,4 -94,27 -125,69 -46,65 -33,160 41,202 17,10 21,10 46,17 -48,24 -97,34 -162,27 C 337,714 280,680 230,600 h -60 c 53,90 117,158 255,195 204,53 382,-76 402,-194 3,-21 7,-101 -67,-153 -18,-13 -38,-21 -59,-25 -16,-3 -32,-5 -48,-4 z m 6,73 c 5,0 11,0 17,1 47,8 77,49 69,94 -3,11 -22,74 -100,64 -47,-8 -77,-49 -68,-93 7,-39 42,-66 82,-66 z"
       inkscape:label="cancer-v1"
       sodipodi:insensitive="true" /></g><metadata
     id="metadata1"><rdf:RDF><cc:Work
         rdf:about=""><cc:license
           rdf:resource="http://scripts.sil.org/OFL" /></cc:Work><cc:License
         rdf:about="http://scripts.sil.org/OFL"><cc:permits
           rdf:resource="http://scripts.sil.org/pub/OFL/Reproduction" /><cc:permits
           rdf:resource="http://scripts.sil.org/pub/OFL/Distribution" /><cc:permits
           rdf:resource="http://scripts.sil.org/pub/OFL/Embedding" /><cc:permits
           rdf:resource="http://scripts.sil.org/pub/OFL/DerivativeWorks" /><cc:requires
           rdf:resource="http://scripts.sil.org/pub/OFL/Notice" /><cc:requires
           rdf:resource="http://scripts.sil.org/pub/OFL/Attribution" /><cc:requires
           rdf:resource="http://scripts.sil.org/pub/OFL/ShareAlike" /><cc:requires
           rdf:resource="http://scripts.sil.org/pub/OFL/DerivativeRenaming" /><cc:requires
           rdf:resource="http://scripts.sil.org/pub/OFL/BundlingWhenSelling" /></cc:License></rdf:RDF></metadata><image
     preserveAspectRatio="none"
     inkscape:svg-dpi="96"
     width="1000"
     height="1000"
     xlink:href="../templates/guidelines.svg"
     id="image1"
     x="0"
     y="0"
     inkscape:label="guidelines"
     sodipodi:insensitive="true"
     style="display:inline;mix-blend-mode:normal" /></svg>
