<?xml version="1.0" encoding="UTF-8" standalone="no"?>
<!-- Created with Inkscape (http://www.inkscape.org/) -->

<svg
   width="1000"
   height="1000"
   viewBox="0 0 1000 1000"
   version="1.1"
   id="svg1"
   inkscape:version="1.4.3 (0d15f75042, 2025-12-25)"
   sodipodi:docname="libra.svg"
   xml:space="preserve"
   xmlns:inkscape="http://www.inkscape.org/namespaces/inkscape"
   xmlns:sodipodi="http://sodipodi.sourceforge.net/DTD/sodipodi-0.dtd"
   xmlns:xlink="http://www.w3.org/1999/xlink"
   xmlns="http://www.w3.org/2000/svg"
   xmlns:svg="http://www.w3.org/2000/svg"
   xmlns:rdf="http://www.w3.org/1999/02/22-rdf-syntax-ns#"
   xmlns:cc="http://creativecommons.org/ns#"><sodipodi:namedview
     id="namedview1"
     pagecolor="#ffffff"
     bordercolor="#999999"
     borderopacity="1"
     inkscape:showpageshadow="2"
     inkscape:pageopacity="0"
     inkscape:pagecheckerboard="0"
     inkscape:deskcolor="#d1d1d1"
     inkscape:document-units="px"
     inkscape:zoom="0.566"
     inkscape:cx="289"
     inkscape:cy="368"
     inkscape:window-width="1920"
     inkscape:window-height="1080"
     inkscape:window-x="0"
     inkscape:window-y="0"
     inkscape:window-maximized="0"
     inkscape:current-layer="layer4"
     showgrid="true"
     showguides="true"
     inkscape:lockguides="true"><inkscape:grid
       id="grid1"
       units="px"
       originx="0"
       originy="0"
       spacingx="10"
       spacingy="10"
       empcolor="#e05050"
       empopacity="0.302"
       color="#505050"
       opacity="0.07843137"
       empspacing="10"
       enabled="true"
       visible="true" /><sodipodi:guide
       position="0,565"
       orientation="0,1"
       id="guide1"
       inkscape:locked="true"
       inkscape:label="center"
       inkscape:color="rgb(129,61,156)" /></sodipodi:namedview><defs
     id="defs1"><inkscape:path-effect
       effect="powerstroke"
       message=""
       id="path-effect26"
       is_visible="true"
       lpeversion="1.3"
       scale_width="1"
       interpolator_type="SpiroInterpolator"
       interpolator_beta="0.2"
       start_linecap_type="zerowidth"
       end_linecap_type="zerowidth"
       offset_points="0,40 | 4,33.8 | 8,40"
       linejoin_type="miter"
       miter_limit="4"
       not_jump="false"
       sort_points="true" /><inkscape:path-effect
       effect="powerstroke"
       message=""
       id="path-effect19"
       is_visible="true"
       lpeversion="1.3"
       scale_width="1"
       interpolator_type="SpiroInterpolator"
       interpolator_beta="0.2"
       start_linecap_type="zerowidth"
       end_linecap_type="zerowidth"
       offset_points="0,40 | 4,33.8 | 8,40"
       linejoin_type="miter"
       miter_limit="4"
       not_jump="false"
       sort_points="true" /><inkscape:path-effect
       effect="powerstroke"
       message=""
       id="path-effect22"
       is_visible="true"
       lpeversion="1.3"
       scale_width="1"
       interpolator_type="SpiroInterpolator"
       interpolator_beta="0.2"
       start_linecap_type="zerowidth"
       end_linecap_type="zerowidth"
       offset_points="0,45 | 2,26.8 | 4,44.5"
       linejoin_type="round"
       miter_limit="4"
       not_jump="false"
       sort_points="true" /><inkscape:path-effect
       effect="powerstroke"
       message=""
       id="path-effect7"
       is_visible="true"
       lpeversion="1.3"
       scale_width="1"
       interpolator_type="SpiroInterpolator"
       interpolator_beta="0.2"
       start_linecap_type="zerowidth"
       end_linecap_type="zerowidth"
       offset_points="0,39.5 | 2,40.2 | 4,41.1"
       linejoin_type="round"
       miter_limit="4"
       not_jump="false"
       sort_points="true" /><inkscape:path-effect
       effect="powerstroke"
       message=""
       id="path-effect23"
       is_visible="true"
       lpeversion="1.3"
       scale_width="1"
       interpolator_type="SpiroInterpolator"
       interpolator_beta="0.2"
       start_linecap_type="zerowidth"
       end_linecap_type="zerowidth"
       offset_points="0,26.6 | 5.5,40 | 11.9,27.7"
       linejoin_type="round"
       miter_limit="4"
       not_jump="false"
       sort_points="true" /><inkscape:path-effect
       effect="powerstroke"
       message=""
       id="path-effect21"
       is_visible="true"
       lpeversion="1.3"
       scale_width="1"
       interpolator_type="SpiroInterpolator"
       interpolator_beta="0.2"
       start_linecap_type="zerowidth"
       end_linecap_type="zerowidth"
       offset_points="0,26.6 | 5.5,40 | 11.9,27.7"
       linejoin_type="round"
       miter_limit="4"
       not_jump="false"
       sort_points="true" /><inkscape:path-effect
       effect="mirror_symmetry"
       start_point="500,419"
       end_point="500,807"
       center_point="500,613"
       id="path-effect33"
       is_visible="true"
       lpeversion="1.2"
       lpesatellites=""
       mode="free"
       discard_orig_path="true"
       fuse_paths="false"
       oposite_fuse="false"
       split_items="false"
       split_open="false"
       link_styles="false" /><inkscape:path-effect
       effect="mirror_symmetry"
       start_point="170,435"
       end_point="828,435"
       center_point="499,435"
       id="path-effect31"
       is_visible="true"
       lpeversion="1.2"
       lpesatellites="#path30"
       mode="free"
       discard_orig_path="false"
       fuse_paths="false"
       oposite_fuse="false"
       split_items="true"
       split_open="false"
       link_styles="false" /><inkscape:path-effect
       effect="mirror_symmetry"
       start_point="500,419"
       end_point="500,807"
       center_point="500,613"
       id="path-effect25"
       is_visible="true"
       lpeversion="1.2"
       lpesatellites=""
       mode="free"
       discard_orig_path="true"
       fuse_paths="false"
       oposite_fuse="false"
       split_items="false"
       split_open="false"
       link_styles="false" /><inkscape:path-effect
       effect="mirror_symmetry"
       start_point="500,419"
       end_point="500,807"
       center_point="500,613"
       id="path-effect20"
       is_visible="true"
       lpeversion="1.2"
       lpesatellites=""
       mode="free"
       discard_orig_path="true"
       fuse_paths="false"
       oposite_fuse="false"
       split_items="false"
       split_open="false"
       link_styles="false" /><inkscape:path-effect
       effect="mirror_symmetry"
       start_point="170,435"
       end_point="828,435"
       center_point="499,435"
       id="path-effect18"
       is_visible="true"
       lpeversion="1.2"
       lpesatellites="#path9"
       mode="free"
       discard_orig_path="false"
       fuse_paths="false"
       oposite_fuse="false"
       split_items="true"
       split_open="false"
       link_styles="false" /><inkscape:path-effect
       effect="mirror_symmetry"
       start_point="500,419"
       end_point="500,807"
       center_point="500,613"
       id="path-effect16"
       is_visible="true"
       lpeversion="1.2"
       lpesatellites=""
       mode="free"
       discard_orig_path="true"
       fuse_paths="false"
       oposite_fuse="false"
       split_items="false"
       split_open="false"
       link_styles="false" /><inkscape:path-effect
       effect="mirror_symmetry"
       start_point="170,435"
       end_point="828,435"
       center_point="499,435"
       id="path-effect15"
       is_visible="true"
       lpeversion="1.2"
       lpesatellites="#path15"
       mode="free"
       discard_orig_path="false"
       fuse_paths="false"
       oposite_fuse="false"
       split_items="true"
       split_open="false"
       link_styles="false" /><inkscape:path-effect
       effect="mirror_symmetry"
       start_point="203,604"
       end_point="808,604"
       center_point="506,604"
       id="path-effect14"
       is_visible="true"
       lpeversion="1.2"
       lpesatellites=""
       mode="free"
       discard_orig_path="false"
       fuse_paths="false"
       oposite_fuse="false"
       split_items="false"
       split_open="false"
       link_styles="false" /><inkscape:path-effect
       effect="mirror_symmetry"
       start_point="505,397"
       end_point="505,810"
       center_point="505,604"
       id="path-effect13"
       is_visible="true"
       lpeversion="1.2"
       lpesatellites=""
       mode="free"
       discard_orig_path="true"
       fuse_paths="false"
       oposite_fuse="false"
       split_items="false"
       split_open="false"
       link_styles="false" /><inkscape:path-effect
       effect="mirror_symmetry"
       start_point="808,59.6"
       end_point="808,810"
       center_point="808,435"
       id="path-effect12"
       is_visible="true"
       lpeversion="1.2"
       lpesatellites=""
       mode="free"
       discard_orig_path="false"
       fuse_paths="false"
       oposite_fuse="false"
       split_items="false"
       split_open="false"
       link_styles="false" /><inkscape:path-effect
       effect="mirror_symmetry"
       start_point="185,435"
       end_point="808,435"
       center_point="496,435"
       id="path-effect11"
       is_visible="true"
       lpeversion="1.2"
       lpesatellites=""
       mode="free"
       discard_orig_path="false"
       fuse_paths="false"
       oposite_fuse="false"
       split_items="true"
       split_open="false"
       link_styles="false" /><inkscape:path-effect
       effect="mirror_symmetry"
       start_point="0,440"
       end_point="1000,440"
       center_point="500,440"
       id="path-effect17"
       is_visible="true"
       lpeversion="1.2"
       lpesatellites=""
       mode="free"
       discard_orig_path="false"
       fuse_paths="false"
       oposite_fuse="false"
       split_items="false"
       split_open="false"
       link_styles="false" /><inkscape:path-effect
       effect="mirror_symmetry"
       start_point="0,435"
       end_point="1000,435"
       center_point="500,435"
       id="path-effect10"
       is_visible="true"
       lpeversion="1.2"
       lpesatellites=""
       mode="free"
       discard_orig_path="false"
       fuse_paths="false"
       oposite_fuse="false"
       split_items="false"
       split_open="false"
       link_styles="false" /><inkscape:path-effect
       effect="mirror_symmetry"
       start_point="0,440"
       end_point="1000,440"
       center_point="500,440"
       id="path-effect6"
       is_visible="true"
       lpeversion="1.2"
       lpesatellites=""
       mode="free"
       discard_orig_path="false"
       fuse_paths="false"
       oposite_fuse="false"
       split_items="false"
       split_open="false"
       link_styles="false" /></defs><g
     inkscape:label="glyph"
     inkscape:groupmode="layer"
     id="layer1"
     style="display:inline;fill:#d43f50;fill-opacity:0.3"><path
       id="path27"
       style="baseline-shift:baseline;display:inline;overflow:visible;vector-effect:none;fill:#d43f50;fill-opacity:0.3;enable-background:accumulate;stop-color:#000000"
       d="M 500,32.2 C 336,32.2 211,143 216,270 c 3,83 54,143 108,178 0,0 0,41 -1,72 -57,0 -113,1 -173,0 v 80 c 83,-1 167,0 250,0 -1,-64 1,-130 0,-193 C 361,387 285,341 285,268 280,175 383,99.8 500,99.8 c 117,0 220,75.2 215,168.2 -2,70 -59,107 -115,139 -1,83 2,107 0,193 83,0 167,-1 250,0 v -80 c -58,1 -116,0 -173,0 0,-32 -1,-60 -1,-72 C 714,424 780,365 784,270 789,143 664,32.2 500,32.2 Z M 150,730 v 70 h 700 v -70 z"
       inkscape:label="libra-v4"
       sodipodi:nodetypes="ssccccccsssccccccssccccc" /></g><g
     inkscape:groupmode="layer"
     id="layer4"
     inkscape:label="archive"
     style="display:inline"><path
       id="path9-6"
       style="display:none;fill:#d43f50;fill-opacity:0.3;fill-rule:nonzero;stroke:none;stroke-width:80;stroke-dasharray:none;stroke-opacity:0.3"
       d="M 500,63.5 C 360,63.5 262,151 228,267 190,398 255,499 270,520 H 150 v 80 h 250 v -80 c -30,0 -142,-97 -111,-237 19,-83 91,-163 211,-163 120,0 192,80 211,163 32,141 -80,237 -111,237 v 80 H 850 V 520 H 730 C 761,476 803,381 772,267 737,150 640,63.5 500,63.5 Z M 150,750 v 50 h 700 v -50 z"
       sodipodi:nodetypes="sscccccssscccccssccccc"
       inkscape:label="libra-v1"
       sodipodi:insensitive="true" /><path
       id="path28"
       style="display:none;fill:#d43f50;fill-opacity:0.3;fill-rule:nonzero;stroke:none;stroke-width:80;stroke-dasharray:none;stroke-opacity:0.3"
       d="m 500,60 c -140,0 -238,91 -272,207 -38,131 27,232 42,253 H 150 v 80 h 250 v -80 c -30,0 -141,-97 -110,-237 19,-83 90,-160 210,-160 120,0 191,77 210,160 32,141 -79,237 -110,237 v 80 H 850 V 520 H 730 C 761,476 803,381 772,267 737,150 640,60 500,60 Z M 150,740 v 60 h 700 v -60 z"
       sodipodi:nodetypes="sscccccssscccccssccccc"
       inkscape:label="libra-v2"
       sodipodi:insensitive="true" /><path
       id="path1"
       style="display:none;fill:#d43f50;fill-opacity:0.3;fill-rule:nonzero;stroke:none;stroke-width:80;stroke-dasharray:none;stroke-opacity:0.3"
       d="m 500,60 c -140,0 -240,91 -274,207 -38,131 29,232 44,253 H 150 v 80 h 250 v -80 c -30,0 -141,-97 -110,-237 19,-83 90,-160 210,-160 120,0 191,77 210,160 32,141 -79,237 -110,237 v 80 H 850 V 520 H 730 C 761,476 806,381 775,267 740,150 640,60 500,60 Z M 150,730 v 70 h 700 v -70 z"
       sodipodi:nodetypes="sscccccssscccccssccccc"
       inkscape:label="libra-v3"
       sodipodi:insensitive="true" /><path
       id="path29"
       style="baseline-shift:baseline;display:none;overflow:visible;vector-effect:none;fill:#d43f50;fill-opacity:0.3;enable-background:accumulate;stop-color:#000000"
       d="m 500,40 c -164,0 -289,103 -284,230 3,83 54,143 108,178 0,0 0,41 -1,72 -57,0 -113,1 -173,0 v 80 c 83,-1 167,0 250,0 -1,-64 1,-130 0,-193 C 361,387 285,341 285,268 280,175 383,99.8 500,99.8 c 117,0 220,75.2 215,168.2 -2,70 -59,107 -115,139 -1,83 2,107 0,193 83,0 167,-1 250,0 v -80 c -58,1 -116,0 -173,0 0,-32 -1,-60 -1,-72 C 714,424 780,365 784,270 789,143 664,40 500,40 Z M 150,740 v 60 h 700 v -60 z"
       inkscape:label="libra-v5"
       sodipodi:nodetypes="ssccccccsssccccccssccccc"
       sodipodi:insensitive="true" /></g><g
     inkscape:label="construction"
     inkscape:groupmode="layer"
     id="layer2"
     style="display:none;fill:#005cb5;fill-opacity:0.299;stroke:#28abe5;stroke-opacity:0.3"><path
       style="display:none;fill:none;fill-opacity:0.2;stroke:#38a0e4;stroke-width:80;stroke-dasharray:none;stroke-opacity:0.3"
       id="path5"
       transform="rotate(90)"
       sodipodi:type="arc"
       sodipodi:cx="341"
       sodipodi:cy="-500"
       sodipodi:rx="245"
       sodipodi:ry="245"
       sodipodi:start="0.439"
       sodipodi:end="5.84"
       sodipodi:arc-type="arc"
       d="M 563,-396 A 245,245 0 0 1 288,-261 245,245 0 0 1 96,-499 245,245 0 0 1 287,-739 245,245 0 0 1 562,-605"
       sodipodi:open="true"
       sodipodi:insensitive="true"
       inkscape:label="_path-v1-v3" /><path
       style="display:none;fill:none;fill-opacity:0.2;fill-rule:nonzero;stroke:#38a0e4;stroke-width:80;stroke-dasharray:none;stroke-opacity:0.3"
       id="path6"
       transform="rotate(90)"
       sodipodi:type="arc"
       sodipodi:cx="264"
       sodipodi:cy="-500"
       sodipodi:rx="198"
       sodipodi:ry="250"
       sodipodi:start="0.595"
       sodipodi:end="5.69"
       sodipodi:arc-type="arc"
       sodipodi:open="true"
       d="m 428,-360 a 198,250 0 0 1 -222,99 198,250 0 0 1 -140,-239 198,250 0 0 1 140,-239 198,250 0 0 1 222,99"
       inkscape:label="_ring-v4"
       sodipodi:insensitive="true" /><path
       style="display:none;fill:none;fill-opacity:0.2;stroke:#38a0e4;stroke-width:80;stroke-dasharray:none;stroke-opacity:0.3"
       d="M 150,560 H 360 V 400"
       id="path4"
       sodipodi:nodetypes="ccc"
       inkscape:label="_path4"
       sodipodi:insensitive="true" /><path
       style="display:none;fill:none;fill-opacity:0.2;stroke:#38a0e4;stroke-width:80;stroke-dasharray:none;stroke-opacity:0.3"
       d="M 850,560 H 640 V 400"
       id="path7"
       sodipodi:nodetypes="ccc"
       inkscape:label="_path7"
       sodipodi:insensitive="true" /><path
       style="display:inline;fill:#505050;fill-opacity:0.2;stroke:#38a0e4;stroke-width:70;stroke-dasharray:none;stroke-opacity:0.3"
       d="M 150,765 H 850"
       id="path3"
       sodipodi:nodetypes="cc"
       inkscape:label="base"
       sodipodi:insensitive="true" /><path
       style="fill:#38a0e4;fill-opacity:0.2;fill-rule:nonzero;stroke:none;stroke-width:80;stroke-dasharray:none;stroke-opacity:0.3"
       d="m 150,560 v 40 c 70,-1 140,-2 210,-3 l 38,0 -1,-37 c 0,-44 -1,-88 -2,-132 l 0,-21 -18,-10 c -40,-21 -67,-50 -81,-81 -7,-16 -11,-32 -11,-48 -1,-17 2,-33 8,-50 6,-16 16,-32 29,-46 12,-14 28,-27 46,-38 37,-21 83,-34.2 132,-34.2 49,0 95,13.2 132,34.2 18,11 34,24 46,38 13,14 23,30 29,46 6,17 9,33 8,50 0,16 -4,32 -11,48 -14,31 -41,60 -81,81 l -18,10 0,21 c -1,44 -2,88 -2,132 l -1,37 38,0 c 70,1 140,2 210,3 v -40 -40 c -58,1 -116,2 -173,2 0,1 -1,-37 -1,-74 42,-27 73,-63 91,-104 11,-24 16,-49 17,-74 1,-26 -3,-51 -13,-76 C 761,169 747,146 729,126 711,107 690,89.5 666,75.6 618,47.9 561,32.2 500,32.2 439,32.2 382,47.9 334,75.6 310,89.5 289,107 271,126 c -18,20 -32,43 -42,68 -10,25 -14,50 -13,76 1,25 6,50 17,74 18,41 49,77 91,104 0,11 0,43 -1,74 -57,0 -115,-1 -173,-2 z"
       id="path9"
       sodipodi:nodetypes="cccsssccc"
       inkscape:label="top"
       inkscape:path-effect="#path-effect19"
       inkscape:original-d="M 150,560 H 360 V 428 C 269,379 229,289 261,206 293,123 390,66 500,66 c 110,0 207,57 239,140 32,83 -8,173 -99,222 v 132 h 210"
       sodipodi:insensitive="true" /></g><g
     inkscape:groupmode="layer"
     id="layer3"
     inkscape:label="ref"
     inkscape:highlight-color="#ff5338"
     style="display:inline;fill:#505050;fill-opacity:0.2"><path
       id="path8"
       style="baseline-shift:baseline;display:none;overflow:visible;opacity:1;vector-effect:none;fill:#505050;fill-opacity:0.2;enable-background:accumulate;stop-color:#000000;stop-opacity:1"
       inkscape:label="aries-v1"
       d="m 316,63 c -66,3.6 -119,57 -127,120 -6,47 -4,117 40,187 h 61 c -50,-90 -39,-133 -30,-170 10,-38 33,-57 60,-60 27,-3 51,5 69,24 18,19 33,50 42,85 29,182 27,367 34,551 h 70 c 7,-184 5,-369 34,-551 9,-35 24,-66 42,-85 18,-19 42,-27 69,-24 27,3 50,22 60,60 9,37 20,80 -30,170 h 61 C 815,300 817,230 811,183 803,120 749,67.4 684,63.7 620,60 584,85.6 564,105 535,134 517,175 500,240 483,175 465,134 436,105 418,88 380,59.6 316,63 Z"
       sodipodi:nodetypes="ssccssssccssssccssscss"
       sodipodi:insensitive="true" /><path
       id="path23"
       style="display:none;fill:#505050;fill-opacity:0.2;fill-rule:nonzero;stroke:none;stroke-width:79.968;stroke-opacity:0.3"
       inkscape:label="leo-v1"
       d="M 594,55.6 C 514,50.7 435,88.1 383,149 c -67,74 -93,197 -92,275 0,46 11,71 14,84 -96,-21 -183,52 -185,140 -7,89 77,172 166,162 92,-4 170,-102 144,-192 -17,-44 -42,-84 -49,-131 -24,-111 0,-243 95,-315 57,-48 161,-53 209,1 48,54 47,126 45,191 -14,140 -87,263 -132,393 -23,60 -23,138 32,182 63,56 175,38 215,-38 16,-30 21,-71 15,-101 h -52 c 5,42 -11,91 -55,105 C 704,923 642,880 653,825 670,737 719,659 749,574 792,463 825,340 791,223 777,163 745,102 685,78.6 656,66.3 625,57 594,55.6 Z M 279,564 c 26,-1 38,9 49,16 5,11 13,29 21,43 9,12 8,26 9,36 -3,58 -67,97 -124,69 -57,-28 -62,-111 -12,-146 16,-12 37,-17 57,-18 z"
       sodipodi:nodetypes="ssscssssszssssccsssssscccczsc"
       sodipodi:insensitive="true" /></g><metadata
     id="metadata1"><rdf:RDF><cc:Work
         rdf:about=""><cc:license
           rdf:resource="http://scripts.sil.org/OFL" /></cc:Work><cc:License
         rdf:about="http://scripts.sil.org/OFL"><cc:permits
           rdf:resource="http://scripts.sil.org/pub/OFL/Reproduction" /><cc:permits
           rdf:resource="http://scripts.sil.org/pub/OFL/Distribution" /><cc:permits
           rdf:resource="http://scripts.sil.org/pub/OFL/Embedding" /><cc:permits
           rdf:resource="http://scripts.sil.org/pub/OFL/DerivativeWorks" /><cc:requires
           rdf:resource="http://scripts.sil.org/pub/OFL/Notice" /><cc:requires
           rdf:resource="http://scripts.sil.org/pub/OFL/Attribution" /><cc:requires
           rdf:resource="http://scripts.sil.org/pub/OFL/ShareAlike" /><cc:requires
           rdf:resource="http://scripts.sil.org/pub/OFL/DerivativeRenaming" /><cc:requires
           rdf:resource="http://scripts.sil.org/pub/OFL/BundlingWhenSelling" /></cc:License></rdf:RDF></metadata><image
     preserveAspectRatio="none"
     inkscape:svg-dpi="96"
     width="1000"
     height="1000"
     xlink:href="../templates/guidelines.svg"
     id="image1"
     x="0"
     y="0"
     inkscape:label="guidelines"
     sodipodi:insensitive="true"
     style="display:inline;mix-blend-mode:normal" /></svg>
