<?xml version="1.0" encoding="UTF-8" standalone="no"?>
<!-- Created with Inkscape (http://www.inkscape.org/) -->

<svg
   width="1000"
   height="1000"
   viewBox="0 0 1000 1000"
   version="1.1"
   id="svg1"
   inkscape:version="1.4.3 (0d15f75042, 2025-12-25)"
   sodipodi:docname="mars.svg"
   xml:space="preserve"
   xmlns:inkscape="http://www.inkscape.org/namespaces/inkscape"
   xmlns:sodipodi="http://sodipodi.sourceforge.net/DTD/sodipodi-0.dtd"
   xmlns:xlink="http://www.w3.org/1999/xlink"
   xmlns="http://www.w3.org/2000/svg"
   xmlns:svg="http://www.w3.org/2000/svg"
   xmlns:rdf="http://www.w3.org/1999/02/22-rdf-syntax-ns#"
   xmlns:cc="http://creativecommons.org/ns#"><sodipodi:namedview
     id="namedview1"
     pagecolor="#ffffff"
     bordercolor="#999999"
     borderopacity="1"
     inkscape:showpageshadow="2"
     inkscape:pageopacity="0"
     inkscape:pagecheckerboard="0"
     inkscape:deskcolor="#d1d1d1"
     inkscape:document-units="px"
     inkscape:zoom="0.501"
     inkscape:cx="689"
     inkscape:cy="692"
     inkscape:window-width="957"
     inkscape:window-height="1027"
     inkscape:window-x="0"
     inkscape:window-y="0"
     inkscape:window-maximized="0"
     inkscape:current-layer="layer1"
     showgrid="true"><inkscape:grid
       id="grid1"
       units="px"
       originx="0"
       originy="0"
       spacingx="10"
       spacingy="10"
       empcolor="#e05050"
       empopacity="0.302"
       color="#505050"
       opacity="0.07843137"
       empspacing="10"
       enabled="true"
       visible="true" /></sodipodi:namedview><defs
     id="defs1" /><g
     inkscape:label="glyph"
     inkscape:groupmode="layer"
     id="layer1"
     style="display:inline;fill:#d0161a;fill-opacity:0.3"><path
       id="circle8"
       style="baseline-shift:baseline;display:inline;overflow:visible;opacity:1;vector-effect:none;fill:#d0161a;fill-opacity:0.3;enable-background:accumulate;stop-color:#000000;stop-opacity:1"
       d="m 590,70 v 80 H 744 L 632,262 C 581,223 518,200 450,200 285,200 150,335 150,500 150,665 285,800 450,800 615,800 750,665 750,500 750,432 727,369 688,318 L 800,206 v 154 h 80 V 70 Z M 450,280 c 122,0 220,98 220,220 0,122 -98,220 -220,220 -122,0 -220,-98 -220,-220 0,-122 98,-220 220,-220 z"
       inkscape:label="mars-v2" /></g><g
     inkscape:groupmode="layer"
     id="layer6"
     inkscape:label="archive"
     style="display:inline"><path
       id="circle2"
       style="baseline-shift:baseline;display:none;overflow:visible;opacity:1;vector-effect:none;fill:#d0161c;fill-opacity:0.3;enable-background:accumulate;stop-color:#000000;stop-opacity:1"
       d="m 629,70 v 80 h 95 L 612,262 C 561,223 498,200 430,200 265,200 130,335 130,500 130,665 265,800 430,800 595,800 730,665 730,500 730,432 707,369 668,318 L 780,206 v 94 h 80 V 70 Z M 430,280 c 122,0 220,98 220,220 0,122 -98,220 -220,220 -122,0 -220,-98 -220,-220 0,-122 98,-220 220,-220 z"
       inkscape:label="mars-v1" /></g><g
     inkscape:label="construction"
     inkscape:groupmode="layer"
     id="layer2"
     style="display:none;stroke:#0f4f99;stroke-opacity:0.297"><circle
       style="display:inline;fill:none;fill-opacity:0.402;stroke:#0f4f99;stroke-width:80;stroke-dasharray:none;stroke-opacity:0.297"
       id="path3"
       cx="430"
       cy="500"
       r="260"
       inkscape:label="path3" /><path
       style="display:inline;fill:#505050;fill-opacity:0.2;stroke-width:80;stroke-dasharray:none;stroke-opacity:0.298"
       d="M 610,320 780,150"
       id="path1"
       sodipodi:nodetypes="cc" /><path
       style="fill:none;fill-opacity:0.2;stroke-width:80;stroke-dasharray:none;stroke-opacity:0.298"
       d="M 570,110 H 820 V 360"
       id="path2"
       sodipodi:nodetypes="ccc" /></g><g
     inkscape:groupmode="layer"
     id="layer3"
     inkscape:label="ref"
     inkscape:highlight-color="#ff5338"
     style="display:inline;fill:#505050;fill-opacity:0.2"><path
       id="circle35"
       style="baseline-shift:baseline;display:none;overflow:visible;opacity:1;vector-effect:none;fill:#505050;fill-opacity:0.2;enable-background:accumulate;stop-color:#000000;stop-opacity:1"
       d="M 792,51.4 683,162 C 632,123 569,100 500,100 432,100 369,123 318,162 L 208,51.6 152,108 262,218 c -39,51 -62,114 -62,182 0,151 114,278 260,297 v 83 H 300 v 80 h 160 v 120 h 80 V 860 H 700 V 780 H 540 V 697 C 686,678 800,551 800,400 800,332 777,269 738,218 L 848,108 Z M 500,180 c 122,0 220,98 220,220 0,122 -98,220 -220,220 -122,0 -220,-98 -220,-220 0,-122 98,-220 220,-220 z"
       inkscape:label="mercury-v3" /><path
       id="circle1"
       style="baseline-shift:baseline;display:none;overflow:visible;opacity:1;vector-effect:none;fill:#505050;fill-opacity:0.2;enable-background:accumulate;stop-color:#000000;stop-opacity:1"
       d="M 500,60 C 335,60 200,195 200,360 200,511 314,638 460,657 V 780 H 300 v 80 h 160 v 120 h 80 V 860 H 700 V 780 H 540 V 657 C 686,638 800,511 800,360 800,195 665,60 500,60 Z m 0,80 c 122,0 220,98 220,220 0,122 -98,220 -220,220 -122,0 -220,-98 -220,-220 0,-122 98,-220 220,-220 z"
       inkscape:label="venus" /></g><metadata
     id="metadata1"><rdf:RDF><cc:Work
         rdf:about=""><cc:license
           rdf:resource="http://scripts.sil.org/OFL" /></cc:Work><cc:License
         rdf:about="http://scripts.sil.org/OFL"><cc:permits
           rdf:resource="http://scripts.sil.org/pub/OFL/Reproduction" /><cc:permits
           rdf:resource="http://scripts.sil.org/pub/OFL/Distribution" /><cc:permits
           rdf:resource="http://scripts.sil.org/pub/OFL/Embedding" /><cc:permits
           rdf:resource="http://scripts.sil.org/pub/OFL/DerivativeWorks" /><cc:requires
           rdf:resource="http://scripts.sil.org/pub/OFL/Notice" /><cc:requires
           rdf:resource="http://scripts.sil.org/pub/OFL/Attribution" /><cc:requires
           rdf:resource="http://scripts.sil.org/pub/OFL/ShareAlike" /><cc:requires
           rdf:resource="http://scripts.sil.org/pub/OFL/DerivativeRenaming" /><cc:requires
           rdf:resource="http://scripts.sil.org/pub/OFL/BundlingWhenSelling" /></cc:License></rdf:RDF></metadata><image
     preserveAspectRatio="none"
     inkscape:svg-dpi="96"
     width="1000"
     height="1000"
     xlink:href="../templates/guidelines.svg"
     id="image1"
     x="0"
     y="0"
     inkscape:label="guidelines"
     sodipodi:insensitive="true"
     style="display:inline;mix-blend-mode:normal" /></svg>
