<?xml version="1.0" encoding="UTF-8" standalone="no"?>
<!-- Created with Inkscape (http://www.inkscape.org/) -->

<svg
   width="1000"
   height="1000"
   viewBox="0 0 1000 1000"
   version="1.1"
   id="svg1"
   inkscape:version="1.4.3 (0d15f75042, 2025-12-25)"
   sodipodi:docname="mercury.svg"
   xml:space="preserve"
   xmlns:inkscape="http://www.inkscape.org/namespaces/inkscape"
   xmlns:sodipodi="http://sodipodi.sourceforge.net/DTD/sodipodi-0.dtd"
   xmlns:xlink="http://www.w3.org/1999/xlink"
   xmlns="http://www.w3.org/2000/svg"
   xmlns:svg="http://www.w3.org/2000/svg"
   xmlns:rdf="http://www.w3.org/1999/02/22-rdf-syntax-ns#"
   xmlns:cc="http://creativecommons.org/ns#"><sodipodi:namedview
     id="namedview1"
     pagecolor="#ffffff"
     bordercolor="#999999"
     borderopacity="1"
     inkscape:showpageshadow="2"
     inkscape:pageopacity="0"
     inkscape:pagecheckerboard="0"
     inkscape:deskcolor="#d1d1d1"
     inkscape:document-units="px"
     inkscape:zoom="0.354"
     inkscape:cx="35.3"
     inkscape:cy="875"
     inkscape:window-width="1078"
     inkscape:window-height="1027"
     inkscape:window-x="0"
     inkscape:window-y="0"
     inkscape:window-maximized="0"
     inkscape:current-layer="layer3"
     showgrid="true"><inkscape:grid
       id="grid1"
       units="px"
       originx="0"
       originy="0"
       spacingx="10"
       spacingy="10"
       empcolor="#e05050"
       empopacity="0.302"
       color="#505050"
       opacity="0.07843137"
       empspacing="10"
       enabled="true"
       visible="true" /></sodipodi:namedview><defs
     id="defs1" /><g
     inkscape:label="glyph"
     inkscape:groupmode="layer"
     id="layer1"
     style="display:inline;fill:#d01620;fill-opacity:0.3"><path
       id="circle1"
       style="baseline-shift:baseline;display:inline;overflow:visible;vector-effect:none;fill:#d01620;fill-opacity:0.3;enable-background:accumulate;stop-color:#000000;stop-opacity:1;opacity:1"
       d="M 822 21.5 L 682 162 C 631 123 568 100 500 100 C 432 100 369 123 318 162 L 178 21.6 L 122 78.2 L 262 218 C 223 269 200 332 200 400 C 200 551 314 678 460 697 L 460 780 L 300 780 L 300 860 L 460 860 L 460 980 L 540 980 L 540 860 L 700 860 L 700 780 L 540 780 L 540 697 C 686 678 800 551 800 400 C 800 332 777 269 738 218 L 878 78.1 L 822 21.5 z M 500 180 C 622 180 720 278 720 400 C 720 522 622 620 500 620 C 378 620 280 522 280 400 C 280 278 378 180 500 180 z "
       inkscape:label="mercury-v4" /></g><g
     inkscape:groupmode="layer"
     id="layer6"
     inkscape:label="archive"
     style="display:inline"><path
       id="circle5"
       style="baseline-shift:baseline;display:none;overflow:visible;opacity:1;vector-effect:none;fill:#d0161f;fill-opacity:0.3;enable-background:accumulate;stop-color:#000000;stop-opacity:1"
       d="M 772,30.8 682,122 C 631,83.1 568,60 500,60 432,60 369,83.1 318,122 L 228,31.6 172,88.2 262,178 c -39,51 -62,114 -62,182 0,151 114,278 260,297 V 790 H 300 v 80 h 160 v 110 h 80 V 870 H 700 V 790 H 540 V 657 C 686,638 800,511 800,360 800,292 777,228 738,178 L 828,87.2 Z M 500,140 c 122,0 220,98 220,220 0,122 -98,220 -220,220 -122,0 -220,-98 -220,-220 0,-122 98,-220 220,-220 z"
       inkscape:label="mercury-v1"
       sodipodi:insensitive="true" /><path
       id="circle19"
       style="baseline-shift:baseline;display:none;overflow:visible;opacity:1;vector-effect:none;fill:#d0161f;fill-opacity:0.3;enable-background:accumulate;stop-color:#000000;stop-opacity:1"
       d="M 772,30.8 676,128 C 627,91.4 566,70 500,70 434,70 373,91.4 324,128 L 228,31.6 172,88.2 266,182 c -41,52 -66,117 -66,188 0,151 114,278 260,297 V 780 H 300 v 80 h 160 v 120 h 80 V 860 H 700 V 780 H 540 V 667 C 686,648 800,521 800,370 800,299 775,234 734,182 L 828,87.2 Z M 500,150 c 122,0 220,98 220,220 0,122 -98,220 -220,220 -122,0 -220,-98 -220,-220 0,-122 98,-220 220,-220 z"
       inkscape:label="mercury-v2" /><path
       id="circle35"
       style="baseline-shift:baseline;display:none;overflow:visible;opacity:1;vector-effect:none;fill:#d01621;fill-opacity:0.3;enable-background:accumulate;stop-color:#000000;stop-opacity:1"
       d="M 792,51.4 683,162 C 632,123 569,100 500,100 432,100 369,123 318,162 L 208,51.6 152,108 262,218 c -39,51 -62,114 -62,182 0,151 114,278 260,297 v 83 H 300 v 80 h 160 v 120 h 80 V 860 H 700 V 780 H 540 V 697 C 686,678 800,551 800,400 800,332 777,269 738,218 L 848,108 Z M 500,180 c 122,0 220,98 220,220 0,122 -98,220 -220,220 -122,0 -220,-98 -220,-220 0,-122 98,-220 220,-220 z"
       inkscape:label="mercury-v3" /></g><g
     inkscape:label="construction"
     inkscape:groupmode="layer"
     id="layer2"
     style="display:none;stroke:#0f4f99;stroke-opacity:0.297"><circle
       style="display:inline;fill:none;fill-opacity:0.402;stroke:#0f4f99;stroke-width:80;stroke-dasharray:none;stroke-opacity:0.297"
       id="path3"
       cx="500"
       cy="400"
       r="260"
       inkscape:label="path3" /><path
       style="display:inline;fill:none;fill-opacity:0.402;stroke:#0f4f99;stroke-width:79.9909;stroke-dasharray:none;stroke-opacity:0.297"
       d="M 500,630 V 980"
       id="path4" /><path
       style="fill:none;fill-opacity:0.402;stroke:#0f4f99;stroke-width:80.0394;stroke-dasharray:none;stroke-opacity:0.297"
       d="M 300,820 H 700"
       id="path6" /><path
       style="display:inline;fill:#d0161f;fill-opacity:0.303;stroke:#0f4f99;stroke-width:80;stroke-dasharray:none;stroke-opacity:0.297"
       d="M 300,200 150,49.9"
       id="path2" /><path
       style="display:inline;fill:#d0161f;fill-opacity:0.303;stroke:#0f4f99;stroke-width:80;stroke-dasharray:none;stroke-opacity:0.297"
       d="M 700,200 850,49.8"
       id="path5" /></g><g
     inkscape:groupmode="layer"
     id="layer3"
     inkscape:label="ref"
     inkscape:highlight-color="#ff5338"
     style="display:inline"><path
       id="circle16"
       style="baseline-shift:baseline;display:none;overflow:visible;opacity:1;vector-effect:none;fill:#505050;fill-opacity:0.2;enable-background:accumulate;stop-color:#000000;stop-opacity:1"
       d="M 500,37.2 C 397,37.2 313,121 313,224 313,327 397,411 500,411 603,411 687,327 687,224 687,121 603,37.2 500,37.2 Z m 0,79.8 c 60,0 107,47 107,107 0,60 -47,107 -107,107 -60,0 -107,-47 -107,-107 0,-60 47,-107 107,-107 z m -265,242 -71,36 c 59,114 170,190 296,204 V 730 H 300 v 80 h 160 v 170 h 80 V 810 H 700 V 730 H 540 V 599 C 665,586 777,510 835,396 L 765,359 C 714,459 611,521 500,521 388,521 286,459 235,359 Z"
       sodipodi:insensitive="true"
       inkscape:label="pluto-v1" /></g><metadata
     id="metadata1"><rdf:RDF><cc:Work
         rdf:about=""><cc:license
           rdf:resource="http://scripts.sil.org/OFL" /></cc:Work><cc:License
         rdf:about="http://scripts.sil.org/OFL"><cc:permits
           rdf:resource="http://scripts.sil.org/pub/OFL/Reproduction" /><cc:permits
           rdf:resource="http://scripts.sil.org/pub/OFL/Distribution" /><cc:permits
           rdf:resource="http://scripts.sil.org/pub/OFL/Embedding" /><cc:permits
           rdf:resource="http://scripts.sil.org/pub/OFL/DerivativeWorks" /><cc:requires
           rdf:resource="http://scripts.sil.org/pub/OFL/Notice" /><cc:requires
           rdf:resource="http://scripts.sil.org/pub/OFL/Attribution" /><cc:requires
           rdf:resource="http://scripts.sil.org/pub/OFL/ShareAlike" /><cc:requires
           rdf:resource="http://scripts.sil.org/pub/OFL/DerivativeRenaming" /><cc:requires
           rdf:resource="http://scripts.sil.org/pub/OFL/BundlingWhenSelling" /></cc:License></rdf:RDF></metadata><image
     preserveAspectRatio="none"
     inkscape:svg-dpi="96"
     width="1000"
     height="1000"
     xlink:href="../templates/guidelines.svg"
     id="image1"
     x="0"
     y="0"
     inkscape:label="guidelines"
     sodipodi:insensitive="true"
     style="display:inline;mix-blend-mode:normal" /></svg>
