<?xml version="1.0" encoding="UTF-8" standalone="no"?>
<!-- Created with Inkscape (http://www.inkscape.org/) -->

<svg
   width="1000"
   height="1000"
   viewBox="0 0 1000 1000"
   version="1.1"
   id="svg1"
   inkscape:version="1.4.3 (0d15f75042, 2025-12-25)"
   sodipodi:docname="neptune.svg"
   xml:space="preserve"
   xmlns:inkscape="http://www.inkscape.org/namespaces/inkscape"
   xmlns:sodipodi="http://sodipodi.sourceforge.net/DTD/sodipodi-0.dtd"
   xmlns:xlink="http://www.w3.org/1999/xlink"
   xmlns="http://www.w3.org/2000/svg"
   xmlns:svg="http://www.w3.org/2000/svg"
   xmlns:rdf="http://www.w3.org/1999/02/22-rdf-syntax-ns#"
   xmlns:cc="http://creativecommons.org/ns#"><sodipodi:namedview
     id="namedview1"
     pagecolor="#ffffff"
     bordercolor="#999999"
     borderopacity="1"
     inkscape:showpageshadow="2"
     inkscape:pageopacity="0"
     inkscape:pagecheckerboard="0"
     inkscape:deskcolor="#d1d1d1"
     inkscape:document-units="px"
     inkscape:zoom="0.355"
     inkscape:cx="513"
     inkscape:cy="602"
     inkscape:window-width="1920"
     inkscape:window-height="1080"
     inkscape:window-x="0"
     inkscape:window-y="0"
     inkscape:window-maximized="0"
     inkscape:current-layer="svg1"
     showgrid="true"><inkscape:grid
       id="grid1"
       units="px"
       originx="0"
       originy="0"
       spacingx="10"
       spacingy="10"
       empcolor="#e05050"
       empopacity="0.302"
       color="#505050"
       opacity="0.07843137"
       empspacing="10"
       enabled="true"
       visible="true" /></sodipodi:namedview><defs
     id="defs1" /><g
     inkscape:label="glyph"
     inkscape:groupmode="layer"
     id="layer1"
     style="display:inline;fill:#d01620;fill-opacity:0.3"><path
       id="path10"
       style="baseline-shift:baseline;display:inline;overflow:visible;vector-effect:none;fill:#d01620;fill-opacity:0.3;enable-background:accumulate;stop-color:#000000;stop-opacity:1;opacity:1"
       d="M 460 70 L 460 576 C 420 569 382 551 350 521 C 265 441 256 310 330 220 L 268 169 C 168 291 180 471 295 579 C 342 623 400 649 460 657 L 460 780 L 300 780 L 300 860 L 460 860 L 460 980 L 540 980 L 540 860 L 700 860 L 700 780 L 540 780 L 540 657 C 600 649 659 623 706 578 C 821 470 832 290 731 168 L 669 219 C 744 309 736 440 651 520 C 619 550 580 569 540 576 L 540 70 L 460 70 z "
       inkscape:label="neptune-v2" /></g><g
     inkscape:groupmode="layer"
     id="layer6"
     inkscape:label="archive"
     style="display:inline"><path
       id="path1"
       style="baseline-shift:baseline;display:none;overflow:visible;opacity:1;vector-effect:none;fill:#ff1a14;fill-opacity:0.3;enable-background:accumulate;stop-color:#000000;stop-opacity:1"
       d="M 460,100 V 576 C 423,570 388,553 358,528 276,459 256,342 310,249 l -69,-40 c -73,125 -46,286 65,380 45,38 99,61 154,68 V 780 H 300 v 80 h 160 v 120 h 80 V 860 H 700 V 780 H 540 V 657 c 55,-7 107,-30 152,-67 112,-93 141,-254 68,-380 l -69,40 c 53,93 32,210 -50,279 -30,25 -65,41 -101,48 V 100 Z"
       inkscape:label="neptune-v1" /></g><g
     inkscape:label="construction"
     inkscape:groupmode="layer"
     id="layer2"
     style="display:none;stroke:#0f4f99;stroke-opacity:0.297"><path
       style="display:inline;fill:none;fill-opacity:0.402;stroke:#0f4f99;stroke-width:80;stroke-dasharray:none;stroke-opacity:0.297"
       id="path3"
       inkscape:label="path3"
       sodipodi:type="arc"
       sodipodi:cx="500"
       sodipodi:cy="360"
       sodipodi:rx="260"
       sodipodi:ry="260"
       sodipodi:start="5.59"
       sodipodi:end="3.83"
       sodipodi:open="true"
       sodipodi:arc-type="arc"
       d="M 700,194 A 260,260 0 0 1 678,549 260,260 0 0 1 322,549 260,260 0 0 1 300,194" /><path
       style="display:inline;fill:none;fill-opacity:0.402;stroke:#0f4f99;stroke-width:79.9909;stroke-dasharray:none;stroke-opacity:0.297"
       d="M 500,70 V 980"
       id="path4"
       sodipodi:nodetypes="cc" /><path
       style="fill:none;fill-opacity:0.402;stroke:#0f4f99;stroke-width:80.0394;stroke-dasharray:none;stroke-opacity:0.297"
       d="M 300,820 H 700"
       id="path6" /></g><g
     inkscape:groupmode="layer"
     id="layer3"
     inkscape:label="ref"
     inkscape:highlight-color="#ff5338"
     style="display:inline;fill:#505050;fill-opacity:0.3"><path
       id="circle35"
       style="baseline-shift:baseline;display:none;overflow:visible;opacity:1;vector-effect:none;fill:#505050;fill-opacity:0.3;enable-background:accumulate;stop-color:#000000;stop-opacity:1"
       d="M 792,51.4 683,162 C 632,123 569,100 500,100 432,100 369,123 318,162 L 208,51.6 152,108 262,218 c -39,51 -62,114 -62,182 0,151 114,278 260,297 v 83 H 300 v 80 h 160 v 120 h 80 V 860 H 700 V 780 H 540 V 697 C 686,678 800,551 800,400 800,332 777,269 738,218 L 848,108 Z M 500,180 c 122,0 220,98 220,220 0,122 -98,220 -220,220 -122,0 -220,-98 -220,-220 0,-122 98,-220 220,-220 z"
       inkscape:label="mercury-v3" /><path
       id="circle1"
       style="baseline-shift:baseline;display:none;overflow:visible;opacity:1;vector-effect:none;fill:#505050;fill-opacity:0.3;enable-background:accumulate;stop-color:#000000;stop-opacity:1"
       d="M 500,60 C 335,60 200,195 200,360 200,511 314,638 460,657 V 780 H 300 v 80 h 160 v 120 h 80 V 860 H 700 V 780 H 540 V 657 C 686,638 800,511 800,360 800,195 665,60 500,60 Z m 0,80 c 122,0 220,98 220,220 0,122 -98,220 -220,220 -122,0 -220,-98 -220,-220 0,-122 98,-220 220,-220 z"
       inkscape:label="venus-v1" /></g><metadata
     id="metadata1"><rdf:RDF><cc:Work
         rdf:about=""><cc:license
           rdf:resource="http://scripts.sil.org/OFL" /></cc:Work><cc:License
         rdf:about="http://scripts.sil.org/OFL"><cc:permits
           rdf:resource="http://scripts.sil.org/pub/OFL/Reproduction" /><cc:permits
           rdf:resource="http://scripts.sil.org/pub/OFL/Distribution" /><cc:permits
           rdf:resource="http://scripts.sil.org/pub/OFL/Embedding" /><cc:permits
           rdf:resource="http://scripts.sil.org/pub/OFL/DerivativeWorks" /><cc:requires
           rdf:resource="http://scripts.sil.org/pub/OFL/Notice" /><cc:requires
           rdf:resource="http://scripts.sil.org/pub/OFL/Attribution" /><cc:requires
           rdf:resource="http://scripts.sil.org/pub/OFL/ShareAlike" /><cc:requires
           rdf:resource="http://scripts.sil.org/pub/OFL/DerivativeRenaming" /><cc:requires
           rdf:resource="http://scripts.sil.org/pub/OFL/BundlingWhenSelling" /></cc:License></rdf:RDF></metadata><image
     preserveAspectRatio="none"
     inkscape:svg-dpi="96"
     width="1000"
     height="1000"
     xlink:href="../templates/guidelines.svg"
     id="image1"
     x="0"
     y="0"
     inkscape:label="guidelines"
     sodipodi:insensitive="true"
     style="display:inline;mix-blend-mode:normal" /></svg>
