<?xml version="1.0" encoding="UTF-8" standalone="no"?>
<!-- Created with Inkscape (http://www.inkscape.org/) -->

<svg
   width="1000"
   height="1000"
   viewBox="0 0 1000 1000"
   version="1.1"
   id="svg1"
   inkscape:version="1.4.3 (0d15f75042, 2025-12-25)"
   sodipodi:docname="opposition.svg"
   xml:space="preserve"
   xmlns:inkscape="http://www.inkscape.org/namespaces/inkscape"
   xmlns:sodipodi="http://sodipodi.sourceforge.net/DTD/sodipodi-0.dtd"
   xmlns:xlink="http://www.w3.org/1999/xlink"
   xmlns="http://www.w3.org/2000/svg"
   xmlns:svg="http://www.w3.org/2000/svg"
   xmlns:rdf="http://www.w3.org/1999/02/22-rdf-syntax-ns#"
   xmlns:cc="http://creativecommons.org/ns#"><sodipodi:namedview
     id="namedview1"
     pagecolor="#ffffff"
     bordercolor="#999999"
     borderopacity="1"
     inkscape:showpageshadow="2"
     inkscape:pageopacity="0"
     inkscape:pagecheckerboard="0"
     inkscape:deskcolor="#d1d1d1"
     inkscape:document-units="px"
     inkscape:zoom="1"
     inkscape:cx="530"
     inkscape:cy="472"
     inkscape:window-width="957"
     inkscape:window-height="1027"
     inkscape:window-x="0"
     inkscape:window-y="0"
     inkscape:window-maximized="0"
     inkscape:current-layer="layer3"
     showgrid="true"><inkscape:grid
       id="grid1"
       units="px"
       originx="0"
       originy="0"
       spacingx="10"
       spacingy="10"
       empcolor="#e05050"
       empopacity="0.302"
       color="#505050"
       opacity="0.07843137"
       empspacing="10"
       enabled="true"
       visible="true" /></sodipodi:namedview><defs
     id="defs1" /><g
     inkscape:label="glyph"
     inkscape:groupmode="layer"
     id="layer1"
     style="display:inline"><path
       id="path6"
       style="baseline-shift:baseline;display:inline;overflow:visible;vector-effect:none;fill:#7d0000;fill-opacity:0.401;enable-background:accumulate;stop-color:#000000;stop-opacity:1;opacity:1"
       d="M 650 190 C 562 190 490 262 490 350 C 490 380 498 408 512 432 L 432 512 C 408 498 380 490 350 490 C 262 490 190 562 190 650 C 190 738 262 810 350 810 C 438 810 510 738 510 650 C 510 620 502 592 488 568 L 568 488 C 592 502 620 510 650 510 C 738 510 810 438 810 350 C 810 262 738 190 650 190 z M 650 270 C 695 270 730 305 730 350 C 730 395 695 430 650 430 C 605 430 570 395 570 350 C 570 305 605 270 650 270 z M 350 570 C 395 570 430 605 430 650 C 430 695 395 730 350 730 C 305 730 270 695 270 650 C 270 605 305 570 350 570 z "
       inkscape:label="oppo-v2" /></g><g
     inkscape:groupmode="layer"
     id="layer5"
     inkscape:label="archive"
     style="display:none;fill:#d7a319;fill-opacity:0.299"><path
       id="path4"
       style="baseline-shift:baseline;display:inline;overflow:visible;vector-effect:none;fill:#d7a319;fill-opacity:0.299;stroke-width:1.62751;enable-background:accumulate;stop-color:#000000"
       d="m 647,198 c -43,0 -83,12 -113,42 -27,29 -41,68 -41,110 0,29 7,57 21,80 l -84,84 c -22,-11 -47,-16 -73,-16 -48,1 -77,12 -109,42 -28,26 -42,69 -42,112 0,43 16,83 45,111 28,27 65,41 106,41 42,0 80,-12 108,-42 29,-25 45,-67 45,-110 0,-30 -8,-59 -22,-84 l 85,-85 c 21,10 46,15 74,15 42,0 82,-13 110,-40 28,-27 43,-67 43,-108 0,-42 -14,-81 -43,-110 -28,-30 -68,-42 -110,-42 z m 0,79 c 28,0 43,7 55,19 12,12 18,28 18,54 0,25 -6,38 -18,50 -14,15 -35,17 -55,18 -30,0 -45,-7 -56,-18 -12,-11 -18,-25 -18,-50 0,-26 6,-42 18,-54 13,-12 26,-19 56,-19 z M 355,580 c 29,0 48,10 61,23 12,12 17,24 17,49 0,24 -5,35 -16,47 -12,12 -31,24 -60,24 -28,0 -46,-12 -58,-24 -11,-11 -16,-23 -16,-47 0,-25 5,-38 16,-50 14,-12 28,-22 56,-22 z"
       sodipodi:nodetypes="sssccssscsssccsssssscsssssssscscsssss"
       inkscape:label="oppo-v1" /></g><g
     inkscape:label="construction"
     inkscape:groupmode="layer"
     id="layer2"
     style="display:none;fill:none;stroke:#7d0000;stroke-opacity:0.401"><path
       d="m -296,151 q -34,0 -54,-17 -19,-17 -19,-46 0,-30 19,-47.5 20,-17.5 54,-17.5 35,0 54,17.5 20,17.5 20,47.5 0,29 -20,46 -19,17 -54,17 z"
       id="path1-2-6-6"
       style="display:none;fill:none;stroke:#7d0000;stroke-width:49.0566;stroke-dasharray:none;stroke-opacity:0.401"
       transform="matrix(1.54,0,0,1.72,813,501)"
       inkscape:label="circle-v1-1" /><path
       d="m 646,458 q -53,0 -83,-29 -30,-29 -30,-79 0,-52 30,-82 30,-30 83,-30 54,0 83,30 31,30 31,82 0,50 -31,79 -29,29 -83,29 z"
       id="path2"
       style="display:none;fill:none;stroke:#7d0000;stroke-width:79.8403;stroke-dasharray:none;stroke-opacity:0.401"
       inkscape:label="circle-v1-2" /><path
       style="display:inline;fill:none;fill-opacity:0.204;stroke:#7d0000;stroke-width:80;stroke-dasharray:none;stroke-opacity:0.401"
       d="M 430,570 570,430"
       id="path3" /><circle
       style="fill:none;fill-opacity:0.299;stroke-width:80;stroke-opacity:0.3"
       id="path5"
       cx="350"
       cy="650"
       r="120"
       inkscape:label="circle2" /><circle
       style="fill:none;fill-opacity:0.299;stroke-width:80;stroke-opacity:0.3"
       id="circle5"
       cx="650"
       cy="350"
       r="120" /></g><g
     inkscape:groupmode="layer"
     id="layer3"
     inkscape:label="ref"
     inkscape:highlight-color="#ff5338"
     style="display:inline" /><metadata
     id="metadata1"><rdf:RDF><cc:Work
         rdf:about=""><cc:license
           rdf:resource="http://scripts.sil.org/OFL" /></cc:Work><cc:License
         rdf:about="http://scripts.sil.org/OFL"><cc:permits
           rdf:resource="http://scripts.sil.org/pub/OFL/Reproduction" /><cc:permits
           rdf:resource="http://scripts.sil.org/pub/OFL/Distribution" /><cc:permits
           rdf:resource="http://scripts.sil.org/pub/OFL/Embedding" /><cc:permits
           rdf:resource="http://scripts.sil.org/pub/OFL/DerivativeWorks" /><cc:requires
           rdf:resource="http://scripts.sil.org/pub/OFL/Notice" /><cc:requires
           rdf:resource="http://scripts.sil.org/pub/OFL/Attribution" /><cc:requires
           rdf:resource="http://scripts.sil.org/pub/OFL/ShareAlike" /><cc:requires
           rdf:resource="http://scripts.sil.org/pub/OFL/DerivativeRenaming" /><cc:requires
           rdf:resource="http://scripts.sil.org/pub/OFL/BundlingWhenSelling" /></cc:License></rdf:RDF></metadata><image
     preserveAspectRatio="none"
     inkscape:svg-dpi="96"
     width="1000"
     height="1000"
     xlink:href="../templates/guidelines.svg"
     id="image1"
     x="0"
     y="0"
     inkscape:label="guidelines"
     sodipodi:insensitive="true"
     style="display:inline;mix-blend-mode:normal" /></svg>
