<?xml version="1.0" encoding="UTF-8" standalone="no"?>
<!-- Created with Inkscape (http://www.inkscape.org/) -->

<svg
   width="1000"
   height="1000"
   viewBox="0 0 1000 1000"
   version="1.1"
   id="svg1"
   inkscape:version="1.4.3 (0d15f75042, 2025-12-25)"
   sodipodi:docname="pluto.svg"
   xml:space="preserve"
   xmlns:inkscape="http://www.inkscape.org/namespaces/inkscape"
   xmlns:sodipodi="http://sodipodi.sourceforge.net/DTD/sodipodi-0.dtd"
   xmlns:xlink="http://www.w3.org/1999/xlink"
   xmlns="http://www.w3.org/2000/svg"
   xmlns:svg="http://www.w3.org/2000/svg"
   xmlns:rdf="http://www.w3.org/1999/02/22-rdf-syntax-ns#"
   xmlns:cc="http://creativecommons.org/ns#"><sodipodi:namedview
     id="namedview1"
     pagecolor="#ffffff"
     bordercolor="#999999"
     borderopacity="1"
     inkscape:showpageshadow="2"
     inkscape:pageopacity="0"
     inkscape:pagecheckerboard="0"
     inkscape:deskcolor="#d1d1d1"
     inkscape:document-units="px"
     inkscape:zoom="0.354"
     inkscape:cx="496"
     inkscape:cy="673"
     inkscape:window-width="957"
     inkscape:window-height="1027"
     inkscape:window-x="0"
     inkscape:window-y="0"
     inkscape:window-maximized="0"
     inkscape:current-layer="layer3"
     showgrid="true"><inkscape:grid
       id="grid1"
       units="px"
       originx="0"
       originy="0"
       spacingx="10"
       spacingy="10"
       empcolor="#e05050"
       empopacity="0.302"
       color="#505050"
       opacity="0.07843137"
       empspacing="10"
       enabled="true"
       visible="true" /></sodipodi:namedview><defs
     id="defs1" /><g
     inkscape:label="glyph"
     inkscape:groupmode="layer"
     id="layer1"
     style="display:inline"><path
       id="circle16"
       style="baseline-shift:baseline;display:inline;overflow:visible;vector-effect:none;fill:#c20000;fill-opacity:0.4;enable-background:accumulate;stop-color:#000000;stop-opacity:1;opacity:1"
       d="M 500 37.2 C 397 37.2 313 121 313 224 C 313 327 397 411 500 411 C 603 411 687 327 687 224 C 687 121 603 37.2 500 37.2 z M 500 117 C 560 117 607 164 607 224 C 607 284 560 331 500 331 C 440 331 393 284 393 224 C 393 164 440 117 500 117 z M 235 359 L 164 395 C 223 509 334 585 460 599 L 460 730 L 300 730 L 300 810 L 460 810 L 460 980 L 540 980 L 540 810 L 700 810 L 700 730 L 540 730 L 540 599 C 665 586 777 510 835 396 L 765 359 C 714 459 611 521 500 521 C 388 521 286 459 235 359 z " /></g><g
     inkscape:label="construction"
     inkscape:groupmode="layer"
     id="layer2"
     style="display:none"><circle
       style="fill:none;fill-opacity:0.402;stroke:#c20000;stroke-width:79.5291;stroke-dasharray:none;stroke-opacity:0.4"
       id="path3"
       cx="500"
       cy="224"
       r="147" /><path
       style="fill:none;fill-opacity:0.402;stroke:#c20000;stroke-width:80.0814;stroke-dasharray:none;stroke-opacity:0.4"
       d="M 500,564 V 980"
       id="path4" /><path
       style="fill:none;fill-opacity:0.402;stroke:#c20000;stroke-width:79.7102;stroke-dasharray:none;stroke-opacity:0.4"
       id="path5"
       sodipodi:type="arc"
       sodipodi:cx="500"
       sodipodi:cy="224"
       sodipodi:rx="337"
       sodipodi:ry="337"
       sodipodi:start="0.473"
       sodipodi:end="2.67"
       sodipodi:open="true"
       sodipodi:arc-type="arc"
       d="M 800,378 A 337,337 0 0 1 500,561 337,337 0 0 1 200,377" /><path
       style="fill:none;fill-opacity:0.402;stroke:#c20000;stroke-width:80.0394;stroke-dasharray:none;stroke-opacity:0.4"
       d="M 300,770 H 700"
       id="path6" /></g><g
     inkscape:groupmode="layer"
     id="layer3"
     inkscape:label="ref"
     inkscape:highlight-color="#ff5338" /><metadata
     id="metadata1"><rdf:RDF><cc:Work
         rdf:about=""><cc:license
           rdf:resource="http://scripts.sil.org/OFL" /></cc:Work><cc:License
         rdf:about="http://scripts.sil.org/OFL"><cc:permits
           rdf:resource="http://scripts.sil.org/pub/OFL/Reproduction" /><cc:permits
           rdf:resource="http://scripts.sil.org/pub/OFL/Distribution" /><cc:permits
           rdf:resource="http://scripts.sil.org/pub/OFL/Embedding" /><cc:permits
           rdf:resource="http://scripts.sil.org/pub/OFL/DerivativeWorks" /><cc:requires
           rdf:resource="http://scripts.sil.org/pub/OFL/Notice" /><cc:requires
           rdf:resource="http://scripts.sil.org/pub/OFL/Attribution" /><cc:requires
           rdf:resource="http://scripts.sil.org/pub/OFL/ShareAlike" /><cc:requires
           rdf:resource="http://scripts.sil.org/pub/OFL/DerivativeRenaming" /><cc:requires
           rdf:resource="http://scripts.sil.org/pub/OFL/BundlingWhenSelling" /></cc:License></rdf:RDF></metadata><image
     preserveAspectRatio="none"
     inkscape:svg-dpi="96"
     width="1000"
     height="1000"
     xlink:href="../templates/guidelines.svg"
     id="image1"
     x="0"
     y="0"
     inkscape:label="guidelines"
     sodipodi:insensitive="true"
     style="display:inline;mix-blend-mode:normal" /></svg>
