<?xml version="1.0" encoding="UTF-8" standalone="no"?>
<!-- Created with Inkscape (http://www.inkscape.org/) -->

<svg
   width="1000"
   height="1000"
   viewBox="0 0 1000 1000"
   version="1.1"
   id="svg1"
   inkscape:version="1.4.3 (0d15f75042, 2025-12-25)"
   sodipodi:docname="sagittarius.svg"
   xml:space="preserve"
   xmlns:inkscape="http://www.inkscape.org/namespaces/inkscape"
   xmlns:sodipodi="http://sodipodi.sourceforge.net/DTD/sodipodi-0.dtd"
   xmlns:xlink="http://www.w3.org/1999/xlink"
   xmlns="http://www.w3.org/2000/svg"
   xmlns:svg="http://www.w3.org/2000/svg"
   xmlns:rdf="http://www.w3.org/1999/02/22-rdf-syntax-ns#"
   xmlns:cc="http://creativecommons.org/ns#"><sodipodi:namedview
     id="namedview1"
     pagecolor="#ffffff"
     bordercolor="#999999"
     borderopacity="1"
     inkscape:showpageshadow="2"
     inkscape:pageopacity="0"
     inkscape:pagecheckerboard="0"
     inkscape:deskcolor="#d1d1d1"
     inkscape:document-units="px"
     inkscape:zoom="0.566"
     inkscape:cx="474"
     inkscape:cy="630"
     inkscape:window-width="1920"
     inkscape:window-height="1080"
     inkscape:window-x="0"
     inkscape:window-y="0"
     inkscape:window-maximized="0"
     inkscape:current-layer="svg1"
     showgrid="true"
     showguides="true"
     inkscape:lockguides="true"><inkscape:grid
       id="grid1"
       units="px"
       originx="0"
       originy="0"
       spacingx="10"
       spacingy="10"
       empcolor="#e05050"
       empopacity="0.302"
       color="#505050"
       opacity="0.07843137"
       empspacing="10"
       enabled="true"
       visible="true" /><sodipodi:guide
       position="0,565"
       orientation="0,1"
       id="guide1"
       inkscape:locked="true"
       inkscape:label="center"
       inkscape:color="rgb(129,61,156)" /><sodipodi:guide
       position="0,60"
       orientation="-0.707,0.707"
       id="guide22"
       inkscape:locked="true"
       inkscape:label="arrow"
       inkscape:color="rgb(0,134,229)" /></sodipodi:namedview><defs
     id="defs1"><inkscape:path-effect
       effect="powerstroke"
       message=""
       id="path-effect22"
       is_visible="true"
       lpeversion="1.3"
       scale_width="1"
       interpolator_type="SpiroInterpolator"
       interpolator_beta="0.2"
       start_linecap_type="zerowidth"
       end_linecap_type="zerowidth"
       offset_points="0,45 | 2,26.8 | 4,44.5"
       linejoin_type="round"
       miter_limit="4"
       not_jump="false"
       sort_points="true" /><inkscape:path-effect
       effect="powerstroke"
       message=""
       id="path-effect7"
       is_visible="true"
       lpeversion="1.3"
       scale_width="1"
       interpolator_type="SpiroInterpolator"
       interpolator_beta="0.2"
       start_linecap_type="zerowidth"
       end_linecap_type="zerowidth"
       offset_points="0,45 | 2,26.8 | 4,44.5"
       linejoin_type="round"
       miter_limit="4"
       not_jump="false"
       sort_points="true" /><inkscape:path-effect
       effect="powerstroke"
       message=""
       id="path-effect23"
       is_visible="true"
       lpeversion="1.3"
       scale_width="1"
       interpolator_type="SpiroInterpolator"
       interpolator_beta="0.2"
       start_linecap_type="zerowidth"
       end_linecap_type="zerowidth"
       offset_points="0,26.6 | 5.5,40 | 11.9,27.7"
       linejoin_type="round"
       miter_limit="4"
       not_jump="false"
       sort_points="true" /><inkscape:path-effect
       effect="powerstroke"
       message=""
       id="path-effect21"
       is_visible="true"
       lpeversion="1.3"
       scale_width="1"
       interpolator_type="SpiroInterpolator"
       interpolator_beta="0.2"
       start_linecap_type="zerowidth"
       end_linecap_type="zerowidth"
       offset_points="0,26.6 | 5.5,40 | 11.9,27.7"
       linejoin_type="round"
       miter_limit="4"
       not_jump="false"
       sort_points="true" /><inkscape:path-effect
       effect="mirror_symmetry"
       start_point="500,419"
       end_point="500,807"
       center_point="500,613"
       id="path-effect33"
       is_visible="true"
       lpeversion="1.2"
       lpesatellites=""
       mode="free"
       discard_orig_path="true"
       fuse_paths="false"
       oposite_fuse="false"
       split_items="false"
       split_open="false"
       link_styles="false" /><inkscape:path-effect
       effect="mirror_symmetry"
       start_point="170,435"
       end_point="828,435"
       center_point="499,435"
       id="path-effect31"
       is_visible="true"
       lpeversion="1.2"
       lpesatellites="#path30"
       mode="free"
       discard_orig_path="false"
       fuse_paths="false"
       oposite_fuse="false"
       split_items="true"
       split_open="false"
       link_styles="false" /><inkscape:path-effect
       effect="mirror_symmetry"
       start_point="500,419"
       end_point="500,807"
       center_point="500,613"
       id="path-effect25"
       is_visible="true"
       lpeversion="1.2"
       lpesatellites=""
       mode="free"
       discard_orig_path="true"
       fuse_paths="false"
       oposite_fuse="false"
       split_items="false"
       split_open="false"
       link_styles="false" /><inkscape:path-effect
       effect="mirror_symmetry"
       start_point="500,419"
       end_point="500,807"
       center_point="500,613"
       id="path-effect20"
       is_visible="true"
       lpeversion="1.2"
       lpesatellites=""
       mode="free"
       discard_orig_path="true"
       fuse_paths="false"
       oposite_fuse="false"
       split_items="false"
       split_open="false"
       link_styles="false" /><inkscape:path-effect
       effect="mirror_symmetry"
       start_point="170,435"
       end_point="828,435"
       center_point="499,435"
       id="path-effect18"
       is_visible="true"
       lpeversion="1.2"
       lpesatellites="#path9"
       mode="free"
       discard_orig_path="false"
       fuse_paths="false"
       oposite_fuse="false"
       split_items="true"
       split_open="false"
       link_styles="false" /><inkscape:path-effect
       effect="mirror_symmetry"
       start_point="500,419"
       end_point="500,807"
       center_point="500,613"
       id="path-effect16"
       is_visible="true"
       lpeversion="1.2"
       lpesatellites=""
       mode="free"
       discard_orig_path="true"
       fuse_paths="false"
       oposite_fuse="false"
       split_items="false"
       split_open="false"
       link_styles="false" /><inkscape:path-effect
       effect="mirror_symmetry"
       start_point="170,435"
       end_point="828,435"
       center_point="499,435"
       id="path-effect15"
       is_visible="true"
       lpeversion="1.2"
       lpesatellites="#path15"
       mode="free"
       discard_orig_path="false"
       fuse_paths="false"
       oposite_fuse="false"
       split_items="true"
       split_open="false"
       link_styles="false" /><inkscape:path-effect
       effect="mirror_symmetry"
       start_point="203,604"
       end_point="808,604"
       center_point="506,604"
       id="path-effect14"
       is_visible="true"
       lpeversion="1.2"
       lpesatellites=""
       mode="free"
       discard_orig_path="false"
       fuse_paths="false"
       oposite_fuse="false"
       split_items="false"
       split_open="false"
       link_styles="false" /><inkscape:path-effect
       effect="mirror_symmetry"
       start_point="505,397"
       end_point="505,810"
       center_point="505,604"
       id="path-effect13"
       is_visible="true"
       lpeversion="1.2"
       lpesatellites=""
       mode="free"
       discard_orig_path="true"
       fuse_paths="false"
       oposite_fuse="false"
       split_items="false"
       split_open="false"
       link_styles="false" /><inkscape:path-effect
       effect="mirror_symmetry"
       start_point="808,59.6"
       end_point="808,810"
       center_point="808,435"
       id="path-effect12"
       is_visible="true"
       lpeversion="1.2"
       lpesatellites=""
       mode="free"
       discard_orig_path="false"
       fuse_paths="false"
       oposite_fuse="false"
       split_items="false"
       split_open="false"
       link_styles="false" /><inkscape:path-effect
       effect="mirror_symmetry"
       start_point="185,435"
       end_point="808,435"
       center_point="496,435"
       id="path-effect11"
       is_visible="true"
       lpeversion="1.2"
       lpesatellites=""
       mode="free"
       discard_orig_path="false"
       fuse_paths="false"
       oposite_fuse="false"
       split_items="true"
       split_open="false"
       link_styles="false" /><inkscape:path-effect
       effect="mirror_symmetry"
       start_point="0,440"
       end_point="1000,440"
       center_point="500,440"
       id="path-effect17"
       is_visible="true"
       lpeversion="1.2"
       lpesatellites=""
       mode="free"
       discard_orig_path="false"
       fuse_paths="false"
       oposite_fuse="false"
       split_items="false"
       split_open="false"
       link_styles="false" /><inkscape:path-effect
       effect="mirror_symmetry"
       start_point="0,435"
       end_point="1000,435"
       center_point="500,435"
       id="path-effect10"
       is_visible="true"
       lpeversion="1.2"
       lpesatellites=""
       mode="free"
       discard_orig_path="false"
       fuse_paths="false"
       oposite_fuse="false"
       split_items="false"
       split_open="false"
       link_styles="false" /><inkscape:path-effect
       effect="mirror_symmetry"
       start_point="0,440"
       end_point="1000,440"
       center_point="500,440"
       id="path-effect6"
       is_visible="true"
       lpeversion="1.2"
       lpesatellites=""
       mode="free"
       discard_orig_path="false"
       fuse_paths="false"
       oposite_fuse="false"
       split_items="false"
       split_open="false"
       link_styles="false" /></defs><g
     inkscape:label="glyph"
     inkscape:groupmode="layer"
     id="layer1"
     style="display:inline;fill:#d43f50;fill-opacity:0.3;stroke:none"><path
       id="path28"
       style="baseline-shift:baseline;display:inline;overflow:visible;vector-effect:none;fill:#d43f50;fill-opacity:0.3;stroke:none;stroke-opacity:0.3;enable-background:accumulate;stop-color:#000000"
       inkscape:label="sugittarius-v4"
       d="m 510,70 v 70 l 226,8 -383,387 C 293,483 220,446 140,443 v 64 c 35,2 101,32 160,81 l -175,177 50,50 177,-176 c 58,69 75,131 79,161 h 65 C 493,718 456,646 405,587 l 387,-383 8,226 h 70 V 70 Z"
       sodipodi:nodetypes="cccccccccccccccccc" /></g><g
     inkscape:groupmode="layer"
     id="layer4"
     inkscape:label="archive"
     style="display:inline"><path
       id="path12"
       style="baseline-shift:baseline;display:none;overflow:visible;vector-effect:none;fill:#d43f50;fill-opacity:0.3;stroke:none;stroke-opacity:1;enable-background:accumulate;stop-color:#000000"
       d="m 510,70 v 80 H 734 L 320,564 178,422 122,478 264,620 122,762 178,818 320,676 462,818 518,762 376,620 790,206 v 224 h 80 V 70 Z"
       inkscape:label="sugittarius-v1" /><path
       id="path19"
       style="baseline-shift:baseline;display:none;overflow:visible;vector-effect:none;fill:#d43f50;fill-opacity:0.3;enable-background:accumulate;stop-color:#000000"
       inkscape:label="sugittarius-v2"
       d="m 510,70 v 70 l 226,8 -414,419 -147,-142 -50,50 142,147 -142,143 50,50 143,-142 147,142 50,-50 -142,-147 419,-414 8,226 h 70 V 70 Z" /><path
       id="path26"
       style="baseline-shift:baseline;display:none;overflow:visible;vector-effect:none;fill:#d43f50;fill-opacity:0.3;stroke:#28abe5;stroke-opacity:0.3;enable-background:accumulate;stop-color:#000000"
       inkscape:label="sugittarius-v3"
       d="m 510,70 v 70 l 226,8 -383,387 C 294,485 220,452 140,443 v 64 c 67,20 119,50 159,83 l -174,175 50,50 175,-174 c 55,65 74,131 81,159 h 65 C 487,720 454,647 405,587 l 387,-383 8,226 h 70 V 70 Z" /></g><g
     inkscape:label="construction"
     inkscape:groupmode="layer"
     id="layer2"
     style="display:none;fill:#005cb5;fill-opacity:0.299;stroke:#28abe5;stroke-opacity:0.3"><path
       style="display:none;fill:#d43f50;fill-opacity:0.3;stroke:#38a0e4;stroke-width:80;stroke-dasharray:none;stroke-opacity:0.3"
       d="M 510,110 -170,790"
       id="path4"
       sodipodi:nodetypes="cc"
       inkscape:label="_dir_top"
       sodipodi:insensitive="true" /><path
       style="display:none;fill:#d43f50;fill-opacity:0.3;stroke:#38a0e4;stroke-width:80;stroke-dasharray:none;stroke-opacity:0.3"
       d="M 830,430 150,1110"
       id="path5"
       sodipodi:nodetypes="cc"
       inkscape:label="_dir_bottom"
       sodipodi:insensitive="true" /><path
       style="display:none;fill:#d43f50;fill-opacity:0.3;stroke:#38a0e4;stroke-width:80;stroke-dasharray:none;stroke-opacity:0.3"
       d="M 830,110 150,790"
       id="path2"
       sodipodi:nodetypes="cc"
       inkscape:label="_stick"
       sodipodi:insensitive="true" /><path
       style="display:none;fill:none;fill-opacity:0.3;stroke:#38a0e4;stroke-width:80;stroke-dasharray:none;stroke-opacity:0.3"
       d="M 830,430 V 110 H 510"
       id="path3"
       sodipodi:nodetypes="ccc"
       inkscape:label="_arrow"
       sodipodi:insensitive="true" /><path
       style="display:none;fill:none;fill-opacity:0.3;stroke:#38a0e4;stroke-width:80;stroke-dasharray:none;stroke-opacity:0.3"
       d="M 150,450 490,790"
       id="path6"
       sodipodi:nodetypes="cc"
       inkscape:label="_bar"
       sodipodi:insensitive="true" /><path
       style="baseline-shift:baseline;display:none;overflow:visible;opacity:1;vector-effect:none;fill:#38a0e4;fill-opacity:0.3;stroke:#28abe5;stroke-opacity:0.3;enable-background:accumulate;stop-color:#000000;stop-opacity:1"
       d="M 175,425 125,475 292,648 465,815 515,765 348,592 Z"
       id="path16"
       sodipodi:nodetypes="ccccccc"
       inkscape:label="bar" /><path
       style="display:none;fill:none;fill-opacity:0.3;stroke:#38a0e4;stroke-width:80.0291;stroke-dasharray:none;stroke-opacity:0.29"
       id="path21"
       sodipodi:type="arc"
       sodipodi:cx="100"
       sodipodi:cy="840"
       sodipodi:rx="359"
       sodipodi:ry="359"
       sodipodi:start="4.82"
       sodipodi:end="6.17"
       sodipodi:open="true"
       sodipodi:arc-type="arc"
       d="M 139,483 A 359,359 0 0 1 457,799"
       inkscape:label="_bow"
       sodipodi:insensitive="true" /><path
       style="display:none;fill:none;fill-opacity:0.3;stroke:#ca1fba;stroke-width:80.0291;stroke-dasharray:none;stroke-opacity:0.2"
       id="path22"
       sodipodi:type="arc"
       sodipodi:cx="43.7"
       sodipodi:cy="896"
       sodipodi:rx="359"
       sodipodi:ry="359"
       sodipodi:start="4.82"
       sodipodi:end="6.17"
       sodipodi:open="true"
       sodipodi:arc-type="arc"
       d="M 82.3,539 A 359,359 0 0 1 400,855"
       inkscape:label="_bow-zone"
       sodipodi:insensitive="true" /><path
       style="baseline-shift:baseline;display:inline;overflow:visible;vector-effect:none;fill:#38a0e4;fill-opacity:0.3;enable-background:accumulate;stop-color:#000000"
       d="M 802,81.7 125,765 175,815 858,138 Z"
       id="path18"
       sodipodi:nodetypes="ccccc"
       inkscape:label="srick" /><path
       style="baseline-shift:baseline;display:inline;overflow:visible;opacity:1;vector-effect:none;fill:#38a0e4;fill-opacity:0.3;enable-background:accumulate;stop-color:#000000;stop-opacity:1"
       d="m 510,70 v 70 l 280,10 10,280 h 70 V 70 Z"
       id="path15"
       sodipodi:nodetypes="ccccccc"
       inkscape:label="arrow" /><path
       id="path24"
       style="baseline-shift:baseline;display:inline;overflow:visible;opacity:1;vector-effect:none;fill:#38a0e4;fill-opacity:0.29;stroke:none;stroke-opacity:1;enable-background:accumulate;stop-color:#000000;stop-opacity:1"
       d="m 140,443 v 64 c 15,1 20,3 29,6 54,16 204,92 256,258 2,8 4,14 6,29 h 65 C 493,705 443,623 380,560 316,496 233,446 140,443 Z"
       inkscape:label="bow"
       sodipodi:nodetypes="ccssccsc" /></g><g
     inkscape:groupmode="layer"
     id="layer3"
     inkscape:label="ref"
     inkscape:highlight-color="#ff5338"
     style="display:inline;fill:#505050;fill-opacity:0.2"><path
       id="path8"
       style="baseline-shift:baseline;display:none;overflow:visible;opacity:1;vector-effect:none;fill:#505050;fill-opacity:0.2;enable-background:accumulate;stop-color:#000000;stop-opacity:1"
       inkscape:label="aries-v1"
       d="m 316,63 c -66,3.6 -119,57 -127,120 -6,47 -4,117 40,187 h 61 c -50,-90 -39,-133 -30,-170 10,-38 33,-57 60,-60 27,-3 51,5 69,24 18,19 33,50 42,85 29,182 27,367 34,551 h 70 c 7,-184 5,-369 34,-551 9,-35 24,-66 42,-85 18,-19 42,-27 69,-24 27,3 50,22 60,60 9,37 20,80 -30,170 h 61 C 815,300 817,230 811,183 803,120 749,67.4 684,63.7 620,60 584,85.6 564,105 535,134 517,175 500,240 483,175 465,134 436,105 418,88 380,59.6 316,63 Z"
       sodipodi:nodetypes="ssccssssccssssccssscss"
       sodipodi:insensitive="true" /><path
       id="path23"
       style="display:none;fill:#505050;fill-opacity:0.2;fill-rule:nonzero;stroke:none;stroke-width:79.968;stroke-opacity:0.3"
       inkscape:label="leo-v1"
       d="M 594,55.6 C 514,50.7 435,88.1 383,149 c -67,74 -93,197 -92,275 0,46 11,71 14,84 -96,-21 -183,52 -185,140 -7,89 77,172 166,162 92,-4 170,-102 144,-192 -17,-44 -42,-84 -49,-131 -24,-111 0,-243 95,-315 57,-48 161,-53 209,1 48,54 47,126 45,191 -14,140 -87,263 -132,393 -23,60 -23,138 32,182 63,56 175,38 215,-38 16,-30 21,-71 15,-101 h -52 c 5,42 -11,91 -55,105 C 704,923 642,880 653,825 670,737 719,659 749,574 792,463 825,340 791,223 777,163 745,102 685,78.6 656,66.3 625,57 594,55.6 Z M 279,564 c 26,-1 38,9 49,16 5,11 13,29 21,43 9,12 8,26 9,36 -3,58 -67,97 -124,69 -57,-28 -62,-111 -12,-146 16,-12 37,-17 57,-18 z"
       sodipodi:nodetypes="ssscssssszssssccsssssscccczsc"
       sodipodi:insensitive="true" /></g><metadata
     id="metadata1"><rdf:RDF><cc:Work
         rdf:about=""><cc:license
           rdf:resource="http://scripts.sil.org/OFL" /></cc:Work><cc:License
         rdf:about="http://scripts.sil.org/OFL"><cc:permits
           rdf:resource="http://scripts.sil.org/pub/OFL/Reproduction" /><cc:permits
           rdf:resource="http://scripts.sil.org/pub/OFL/Distribution" /><cc:permits
           rdf:resource="http://scripts.sil.org/pub/OFL/Embedding" /><cc:permits
           rdf:resource="http://scripts.sil.org/pub/OFL/DerivativeWorks" /><cc:requires
           rdf:resource="http://scripts.sil.org/pub/OFL/Notice" /><cc:requires
           rdf:resource="http://scripts.sil.org/pub/OFL/Attribution" /><cc:requires
           rdf:resource="http://scripts.sil.org/pub/OFL/ShareAlike" /><cc:requires
           rdf:resource="http://scripts.sil.org/pub/OFL/DerivativeRenaming" /><cc:requires
           rdf:resource="http://scripts.sil.org/pub/OFL/BundlingWhenSelling" /></cc:License></rdf:RDF></metadata><image
     preserveAspectRatio="none"
     inkscape:svg-dpi="96"
     width="1000"
     height="1000"
     xlink:href="../templates/guidelines.svg"
     id="image1"
     x="0"
     y="0"
     inkscape:label="guidelines"
     sodipodi:insensitive="true"
     style="display:inline;mix-blend-mode:normal" /></svg>
