<?xml version="1.0" encoding="UTF-8" standalone="no"?>
<!-- Created with Inkscape (http://www.inkscape.org/) -->

<svg
   width="1000"
   height="1000"
   viewBox="0 0 1000 1000"
   version="1.1"
   id="svg1"
   inkscape:version="1.4.3 (0d15f75042, 2025-12-25)"
   sodipodi:docname="saturn.svg"
   xml:space="preserve"
   xmlns:inkscape="http://www.inkscape.org/namespaces/inkscape"
   xmlns:sodipodi="http://sodipodi.sourceforge.net/DTD/sodipodi-0.dtd"
   xmlns:xlink="http://www.w3.org/1999/xlink"
   xmlns="http://www.w3.org/2000/svg"
   xmlns:svg="http://www.w3.org/2000/svg"
   xmlns:rdf="http://www.w3.org/1999/02/22-rdf-syntax-ns#"
   xmlns:cc="http://creativecommons.org/ns#"><sodipodi:namedview
     id="namedview1"
     pagecolor="#ffffff"
     bordercolor="#999999"
     borderopacity="1"
     inkscape:showpageshadow="2"
     inkscape:pageopacity="0"
     inkscape:pagecheckerboard="0"
     inkscape:deskcolor="#d1d1d1"
     inkscape:document-units="px"
     inkscape:zoom="0.5"
     inkscape:cx="642"
     inkscape:cy="250"
     inkscape:window-width="1216"
     inkscape:window-height="1027"
     inkscape:window-x="0"
     inkscape:window-y="0"
     inkscape:window-maximized="0"
     inkscape:current-layer="layer3"
     showgrid="true"><inkscape:grid
       id="grid1"
       units="px"
       originx="0"
       originy="0"
       spacingx="10"
       spacingy="10"
       empcolor="#e05050"
       empopacity="0.302"
       color="#505050"
       opacity="0.07843137"
       empspacing="10"
       enabled="true"
       visible="true" /></sodipodi:namedview><defs
     id="defs1" /><g
     inkscape:label="glyph"
     inkscape:groupmode="layer"
     id="layer1"
     style="display:inline;fill:#dd2138;fill-opacity:0.302;stroke:none"><path
       id="path18"
       style="baseline-shift:baseline;display:inline;overflow:visible;opacity:1;vector-effect:none;fill:#dd2138;fill-opacity:0.302;stroke:none;enable-background:accumulate;stop-color:#000000;stop-opacity:1"
       d="M 300,70 V 200 H 180 v 80 h 120 v 349 c 0,74 35,147 95,192 l 48,-64 c -49,-40 -66,-87 -61,-149 9,-63 53,-115 116,-132 69,-19 142,10 179,71 37,62 30,140 -19,192 -43,43 -53,91 -36,149 20,55 72,92 131,92 h 87 v -80 h -87 c -26,1 -47,-15 -56,-39 -9,-24 -1,-51 18,-67 74,-79 86,-196 30,-288 -45,-75 -126,-118 -210,-116 -19,0 -39,3 -58,9 -37,10 -70,28 -97,52 V 280 H 600 V 200 H 380 V 70 Z"
       sodipodi:nodetypes="cccccsccssssssccssssssccccccc"
       inkscape:label="saturn-v4"
       sodipodi:insensitive="true" /></g><g
     inkscape:groupmode="layer"
     id="layer4"
     inkscape:label="archive"
     style="display:none;fill:#ddb225;fill-opacity:0.302"><path
       id="path6"
       style="baseline-shift:baseline;display:inline;overflow:visible;opacity:1;vector-effect:none;fill:#ddb225;fill-opacity:0.302;stroke:none;enable-background:accumulate;stop-color:#000000;stop-opacity:1"
       d="M 300,70 V 200 H 180 v 80 h 120 v 330 190 h 80 V 610 c 0,-57 37,-108 92,-124 55,-17 114,4 146,52 32,48 29,110 -11,159 -40,49 -50,123 -19,184 29,61 92,100 159,99 h 93 v -80 h -93 c -39,-1 -68,-20 -87,-54 -17,-37 -11,-71 13,-103 58,-72 63,-173 12,-250 -39,-57 -102,-91 -169,-93 -22,-1 -45,2 -67,9 -26,8 -49,20 -69,36 V 280 H 600 V 200 H 380 V 70 Z"
       sodipodi:nodetypes="ccccccccssscsscccsssssccccccc"
       inkscape:label="saturn-v1"
       sodipodi:insensitive="true" /><path
       id="path11"
       style="baseline-shift:baseline;display:inline;overflow:visible;opacity:1;vector-effect:none;fill:#ddb225;fill-opacity:0.302;stroke:none;enable-background:accumulate;stop-color:#000000;stop-opacity:1"
       d="M 300,70 V 200 H 180 v 80 h 120 v 520 h 80 V 629 c 1,-72 48,-134 118,-153 69,-19 142,10 179,71 37,62 30,140 -19,192 -43,43 -53,91 -36,149 20,55 72,92 131,92 h 87 v -80 h -87 c -26,1 -47,-15 -56,-39 -9,-24 -1,-51 18,-67 74,-79 86,-196 30,-288 -45,-75 -126,-118 -210,-116 -19,0 -39,3 -58,9 -37,10 -70,28 -97,52 V 280 H 600 V 200 H 380 V 70 Z"
       sodipodi:nodetypes="cccccccssssssccssssssccccccc"
       inkscape:label="saturn-v2"
       sodipodi:insensitive="true" /><path
       id="path17"
       style="baseline-shift:baseline;display:inline;overflow:visible;opacity:1;vector-effect:none;fill:#ddb225;fill-opacity:0.302;stroke:none;enable-background:accumulate;stop-color:#000000;stop-opacity:1"
       d="M 300,70 V 200 H 180 v 80 h 120 v 349 h 80 c 1,-72 48,-134 118,-153 69,-19 142,10 179,71 37,62 30,140 -19,192 -43,43 -53,91 -36,149 20,55 72,92 131,92 h 87 v -80 h -87 c -26,1 -47,-15 -56,-39 -9,-24 -1,-51 18,-67 74,-79 86,-196 30,-288 -45,-75 -126,-118 -210,-116 -19,0 -39,3 -58,9 -37,10 -70,28 -97,52 V 280 H 600 V 200 H 380 V 70 Z"
       sodipodi:nodetypes="ccccccssssssccssssssccccccc"
       inkscape:label="saturn-v3"
       sodipodi:insensitive="true" /></g><g
     inkscape:label="construction"
     inkscape:groupmode="layer"
     id="layer2"
     style="display:none;fill:none;stroke:#157fd9;stroke-opacity:0.302"><path
       style="fill:none;fill-opacity:0.3;stroke:#157fd9;stroke-width:80;stroke-opacity:0.302"
       d="M 340,70 V 800"
       id="path2" /><path
       style="fill:none;fill-opacity:0.3;stroke:#157fd9;stroke-width:80.0151;stroke-dasharray:none;stroke-opacity:0.302"
       d="M 180,240 H 600"
       id="path3" /><path
       style="display:inline;fill:none;fill-opacity:0.3;stroke:#157fd9;stroke-width:80;stroke-dasharray:none;stroke-opacity:0.302"
       id="path4"
       sodipodi:type="arc"
       sodipodi:cx="540"
       sodipodi:cy="630"
       sodipodi:rx="200"
       sodipodi:ry="200"
       sodipodi:start="3.15"
       sodipodi:end="0.751"
       sodipodi:open="true"
       sodipodi:arc-type="arc"
       d="M 340,629 A 200,200 0 0 1 487,437 200,200 0 0 1 711,526 200,200 0 0 1 686,766" /><path
       style="fill:none;fill-opacity:0.3;stroke:#157fd9;stroke-width:80;stroke-dasharray:none;stroke-opacity:0.302"
       id="circle4"
       sodipodi:type="arc"
       sodipodi:cx="753"
       sodipodi:cy="840"
       sodipodi:rx="99.5"
       sodipodi:ry="99.5"
       sodipodi:start="1.56"
       sodipodi:end="4.03"
       sodipodi:open="true"
       sodipodi:arc-type="arc"
       d="M 754,939 A 99.5,99.5 0 0 1 659,874 99.5,99.5 0 0 1 690,763" /><path
       style="fill:none;fill-opacity:0.3;stroke:#157fd9;stroke-width:79.9669;stroke-dasharray:none;stroke-opacity:0.302"
       d="m 753,940 h 87"
       id="path5"
       sodipodi:nodetypes="cc" /><path
       style="display:inline;fill:none;fill-opacity:0.3;stroke:#157fd9;stroke-width:80;stroke-dasharray:none;stroke-opacity:0.302"
       id="path19"
       sodipodi:type="arc"
       sodipodi:cx="540"
       sodipodi:cy="630"
       sodipodi:rx="200"
       sodipodi:ry="200"
       sodipodi:start="2.22"
       sodipodi:end="3.28"
       sodipodi:open="true"
       sodipodi:arc-type="arc"
       d="M 419,789 A 200,200 0 0 1 342,602"
       inkscape:label="tail-v4" /></g><g
     inkscape:groupmode="layer"
     id="layer3"
     inkscape:label="ref"
     inkscape:highlight-color="#ff5338" /><metadata
     id="metadata1"><rdf:RDF><cc:Work
         rdf:about=""><cc:license
           rdf:resource="http://scripts.sil.org/OFL" /></cc:Work><cc:License
         rdf:about="http://scripts.sil.org/OFL"><cc:permits
           rdf:resource="http://scripts.sil.org/pub/OFL/Reproduction" /><cc:permits
           rdf:resource="http://scripts.sil.org/pub/OFL/Distribution" /><cc:permits
           rdf:resource="http://scripts.sil.org/pub/OFL/Embedding" /><cc:permits
           rdf:resource="http://scripts.sil.org/pub/OFL/DerivativeWorks" /><cc:requires
           rdf:resource="http://scripts.sil.org/pub/OFL/Notice" /><cc:requires
           rdf:resource="http://scripts.sil.org/pub/OFL/Attribution" /><cc:requires
           rdf:resource="http://scripts.sil.org/pub/OFL/ShareAlike" /><cc:requires
           rdf:resource="http://scripts.sil.org/pub/OFL/DerivativeRenaming" /><cc:requires
           rdf:resource="http://scripts.sil.org/pub/OFL/BundlingWhenSelling" /></cc:License></rdf:RDF></metadata><image
     preserveAspectRatio="none"
     inkscape:svg-dpi="96"
     width="1000"
     height="1000"
     xlink:href="../templates/guidelines.svg"
     id="image1"
     x="0"
     y="0"
     inkscape:label="guidelines"
     sodipodi:insensitive="true"
     style="display:inline;mix-blend-mode:normal" /></svg>
