<?xml version="1.0" encoding="UTF-8" standalone="no"?>
<!-- Created with Inkscape (http://www.inkscape.org/) -->

<svg
   width="1000"
   height="1000"
   viewBox="0 0 1000 1000"
   version="1.1"
   id="svg1"
   inkscape:version="1.4.3 (0d15f75042, 2025-12-25)"
   sodipodi:docname="scorpio.svg"
   xml:space="preserve"
   xmlns:inkscape="http://www.inkscape.org/namespaces/inkscape"
   xmlns:sodipodi="http://sodipodi.sourceforge.net/DTD/sodipodi-0.dtd"
   xmlns:xlink="http://www.w3.org/1999/xlink"
   xmlns="http://www.w3.org/2000/svg"
   xmlns:svg="http://www.w3.org/2000/svg"
   xmlns:rdf="http://www.w3.org/1999/02/22-rdf-syntax-ns#"
   xmlns:cc="http://creativecommons.org/ns#"><sodipodi:namedview
     id="namedview1"
     pagecolor="#ffffff"
     bordercolor="#999999"
     borderopacity="1"
     inkscape:showpageshadow="2"
     inkscape:pageopacity="0"
     inkscape:pagecheckerboard="0"
     inkscape:deskcolor="#d1d1d1"
     inkscape:document-units="px"
     inkscape:zoom="0.707"
     inkscape:cx="599"
     inkscape:cy="450"
     inkscape:window-width="957"
     inkscape:window-height="1027"
     inkscape:window-x="0"
     inkscape:window-y="0"
     inkscape:window-maximized="0"
     inkscape:current-layer="svg1"
     showgrid="true"
     showguides="true"><inkscape:grid
       id="grid1"
       units="px"
       originx="0"
       originy="0"
       spacingx="10"
       spacingy="10"
       empcolor="#e05050"
       empopacity="0.302"
       color="#505050"
       opacity="0.07843137"
       empspacing="10"
       enabled="true"
       visible="true" /></sodipodi:namedview><defs
     id="defs1" /><g
     inkscape:label="glyph"
     inkscape:groupmode="layer"
     id="layer1"
     style="display:inline;fill:#f53020;fill-opacity:0.3"><path
       id="path8"
       style="display:inline;fill:#f53020;fill-opacity:0.3;stroke:none;baseline-shift:baseline;overflow:visible;opacity:1;vector-effect:none;enable-background:accumulate;stop-color:#000000;stop-opacity:1"
       inkscape:label="scorpio-v2"
       d="M 388 57.3 C 363 57.3 336 69.7 320 90 C 295 120 276 154 260 190 C 260 190 245 110 227 70 L 170 70 C 170 70 200 130 200 250 L 200 800 L 280 800 L 280 260 C 280 200 342 130 370 130 C 388 130 393 153 397 170 C 400 187 400 216 400 245 L 400 800 L 480 800 L 480 260 C 480 200 541 130 566 130 C 580 130 588 153 593 170 C 598 187 600 216 600 245 L 600 600 C 600 696 608 774 749 892 C 642 888 558 903 558 903 L 558 956 C 693 950 776 956 890 980 C 863 875 848 764 864 656 L 811 656 C 811 656 786 735 795 851 C 731 795 680 745 680 627 L 680 246 C 680 169 652 57.3 580 57.3 C 555 57.3 532 71.7 516 90 C 490 120 469 161 469 161 C 459 116 428 57.3 388 57.3 z " /></g><g
     inkscape:groupmode="layer"
     id="layer4"
     inkscape:label="archive"><path
       id="path4"
       style="baseline-shift:baseline;display:none;overflow:visible;opacity:1;vector-effect:none;fill:#f53020;fill-opacity:0.3;stroke:none;enable-background:accumulate;stop-color:#000000;stop-opacity:1"
       inkscape:label="scorpio-v1"
       d="m 388,57.3 c -25,0 -52,12.4 -68,32.7 -25,30 -44,64 -60,100 0,0 -15,-80 -33,-120 h -57 c 0,0 30,60 30,180 v 550 h 80 V 260 c 0,-60 62,-130 90,-130 18,0 23,23 27,40 3,17 3,46 3,75 v 555 h 80 V 260 c 0,-60 61,-130 86,-130 14,0 22,23 27,40 5,17 7,46 7,75 v 405 c 0,34 0,141 125,235 -102,-3 -181,11 -181,11 v 53 c 135,-6 218,0 332,24 C 849,868 834,757 850,649 h -53 c 0,0 -26,80 -16,197 C 695,777 680,737 680,664 V 246 C 680,169 652,57.3 580,57.3 555,57.3 532,71.7 516,90 490,120 469,161 469,161 459,116 428,57.3 388,57.3 Z" /></g><g
     inkscape:label="construction"
     inkscape:groupmode="layer"
     id="layer2"
     style="display:none;fill:#4a93b8;fill-opacity:0.299;stroke:none"><path
       style="display:none;fill:none;fill-opacity:0.2;stroke:#38a0e4;stroke-width:70;stroke-dasharray:none;stroke-opacity:0.3"
       d="m 844,667 c 0,0 -37,114 0,270 -143,-24 -280,0 -280,0"
       id="path1"
       inkscape:label="_stroke-tail"
       sodipodi:nodetypes="ccc"
       sodipodi:insensitive="true" /><path
       style="baseline-shift:baseline;display:inline;overflow:visible;opacity:1;vector-effect:none;fill:#38a0e4;fill-opacity:0.3;enable-background:accumulate;stop-color:#000000;stop-opacity:1"
       d="m 811,656 c 0,0 -32,100 -11,240 -130,-13 -242,7 -242,7 v 53 c 135,-6 218,0 332,24 C 863,875 848,764 864,656 Z"
       id="path3"
       sodipodi:nodetypes="ccccccc"
       inkscape:label="tail"
       sodipodi:insensitive="true" /><path
       d="M 200,800 V 250 C 200,130 170,70 170,70 h 57 c 18,40 33,120 33,120 16,-36 35,-70 60,-100 16,-20.3 43,-32.7 68,-32.7 40,0 71,58.7 81,103.7 0,0 21,-41 47,-71 16,-18.3 39,-32.7 64,-32.7 72,0 100,111.7 100,188.7 v 381 c 0,139 70,183 150,255 l -34,48 C 610,790 600,706 600,600 V 245 c 0,-29 -2,-58 -7,-75 -5,-17 -13,-40 -27,-40 -25,0 -86,70 -86,130 V 800 H 400 V 245 c 0,-29 0,-58 -3,-75 -4,-17 -9,-40 -27,-40 -28,0 -90,70 -90,130 v 540 z"
       id="path2"
       style="display:inline;fill:#4a93b8;fill-opacity:0.299;stroke:none;stroke-width:1.00072"
       inkscape:label="trans-jbm-m-mod"
       sodipodi:nodetypes="cscccsscssssccsssssccsssscc"
       sodipodi:insensitive="true" /></g><g
     inkscape:groupmode="layer"
     id="layer3"
     inkscape:label="ref"
     inkscape:highlight-color="#ff5338"
     style="fill:#505050;fill-opacity:0.2"><path
       id="path5"
       style="baseline-shift:baseline;display:none;overflow:visible;opacity:1;vector-effect:none;fill:#505050;fill-opacity:0.2;stroke:none;enable-background:accumulate;stop-color:#000000;stop-opacity:1"
       inkscape:label="virgo-v1"
       d="m 388,57.3 c -25,0 -52,12.4 -68,32.7 -25,30 -44,64 -60,100 0,0 -15,-80 -33,-120 h -57 c 0,0 30,60 30,180 v 550 h 80 V 260 c 0,-60 62,-130 90,-130 18,0 23,23 27,40 3,17 3,46 3,75 v 555 h 80 V 260 c 0,-60 61,-130 86,-130 14,0 22,23 27,40 5,17 7,46 7,75 v 485 c 0,20 3,73 9,93 -27,14 -58,26 -99,37 v 55 c 40,-11 80,-25 116,-42 15,34 35,72 61,107 h 73 c -27,-35 -56,-87 -71,-143 39,-27 73,-62 99,-107 59,-104 62,-170 71,-230 10,-74 3,-144 -11,-188 -15,-43 -43,-71 -84,-75 -42,-4 -66,23 -84,45 V 246 C 680,169 652,57.3 580,57.3 555,57.3 532,71.7 516,90 490,120 469,161 469,161 459,116 428,57.3 388,57.3 Z M 745,298 c 9,1 18,5 25,14 25,33 28,108 24,174 -4,66 -15,157 -74,234 -14,18 -27,34 -40,48 V 370 c 0,-32 30,-75 65,-72 z"
       sodipodi:nodetypes="sscccsccssssccssssscccccccsssccssscssssscss" /></g><metadata
     id="metadata1"><rdf:RDF><cc:Work
         rdf:about=""><cc:license
           rdf:resource="http://scripts.sil.org/OFL" /></cc:Work><cc:License
         rdf:about="http://scripts.sil.org/OFL"><cc:permits
           rdf:resource="http://scripts.sil.org/pub/OFL/Reproduction" /><cc:permits
           rdf:resource="http://scripts.sil.org/pub/OFL/Distribution" /><cc:permits
           rdf:resource="http://scripts.sil.org/pub/OFL/Embedding" /><cc:permits
           rdf:resource="http://scripts.sil.org/pub/OFL/DerivativeWorks" /><cc:requires
           rdf:resource="http://scripts.sil.org/pub/OFL/Notice" /><cc:requires
           rdf:resource="http://scripts.sil.org/pub/OFL/Attribution" /><cc:requires
           rdf:resource="http://scripts.sil.org/pub/OFL/ShareAlike" /><cc:requires
           rdf:resource="http://scripts.sil.org/pub/OFL/DerivativeRenaming" /><cc:requires
           rdf:resource="http://scripts.sil.org/pub/OFL/BundlingWhenSelling" /></cc:License></rdf:RDF></metadata><image
     preserveAspectRatio="none"
     inkscape:svg-dpi="96"
     width="1000"
     height="1000"
     xlink:href="../templates/guidelines.svg"
     id="image1"
     x="0"
     y="0"
     inkscape:label="guidelines"
     sodipodi:insensitive="true"
     style="display:inline;mix-blend-mode:normal" /></svg>
