<?xml version="1.0" encoding="UTF-8" standalone="no"?>
<!-- Created with Inkscape (http://www.inkscape.org/) -->

<svg
   width="1000"
   height="1000"
   viewBox="0 0 1000 1000"
   version="1.1"
   id="svg1"
   inkscape:version="1.4.3 (0d15f75042, 2025-12-25)"
   sodipodi:docname="taurus.svg"
   xml:space="preserve"
   xmlns:inkscape="http://www.inkscape.org/namespaces/inkscape"
   xmlns:sodipodi="http://sodipodi.sourceforge.net/DTD/sodipodi-0.dtd"
   xmlns:xlink="http://www.w3.org/1999/xlink"
   xmlns="http://www.w3.org/2000/svg"
   xmlns:svg="http://www.w3.org/2000/svg"
   xmlns:rdf="http://www.w3.org/1999/02/22-rdf-syntax-ns#"
   xmlns:cc="http://creativecommons.org/ns#"><sodipodi:namedview
     id="namedview1"
     pagecolor="#ffffff"
     bordercolor="#999999"
     borderopacity="1"
     inkscape:showpageshadow="2"
     inkscape:pageopacity="0"
     inkscape:pagecheckerboard="0"
     inkscape:deskcolor="#d1d1d1"
     inkscape:document-units="px"
     inkscape:zoom="0.8"
     inkscape:cx="302"
     inkscape:cy="540"
     inkscape:window-width="1920"
     inkscape:window-height="1080"
     inkscape:window-x="0"
     inkscape:window-y="0"
     inkscape:window-maximized="0"
     inkscape:current-layer="layer3"
     showgrid="true"><inkscape:grid
       id="grid1"
       units="px"
       originx="0"
       originy="0"
       spacingx="10"
       spacingy="10"
       empcolor="#e05050"
       empopacity="0.302"
       color="#505050"
       opacity="0.07843137"
       empspacing="10"
       enabled="true"
       visible="true" /></sodipodi:namedview><defs
     id="defs1"><inkscape:path-effect
       effect="mirror_symmetry"
       start_point="500,810"
       end_point="500,60"
       center_point="500,435"
       id="path-effect4"
       is_visible="true"
       lpeversion="1.2"
       lpesatellites="#path3"
       mode="free"
       discard_orig_path="false"
       fuse_paths="false"
       oposite_fuse="false"
       split_items="true"
       split_open="false"
       link_styles="false" /><inkscape:path-effect
       effect="mirror_symmetry"
       start_point="500,810"
       end_point="500,60"
       center_point="500,435"
       id="path-effect16"
       is_visible="true"
       lpeversion="1.2"
       lpesatellites="#path16"
       mode="free"
       discard_orig_path="false"
       fuse_paths="false"
       oposite_fuse="false"
       split_items="true"
       split_open="false"
       link_styles="false" /><inkscape:path-effect
       effect="powerstroke"
       message=""
       id="path-effect11"
       is_visible="true"
       lpeversion="1.3"
       scale_width="1"
       interpolator_type="CubicBezierJohan"
       interpolator_beta="0.2"
       start_linecap_type="zerowidth"
       end_linecap_type="zerowidth"
       offset_points="9.01e-18,5"
       linejoin_type="extrp_arc"
       miter_limit="4"
       not_jump="false"
       sort_points="true" /><inkscape:path-effect
       effect="powerstroke"
       message=""
       id="path-effect10"
       is_visible="true"
       lpeversion="1.3"
       scale_width="1"
       interpolator_type="Linear"
       interpolator_beta="0.257"
       start_linecap_type="butt"
       end_linecap_type="butt"
       offset_points="0,39.4 | 1.24,35.9 | 2.92,25"
       linejoin_type="bevel"
       miter_limit="0"
       not_jump="false"
       sort_points="true" /><inkscape:path-effect
       effect="mirror_symmetry"
       start_point="500,60"
       end_point="500,350"
       center_point="500,205"
       id="path-effect9"
       is_visible="true"
       lpeversion="1.2"
       lpesatellites=""
       mode="free"
       discard_orig_path="false"
       fuse_paths="true"
       oposite_fuse="false"
       split_items="false"
       split_open="false"
       link_styles="false" /><inkscape:path-effect
       effect="fill_between_many"
       method="bsplinespiro"
       autoreverse="false"
       close="false"
       join="false"
       linkedpaths="#path10,0,1"
       id="path-effect12" /></defs><g
     inkscape:label="glyph"
     inkscape:groupmode="layer"
     id="layer1"
     style="display:inline;fill:#d43f50;fill-opacity:0.3"><path
       id="path2"
       style="display:inline;fill:#d43f50;fill-opacity:0.3;baseline-shift:baseline;overflow:visible;opacity:1;vector-effect:none;enable-background:accumulate;stop-color:#000000;stop-opacity:1"
       inkscape:label="taurus-v1"
       d="M 170 60 L 170 120 C 240 120 273 155 283 191 C 300 246 307 301 351 339 C 314 360 282 389 259 425 C 208 504 207 605 258 684 C 309 763 401 810 500 810 C 599 810 691 763 742 684 C 793 605 792 504 741 425 C 718 389 686 360 649 339 C 693 301 700 246 717 191 C 727 155 760 120 830 120 L 830 60 C 783 59.8 733 72.7 702 97 C 650 142 648 182 625 240 C 604 289 576 300 500 300 C 424 300 396 289 375 240 C 352 182 350 142 298 97 C 267 72.7 217 59.8 170 60 z M 500 380 C 522 380 619 385 676 470 C 714 528 714 602 676 659 C 639 717 572 750 500 750 C 428 750 361 717 324 659 C 286 602 286 528 324 470 C 381 385 478 380 500 380 z " /></g><g
     inkscape:label="construction"
     inkscape:groupmode="layer"
     id="layer2"
     style="display:inline;fill:#005cb5;fill-opacity:0.299"><path
       style="display:none;fill:none;fill-opacity:0.2;stroke:#097ae7;stroke-width:80.1021;stroke-opacity:0.3"
       id="path5"
       inkscape:label="_stroke-ring"
       sodipodi:type="arc"
       sodipodi:cx="500"
       sodipodi:cy="555"
       sodipodi:rx="240"
       sodipodi:ry="215"
       sodipodi:start="4.71"
       sodipodi:end="1.57"
       sodipodi:open="true"
       sodipodi:arc-type="arc"
       d="m 500,340 a 240,215 0 0 1 208,107 240,215 0 0 1 0,215 240,215 0 0 1 -208,108" /><path
       style="display:none;fill:none;fill-opacity:0.2;stroke:#097ae7;stroke-width:80;stroke-dasharray:none;stroke-opacity:0.3"
       id="path9"
       inkscape:label="_stroke-face"
       sodipodi:type="arc"
       sodipodi:cx="500"
       sodipodi:cy="565"
       sodipodi:rx="165"
       sodipodi:ry="145"
       sodipodi:start="4.71"
       sodipodi:end="1.57"
       sodipodi:open="true"
       sodipodi:arc-type="arc"
       d="m 500,420 a 165,145 0 0 1 143,72 165,145 0 0 1 0,145 165,145 0 0 1 -143,73" /><path
       style="display:none;fill:none;fill-opacity:0.2;fill-rule:nonzero;stroke:#097ae7;stroke-width:80;stroke-dasharray:none;stroke-opacity:0.3"
       d="M 500,340 C 278,340 360,180 282,127 239,97.6 191,100 170,100"
       id="path6"
       sodipodi:nodetypes="csc"
       inkscape:label="_stroke-horn"
       sodipodi:insensitive="true" /><path
       id="path12"
       style="baseline-shift:baseline;display:none;overflow:visible;opacity:1;vector-effect:none;fill:#097ae7;fill-opacity:0.3;enable-background:accumulate;stop-color:#000000;stop-opacity:1"
       d="m 499,300 1,80 c 9,0 18,1 27,2 44,6 107,25 149,88 38,58 38,132 0,189 -37,58 -104,91 -176,91 v 60 c 99,0 191,-47 242,-126 51,-79 50,-180 -1,-259 C 690,346 598,300 499,300 Z"
       inkscape:label="_path-face"
       sodipodi:nodetypes="ccsssccssc" /><path
       style="baseline-shift:baseline;display:none;overflow:visible;opacity:1;vector-effect:none;fill:#097ae7;fill-opacity:0.3;enable-background:accumulate;stop-color:#000000;stop-opacity:1"
       d="m 170,60 v 60 c 70,0 103,35 113,71 19,60 25,120 81,158 33,21 76,31 136,31 V 300 C 424,300 396,289 375,240 352,182 350,142 298,97 267,72.7 217,59.8 170,60 Z"
       id="path14"
       inkscape:label="_path-horn"
       sodipodi:nodetypes="ccssccssc" /><path
       id="path15"
       style="baseline-shift:baseline;display:none;overflow:visible;opacity:1;vector-effect:none;fill:#097ae7;fill-opacity:0.3;enable-background:accumulate;stop-color:#000000;stop-opacity:1"
       inkscape:label="origin-half"
       d="m 170,60 v 60 c 70,0 103,35 113,71 19,60 25,120 81,158 33,21 76,31 136,31 22,0 119,5 176,90 38,58 38,132 0,189 -37,58 -104,91 -176,91 v 60 c 99,0 191,-47 242,-126 51,-79 50,-180 -1,-259 C 690,346 599,300 500,300 v 0 C 424,300 396,289 375,240 352,182 350,142 298,97 267,72.7 217,59.8 170,60 Z"
       sodipodi:nodetypes="ccsssssccssssssc"
       inkscape:path-effect="#path-effect16"
       inkscape:original-d="m 170,60 v 60 c 70,0 103,35 113,71 19,60 25,120 81,158 33,21 76,31 136,31 22,0 119,5 176,90 38,58 38,132 0,189 -37,58 -104,91 -176,91 v 60 c 99,0 191,-47 242,-126 51,-79 50,-180 -1,-259 C 690,346 599,300 500,300 v 0 C 424,300 396,289 375,240 352,182 350,142 298,97 267,72.7 217,59.8 170,60 Z" /><path
       id="path16"
       d="m 170,60 v 60 c 70,0 103,35 113,71 19,60 25,120 81,158 33,21 76,31 136,31 22,0 119,5 176,90 38,58 38,132 0,189 -37,58 -104,91 -176,91 v 60 c 99,0 191,-47 242,-126 51,-79 50,-180 -1,-259 C 690,346 599,300 500,300 v 0 C 424,300 396,289 375,240 352,182 350,142 298,97 267,72.7 217,59.8 170,60 Z"
       style="baseline-shift:baseline;display:none;overflow:visible;opacity:1;vector-effect:none;fill:#097ae7;fill-opacity:0.3;enable-background:accumulate;stop-color:#000000;stop-opacity:1"
       transform="matrix(-1,0,0,1,1000,0)"
       inkscape:label="mirror" /></g><g
     inkscape:groupmode="layer"
     id="layer3"
     inkscape:label="ref"
     inkscape:highlight-color="#ff5338"
     style="fill:#505050;fill-opacity:0.2"><path
       id="path8"
       style="baseline-shift:baseline;display:none;overflow:visible;opacity:1;vector-effect:none;fill:#505050;fill-opacity:0.2;enable-background:accumulate;stop-color:#000000;stop-opacity:1"
       inkscape:label="aries-v1"
       d="m 316,63 c -66,3.6 -119,57 -127,120 -6,47 -4,117 40,187 h 61 c -50,-90 -39,-133 -30,-170 10,-38 33,-57 60,-60 27,-3 51,5 69,24 18,19 33,50 42,85 29,182 27,367 34,551 h 70 c 7,-184 5,-369 34,-551 9,-35 24,-66 42,-85 18,-19 42,-27 69,-24 27,3 50,22 60,60 9,37 20,80 -30,170 h 61 C 815,300 817,230 811,183 803,120 749,67.4 684,63.7 620,60 584,85.6 564,105 535,134 517,175 500,240 483,175 465,134 436,105 418,88 380,59.6 316,63 Z"
       sodipodi:nodetypes="ssccssssccssssccssscss"
       sodipodi:insensitive="true" /></g><metadata
     id="metadata1"><rdf:RDF><cc:Work
         rdf:about=""><cc:license
           rdf:resource="http://scripts.sil.org/OFL" /></cc:Work><cc:License
         rdf:about="http://scripts.sil.org/OFL"><cc:permits
           rdf:resource="http://scripts.sil.org/pub/OFL/Reproduction" /><cc:permits
           rdf:resource="http://scripts.sil.org/pub/OFL/Distribution" /><cc:permits
           rdf:resource="http://scripts.sil.org/pub/OFL/Embedding" /><cc:permits
           rdf:resource="http://scripts.sil.org/pub/OFL/DerivativeWorks" /><cc:requires
           rdf:resource="http://scripts.sil.org/pub/OFL/Notice" /><cc:requires
           rdf:resource="http://scripts.sil.org/pub/OFL/Attribution" /><cc:requires
           rdf:resource="http://scripts.sil.org/pub/OFL/ShareAlike" /><cc:requires
           rdf:resource="http://scripts.sil.org/pub/OFL/DerivativeRenaming" /><cc:requires
           rdf:resource="http://scripts.sil.org/pub/OFL/BundlingWhenSelling" /></cc:License></rdf:RDF></metadata><image
     preserveAspectRatio="none"
     inkscape:svg-dpi="96"
     width="1000"
     height="1000"
     xlink:href="../templates/guidelines.svg"
     id="image1"
     x="0"
     y="0"
     inkscape:label="guidelines"
     sodipodi:insensitive="true"
     style="display:inline;mix-blend-mode:normal" /></svg>
