<?xml version="1.0" encoding="UTF-8" standalone="no"?>
<!-- Created with Inkscape (http://www.inkscape.org/) -->

<svg
   width="1000"
   height="1000"
   viewBox="0 0 1000 1000"
   version="1.1"
   id="svg1"
   inkscape:version="1.4.3 (0d15f75042, 2025-12-25)"
   sodipodi:docname="uranus.svg"
   xml:space="preserve"
   xmlns:inkscape="http://www.inkscape.org/namespaces/inkscape"
   xmlns:sodipodi="http://sodipodi.sourceforge.net/DTD/sodipodi-0.dtd"
   xmlns:xlink="http://www.w3.org/1999/xlink"
   xmlns="http://www.w3.org/2000/svg"
   xmlns:svg="http://www.w3.org/2000/svg"
   xmlns:rdf="http://www.w3.org/1999/02/22-rdf-syntax-ns#"
   xmlns:cc="http://creativecommons.org/ns#"><sodipodi:namedview
     id="namedview1"
     pagecolor="#ffffff"
     bordercolor="#999999"
     borderopacity="1"
     inkscape:showpageshadow="2"
     inkscape:pageopacity="0"
     inkscape:pagecheckerboard="0"
     inkscape:deskcolor="#d1d1d1"
     inkscape:document-units="px"
     inkscape:zoom="0.501"
     inkscape:cx="381"
     inkscape:cy="457"
     inkscape:window-width="957"
     inkscape:window-height="1027"
     inkscape:window-x="0"
     inkscape:window-y="0"
     inkscape:window-maximized="0"
     inkscape:current-layer="svg1"
     showgrid="true"><inkscape:grid
       id="grid1"
       units="px"
       originx="0"
       originy="0"
       spacingx="10"
       spacingy="10"
       empcolor="#e05050"
       empopacity="0.302"
       color="#505050"
       opacity="0.07843137"
       empspacing="10"
       enabled="true"
       visible="true" /></sodipodi:namedview><defs
     id="defs1" /><g
     inkscape:label="glyph"
     inkscape:groupmode="layer"
     id="layer1"
     style="display:inline;stroke:none;stroke-opacity:0.298;fill:#f81117;fill-opacity:0.3"><path
       id="circle3"
       style="baseline-shift:baseline;display:inline;overflow:visible;vector-effect:none;fill:#f81117;fill-opacity:0.3;stroke-opacity:1;enable-background:accumulate;stop-color:#000000;stop-opacity:1;opacity:1"
       d="M 816 37.4 C 729 99.2 673 195 662 300 L 540 300 L 540 70 L 460 70 L 460 300 L 338 300 C 327 196 272 100 185 38.4 L 138 104 C 215 158 261 247 260 341 C 260 435 214 523 137 577 L 183 643 C 270 582 327 485 338 380 L 460 380 L 460 617 C 376 636 313 711 313 800 C 313 903 397 987 500 987 C 603 987 687 903 687 800 C 687 711 624 636 540 617 L 540 380 L 662 380 C 674 485 730 581 817 642 L 863 576 C 786 522 740 434 740 340 C 740 246 785 157 862 103 L 816 37.4 z M 500 693 C 560 693 607 740 607 800 C 607 860 560 907 500 907 C 440 907 393 860 393 800 C 393 740 440 693 500 693 z "
       inkscape:label="uranus-v1" /></g><g
     inkscape:groupmode="layer"
     id="layer7"
     inkscape:label="archive" /><g
     inkscape:label="construction"
     inkscape:groupmode="layer"
     id="layer2"
     style="display:none;fill:none;fill-opacity:0.3;stroke:#097ae7;stroke-opacity:0.3"><circle
       style="fill:none;fill-opacity:0.3;stroke:#097ae7;stroke-width:79.5291;stroke-dasharray:none;stroke-opacity:0.3"
       id="path3"
       cx="500"
       cy="800"
       r="147"
       inkscape:label="path3" /><path
       style="fill:none;fill-opacity:0.3;stroke:#097ae7;stroke-width:80.0814;stroke-dasharray:none;stroke-opacity:0.3"
       d="M 500,70 V 650"
       id="path4"
       sodipodi:nodetypes="cc" /><path
       style="fill:none;fill-opacity:0.3;stroke:#097ae7;stroke-width:80.0394;stroke-dasharray:none;stroke-opacity:0.3"
       d="M 300,340 H 700"
       id="path6" /><path
       style="display:inline;fill:none;fill-opacity:0.3;stroke:#097ae7;stroke-width:80;stroke-dasharray:none;stroke-opacity:0.3"
       id="path1"
       inkscape:label="origin-left"
       sodipodi:type="arc"
       sodipodi:cx="-29.5"
       sodipodi:cy="340"
       sodipodi:rx="330"
       sodipodi:ry="330"
       sodipodi:start="5.33"
       sodipodi:end="0.959"
       sodipodi:open="true"
       sodipodi:arc-type="arc"
       d="M 161,70.3 A 330,330 0 0 1 300,340 330,330 0 0 1 160,610" /><path
       style="display:inline;fill:none;fill-opacity:0.3;stroke:#097ae7;stroke-width:80;stroke-dasharray:none;stroke-opacity:0.3"
       id="path2"
       inkscape:label="dep-right"
       sodipodi:type="arc"
       sodipodi:cx="-1030"
       sodipodi:cy="339"
       sodipodi:rx="330"
       sodipodi:ry="330"
       sodipodi:start="5.33"
       sodipodi:end="0.959"
       sodipodi:open="true"
       sodipodi:arc-type="arc"
       d="M -839,70.3 A 330,330 0 0 1 -700,340 330,330 0 0 1 -840,609"
       transform="scale(-1,1)" /></g><g
     inkscape:groupmode="layer"
     id="layer3"
     inkscape:label="ref"
     inkscape:highlight-color="#ff5338"
     style="fill:#505050;fill-opacity:0.3"><path
       id="circle7"
       style="baseline-shift:baseline;display:none;overflow:visible;opacity:1;vector-effect:none;fill:#505050;fill-opacity:0.3;stroke:none;stroke-opacity:0.298;enable-background:accumulate;stop-color:#000000;stop-opacity:1"
       d="M 500,37.2 C 397,37.2 313,121 313,224 313,327 397,411 500,411 603,411 687,327 687,224 687,121 603,37.2 500,37.2 Z m 0,79.8 c 60,0 107,47 107,107 0,60 -47,107 -107,107 -60,0 -107,-47 -107,-107 0,-60 47,-107 107,-107 z m -265,242 -71,36 c 59,114 170,190 296,204 V 780 H 300 v 80 h 160 v 120 h 80 V 860 H 700 V 780 H 540 V 599 C 665,586 777,510 835,396 L 765,359 C 714,459 611,521 500,521 388,521 286,459 235,359 Z"
       inkscape:label="pluto-v2" /><path
       id="circle2"
       style="baseline-shift:baseline;display:none;overflow:visible;vector-effect:none;fill:#505050;fill-opacity:0.3;enable-background:accumulate;stop-color:#000000"
       d="M 500,60 C 296,60 130,226 130,430 130,634 296,800 500,800 704,800 870,634 870,430 870,226 704,60 500,60 Z m 0,80 C 661,140 790,269 790,430 790,591 661,720 500,720 339,720 210,591 210,430 210,269 339,140 500,140 Z m 0,210 a 80.4,80.4 0 0 0 -80,80 80.4,80.4 0 0 0 80,80 80.4,80.4 0 0 0 80,-80 80.4,80.4 0 0 0 -80,-80 z"
       inkscape:label="sun-v1" /></g><metadata
     id="metadata1"><rdf:RDF><cc:Work
         rdf:about=""><cc:license
           rdf:resource="http://scripts.sil.org/OFL" /></cc:Work><cc:License
         rdf:about="http://scripts.sil.org/OFL"><cc:permits
           rdf:resource="http://scripts.sil.org/pub/OFL/Reproduction" /><cc:permits
           rdf:resource="http://scripts.sil.org/pub/OFL/Distribution" /><cc:permits
           rdf:resource="http://scripts.sil.org/pub/OFL/Embedding" /><cc:permits
           rdf:resource="http://scripts.sil.org/pub/OFL/DerivativeWorks" /><cc:requires
           rdf:resource="http://scripts.sil.org/pub/OFL/Notice" /><cc:requires
           rdf:resource="http://scripts.sil.org/pub/OFL/Attribution" /><cc:requires
           rdf:resource="http://scripts.sil.org/pub/OFL/ShareAlike" /><cc:requires
           rdf:resource="http://scripts.sil.org/pub/OFL/DerivativeRenaming" /><cc:requires
           rdf:resource="http://scripts.sil.org/pub/OFL/BundlingWhenSelling" /></cc:License></rdf:RDF></metadata><image
     preserveAspectRatio="none"
     inkscape:svg-dpi="96"
     width="1000"
     height="1000"
     xlink:href="../templates/guidelines.svg"
     id="image1"
     x="0"
     y="0"
     inkscape:label="guidelines"
     sodipodi:insensitive="true"
     style="display:inline;mix-blend-mode:normal" /></svg>
