<?xml version="1.0" encoding="UTF-8" standalone="no"?>
<!-- Created with Inkscape (http://www.inkscape.org/) -->

<svg
   width="1000"
   height="1000"
   viewBox="0 0 1000 1000"
   version="1.1"
   id="svg1"
   inkscape:version="1.4.3 (0d15f75042, 2025-12-25)"
   sodipodi:docname="virgo.svg"
   xml:space="preserve"
   xmlns:inkscape="http://www.inkscape.org/namespaces/inkscape"
   xmlns:sodipodi="http://sodipodi.sourceforge.net/DTD/sodipodi-0.dtd"
   xmlns:xlink="http://www.w3.org/1999/xlink"
   xmlns="http://www.w3.org/2000/svg"
   xmlns:svg="http://www.w3.org/2000/svg"
   xmlns:rdf="http://www.w3.org/1999/02/22-rdf-syntax-ns#"
   xmlns:cc="http://creativecommons.org/ns#"><sodipodi:namedview
     id="namedview1"
     pagecolor="#ffffff"
     bordercolor="#999999"
     borderopacity="1"
     inkscape:showpageshadow="2"
     inkscape:pageopacity="0"
     inkscape:pagecheckerboard="0"
     inkscape:deskcolor="#d1d1d1"
     inkscape:document-units="px"
     inkscape:zoom="0.5"
     inkscape:cx="699"
     inkscape:cy="768"
     inkscape:window-width="957"
     inkscape:window-height="1027"
     inkscape:window-x="0"
     inkscape:window-y="0"
     inkscape:window-maximized="0"
     inkscape:current-layer="layer2"
     showgrid="true"
     showguides="true"><inkscape:grid
       id="grid1"
       units="px"
       originx="0"
       originy="0"
       spacingx="10"
       spacingy="10"
       empcolor="#e05050"
       empopacity="0.302"
       color="#505050"
       opacity="0.07843137"
       empspacing="10"
       enabled="true"
       visible="true" /></sodipodi:namedview><defs
     id="defs1" /><g
     inkscape:label="glyph"
     inkscape:groupmode="layer"
     id="layer1"
     style="display:inline"><path
       id="path5"
       style="baseline-shift:baseline;display:inline;overflow:visible;opacity:1;vector-effect:none;fill:#7b0000;fill-opacity:0.299;stroke:none;enable-background:accumulate;stop-color:#000000;stop-opacity:1"
       inkscape:label="virgo"
       d="m 388,57.3 c -25,0 -52,12.4 -68,32.7 -25,30 -44,64 -60,100 0,0 -15,-80 -33,-120 h -57 c 0,0 30,60 30,180 v 550 h 80 V 260 c 0,-60 62,-130 90,-130 18,0 23,23 27,40 3,17 3,46 3,75 v 555 h 80 V 260 c 0,-60 61,-130 86,-130 14,0 22,23 27,40 5,17 7,46 7,75 v 485 c 0,20 3,73 9,93 -27,14 -58,26 -99,37 v 55 c 40,-11 80,-25 116,-42 15,34 35,72 61,107 h 73 c -27,-35 -56,-87 -71,-143 39,-27 73,-62 99,-107 59,-104 62,-170 71,-230 10,-74 3,-144 -11,-188 -15,-43 -43,-71 -84,-75 -42,-4 -66,23 -84,45 V 246 C 680,169 652,57.3 580,57.3 555,57.3 532,71.7 516,90 490,120 469,161 469,161 459,116 428,57.3 388,57.3 Z M 745,298 c 9,1 18,5 25,14 25,33 28,108 24,174 -4,66 -15,157 -74,234 -14,18 -27,34 -40,48 V 370 c 0,-32 30,-75 65,-72 z"
       sodipodi:nodetypes="sscccsccssssccssssscccccccsssccssscssssscss" /></g><g
     inkscape:label="construction"
     inkscape:groupmode="layer"
     id="layer2"
     style="display:none;fill:#4a93b8;fill-opacity:0.299;stroke:none"><path
       style="display:none;fill:none;fill-opacity:0.299;stroke:#38a0e4;stroke-width:70;stroke-dasharray:none;stroke-opacity:0.3"
       d="M 510,890 C 620,860 691,832 760,742 823,660 825,550 827,519 840,320 800,280 770,270 731,257 670,280 640,370"
       id="path3"
       sodipodi:nodetypes="csssc"
       inkscape:label="_tail_stroke"
       sodipodi:insensitive="true" /><path
       style="baseline-shift:baseline;display:inline;overflow:visible;opacity:1;vector-effect:none;fill:#4a93b8;fill-opacity:0.299;stroke:none;enable-background:accumulate;stop-color:#000000;stop-opacity:1"
       d="m 745,232 c -53,2 -88,55 -115,138 l 43,11 c 26,-78 73,-102 97,-69 25,33 28,108 24,174 -4,66 -15,157 -74,234 -59,77 -102,111 -210,140 v 55 c 112,-31 217,-79 278,-185 59,-104 62,-170 71,-230 10,-74 3,-144 -11,-188 -15,-43 -43,-67 -67,-75 -11,-4 -23,-6 -36,-5 z"
       id="path4"
       inkscape:label="tail_path"
       sodipodi:nodetypes="scccccccsssss" /><path
       d="M 200,800 V 250 C 200,130 170,70 170,70 h 57 c 18,40 33,120 33,120 16,-36 35,-70 60,-100 16,-20.3 43,-32.7 68,-32.7 40,0 71,58.7 81,103.7 0,0 21,-41 47,-71 16,-18.3 39,-32.7 64,-32.7 72,0 100,111.7 100,188.7 v 524 c 0,80 43,161 80,210 H 687 C 629,902 600,810 600,775 V 245 c 0,-29 -2,-58 -7,-75 -5,-17 -13,-40 -27,-40 -25,0 -86,70 -86,130 V 800 H 400 V 245 c 0,-29 0,-58 -3,-75 -4,-17 -9,-40 -27,-40 -28,0 -90,70 -90,130 v 540 z"
       id="path2"
       style="display:inline;fill:#4a93b8;fill-opacity:0.299;stroke:none;stroke-width:1.00072"
       inkscape:label="trans-jbm-m-mod"
       sodipodi:nodetypes="cscccsscssssccsssssccsssscc" /></g><g
     inkscape:groupmode="layer"
     id="layer3"
     inkscape:label="ref"
     inkscape:highlight-color="#ff5338" /><metadata
     id="metadata1"><rdf:RDF><cc:Work
         rdf:about=""><cc:license
           rdf:resource="http://scripts.sil.org/OFL" /></cc:Work><cc:License
         rdf:about="http://scripts.sil.org/OFL"><cc:permits
           rdf:resource="http://scripts.sil.org/pub/OFL/Reproduction" /><cc:permits
           rdf:resource="http://scripts.sil.org/pub/OFL/Distribution" /><cc:permits
           rdf:resource="http://scripts.sil.org/pub/OFL/Embedding" /><cc:permits
           rdf:resource="http://scripts.sil.org/pub/OFL/DerivativeWorks" /><cc:requires
           rdf:resource="http://scripts.sil.org/pub/OFL/Notice" /><cc:requires
           rdf:resource="http://scripts.sil.org/pub/OFL/Attribution" /><cc:requires
           rdf:resource="http://scripts.sil.org/pub/OFL/ShareAlike" /><cc:requires
           rdf:resource="http://scripts.sil.org/pub/OFL/DerivativeRenaming" /><cc:requires
           rdf:resource="http://scripts.sil.org/pub/OFL/BundlingWhenSelling" /></cc:License></rdf:RDF></metadata><image
     preserveAspectRatio="none"
     inkscape:svg-dpi="96"
     width="1000"
     height="1000"
     xlink:href="../templates/guidelines.svg"
     id="image1"
     x="0"
     y="0"
     inkscape:label="guidelines"
     sodipodi:insensitive="true"
     style="display:inline;mix-blend-mode:normal" /></svg>
